<?xml version="1.0" encoding="utf-8" standalone="no"?>
<!DOCTYPE svg PUBLIC "-//W3C//DTD SVG 1.1//EN"
  "http://www.w3.org/Graphics/SVG/1.1/DTD/svg11.dtd">
<svg xmlns:xlink="http://www.w3.org/1999/xlink" width="483.471875pt" height="633.538678pt" viewBox="0 0 483.471875 633.538678" xmlns="http://www.w3.org/2000/svg" version="1.1">
 <metadata>
  <rdf:RDF xmlns:dc="http://purl.org/dc/elements/1.1/" xmlns:cc="http://creativecommons.org/ns#" xmlns:rdf="http://www.w3.org/1999/02/22-rdf-syntax-ns#">
   <cc:Work>
    <dc:type rdf:resource="http://purl.org/dc/dcmitype/StillImage"/>
    <dc:date>2024-06-11T13:34:06.717636</dc:date>
    <dc:format>image/svg+xml</dc:format>
    <dc:creator>
     <cc:Agent>
      <dc:title>Matplotlib v3.7.1, https://matplotlib.org/</dc:title>
     </cc:Agent>
    </dc:creator>
   </cc:Work>
  </rdf:RDF>
 </metadata>
 <defs>
  <style type="text/css">*{stroke-linejoin: round; stroke-linecap: butt}</style>
 </defs>
 <g id="figure_1">
  <g id="patch_1">
   <path d="M 0 633.538678 
L 483.471875 633.538678 
L 483.471875 0 
L 0 0 
z
" style="fill: #ffffff"/>
  </g>
  <g id="axes_1">
   <g id="patch_2">
    <path d="M 66.321875 405.526678 
L 456.921875 405.526678 
L 456.921875 17.446678 
L 66.321875 17.446678 
z
" style="fill: #ffffff"/>
   </g>
   <g id="matplotlib.axis_1">
    <g id="xtick_1">
     <g id="text_1">
      <!-- 0.4 -->
      <g style="fill: #262626" transform="translate(94.003355 435.321991) scale(0.3 -0.3)">
       <defs>
        <path id="DejaVuSans-30" d="M 2034 4250 
Q 1547 4250 1301 3770 
Q 1056 3291 1056 2328 
Q 1056 1369 1301 889 
Q 1547 409 2034 409 
Q 2525 409 2770 889 
Q 3016 1369 3016 2328 
Q 3016 3291 2770 3770 
Q 2525 4250 2034 4250 
z
M 2034 4750 
Q 2819 4750 3233 4129 
Q 3647 3509 3647 2328 
Q 3647 1150 3233 529 
Q 2819 -91 2034 -91 
Q 1250 -91 836 529 
Q 422 1150 422 2328 
Q 422 3509 836 4129 
Q 1250 4750 2034 4750 
z
" transform="scale(0.015625)"/>
        <path id="DejaVuSans-2e" d="M 684 794 
L 1344 794 
L 1344 0 
L 684 0 
L 684 794 
z
" transform="scale(0.015625)"/>
        <path id="DejaVuSans-34" d="M 2419 4116 
L 825 1625 
L 2419 1625 
L 2419 4116 
z
M 2253 4666 
L 3047 4666 
L 3047 1625 
L 3713 1625 
L 3713 1100 
L 3047 1100 
L 3047 0 
L 2419 0 
L 2419 1100 
L 313 1100 
L 313 1709 
L 2253 4666 
z
" transform="scale(0.015625)"/>
       </defs>
       <use xlink:href="#DejaVuSans-30"/>
       <use xlink:href="#DejaVuSans-2e" x="63.623047"/>
       <use xlink:href="#DejaVuSans-34" x="95.410156"/>
      </g>
     </g>
    </g>
    <g id="xtick_2">
     <g id="text_2">
      <!-- 0.6 -->
      <g style="fill: #262626" transform="translate(201.10645 435.321991) scale(0.3 -0.3)">
       <defs>
        <path id="DejaVuSans-36" d="M 2113 2584 
Q 1688 2584 1439 2293 
Q 1191 2003 1191 1497 
Q 1191 994 1439 701 
Q 1688 409 2113 409 
Q 2538 409 2786 701 
Q 3034 994 3034 1497 
Q 3034 2003 2786 2293 
Q 2538 2584 2113 2584 
z
M 3366 4563 
L 3366 3988 
Q 3128 4100 2886 4159 
Q 2644 4219 2406 4219 
Q 1781 4219 1451 3797 
Q 1122 3375 1075 2522 
Q 1259 2794 1537 2939 
Q 1816 3084 2150 3084 
Q 2853 3084 3261 2657 
Q 3669 2231 3669 1497 
Q 3669 778 3244 343 
Q 2819 -91 2113 -91 
Q 1303 -91 875 529 
Q 447 1150 447 2328 
Q 447 3434 972 4092 
Q 1497 4750 2381 4750 
Q 2619 4750 2861 4703 
Q 3103 4656 3366 4563 
z
" transform="scale(0.015625)"/>
       </defs>
       <use xlink:href="#DejaVuSans-30"/>
       <use xlink:href="#DejaVuSans-2e" x="63.623047"/>
       <use xlink:href="#DejaVuSans-36" x="95.410156"/>
      </g>
     </g>
    </g>
    <g id="xtick_3">
     <g id="text_3">
      <!-- 0.8 -->
      <g style="fill: #262626" transform="translate(308.209546 435.321991) scale(0.3 -0.3)">
       <defs>
        <path id="DejaVuSans-38" d="M 2034 2216 
Q 1584 2216 1326 1975 
Q 1069 1734 1069 1313 
Q 1069 891 1326 650 
Q 1584 409 2034 409 
Q 2484 409 2743 651 
Q 3003 894 3003 1313 
Q 3003 1734 2745 1975 
Q 2488 2216 2034 2216 
z
M 1403 2484 
Q 997 2584 770 2862 
Q 544 3141 544 3541 
Q 544 4100 942 4425 
Q 1341 4750 2034 4750 
Q 2731 4750 3128 4425 
Q 3525 4100 3525 3541 
Q 3525 3141 3298 2862 
Q 3072 2584 2669 2484 
Q 3125 2378 3379 2068 
Q 3634 1759 3634 1313 
Q 3634 634 3220 271 
Q 2806 -91 2034 -91 
Q 1263 -91 848 271 
Q 434 634 434 1313 
Q 434 1759 690 2068 
Q 947 2378 1403 2484 
z
M 1172 3481 
Q 1172 3119 1398 2916 
Q 1625 2713 2034 2713 
Q 2441 2713 2670 2916 
Q 2900 3119 2900 3481 
Q 2900 3844 2670 4047 
Q 2441 4250 2034 4250 
Q 1625 4250 1398 4047 
Q 1172 3844 1172 3481 
z
" transform="scale(0.015625)"/>
       </defs>
       <use xlink:href="#DejaVuSans-30"/>
       <use xlink:href="#DejaVuSans-2e" x="63.623047"/>
       <use xlink:href="#DejaVuSans-38" x="95.410156"/>
      </g>
     </g>
    </g>
    <g id="xtick_4">
     <g id="text_4">
      <!-- 1.0 -->
      <g style="fill: #262626" transform="translate(415.312642 435.321991) scale(0.3 -0.3)">
       <defs>
        <path id="DejaVuSans-31" d="M 794 531 
L 1825 531 
L 1825 4091 
L 703 3866 
L 703 4441 
L 1819 4666 
L 2450 4666 
L 2450 531 
L 3481 531 
L 3481 0 
L 794 0 
L 794 531 
z
" transform="scale(0.015625)"/>
       </defs>
       <use xlink:href="#DejaVuSans-31"/>
       <use xlink:href="#DejaVuSans-2e" x="63.623047"/>
       <use xlink:href="#DejaVuSans-30" x="95.410156"/>
      </g>
     </g>
    </g>
    <g id="text_5">
     <!-- F1 score -->
     <g style="fill: #262626" transform="translate(198.385156 468.356366) scale(0.3 -0.3)">
      <defs>
       <path id="DejaVuSans-46" d="M 628 4666 
L 3309 4666 
L 3309 4134 
L 1259 4134 
L 1259 2759 
L 3109 2759 
L 3109 2228 
L 1259 2228 
L 1259 0 
L 628 0 
L 628 4666 
z
" transform="scale(0.015625)"/>
       <path id="DejaVuSans-20" transform="scale(0.015625)"/>
       <path id="DejaVuSans-73" d="M 2834 3397 
L 2834 2853 
Q 2591 2978 2328 3040 
Q 2066 3103 1784 3103 
Q 1356 3103 1142 2972 
Q 928 2841 928 2578 
Q 928 2378 1081 2264 
Q 1234 2150 1697 2047 
L 1894 2003 
Q 2506 1872 2764 1633 
Q 3022 1394 3022 966 
Q 3022 478 2636 193 
Q 2250 -91 1575 -91 
Q 1294 -91 989 -36 
Q 684 19 347 128 
L 347 722 
Q 666 556 975 473 
Q 1284 391 1588 391 
Q 1994 391 2212 530 
Q 2431 669 2431 922 
Q 2431 1156 2273 1281 
Q 2116 1406 1581 1522 
L 1381 1569 
Q 847 1681 609 1914 
Q 372 2147 372 2553 
Q 372 3047 722 3315 
Q 1072 3584 1716 3584 
Q 2034 3584 2315 3537 
Q 2597 3491 2834 3397 
z
" transform="scale(0.015625)"/>
       <path id="DejaVuSans-63" d="M 3122 3366 
L 3122 2828 
Q 2878 2963 2633 3030 
Q 2388 3097 2138 3097 
Q 1578 3097 1268 2742 
Q 959 2388 959 1747 
Q 959 1106 1268 751 
Q 1578 397 2138 397 
Q 2388 397 2633 464 
Q 2878 531 3122 666 
L 3122 134 
Q 2881 22 2623 -34 
Q 2366 -91 2075 -91 
Q 1284 -91 818 406 
Q 353 903 353 1747 
Q 353 2603 823 3093 
Q 1294 3584 2113 3584 
Q 2378 3584 2631 3529 
Q 2884 3475 3122 3366 
z
" transform="scale(0.015625)"/>
       <path id="DejaVuSans-6f" d="M 1959 3097 
Q 1497 3097 1228 2736 
Q 959 2375 959 1747 
Q 959 1119 1226 758 
Q 1494 397 1959 397 
Q 2419 397 2687 759 
Q 2956 1122 2956 1747 
Q 2956 2369 2687 2733 
Q 2419 3097 1959 3097 
z
M 1959 3584 
Q 2709 3584 3137 3096 
Q 3566 2609 3566 1747 
Q 3566 888 3137 398 
Q 2709 -91 1959 -91 
Q 1206 -91 779 398 
Q 353 888 353 1747 
Q 353 2609 779 3096 
Q 1206 3584 1959 3584 
z
" transform="scale(0.015625)"/>
       <path id="DejaVuSans-72" d="M 2631 2963 
Q 2534 3019 2420 3045 
Q 2306 3072 2169 3072 
Q 1681 3072 1420 2755 
Q 1159 2438 1159 1844 
L 1159 0 
L 581 0 
L 581 3500 
L 1159 3500 
L 1159 2956 
Q 1341 3275 1631 3429 
Q 1922 3584 2338 3584 
Q 2397 3584 2469 3576 
Q 2541 3569 2628 3553 
L 2631 2963 
z
" transform="scale(0.015625)"/>
       <path id="DejaVuSans-65" d="M 3597 1894 
L 3597 1613 
L 953 1613 
Q 991 1019 1311 708 
Q 1631 397 2203 397 
Q 2534 397 2845 478 
Q 3156 559 3463 722 
L 3463 178 
Q 3153 47 2828 -22 
Q 2503 -91 2169 -91 
Q 1331 -91 842 396 
Q 353 884 353 1716 
Q 353 2575 817 3079 
Q 1281 3584 2069 3584 
Q 2775 3584 3186 3129 
Q 3597 2675 3597 1894 
z
M 3022 2063 
Q 3016 2534 2758 2815 
Q 2500 3097 2075 3097 
Q 1594 3097 1305 2825 
Q 1016 2553 972 2059 
L 3022 2063 
z
" transform="scale(0.015625)"/>
      </defs>
      <use xlink:href="#DejaVuSans-46"/>
      <use xlink:href="#DejaVuSans-31" x="57.519531"/>
      <use xlink:href="#DejaVuSans-20" x="121.142578"/>
      <use xlink:href="#DejaVuSans-73" x="152.929688"/>
      <use xlink:href="#DejaVuSans-63" x="205.029297"/>
      <use xlink:href="#DejaVuSans-6f" x="260.009766"/>
      <use xlink:href="#DejaVuSans-72" x="321.191406"/>
      <use xlink:href="#DejaVuSans-65" x="360.054688"/>
     </g>
    </g>
   </g>
   <g id="matplotlib.axis_2">
    <g id="ytick_1">
     <g id="text_6">
      <!-- 0 -->
      <g style="fill: #262626" transform="translate(40.234375 411.68564) scale(0.3 -0.3)">
       <use xlink:href="#DejaVuSans-30"/>
      </g>
     </g>
    </g>
    <g id="ytick_2">
     <g id="text_7">
      <!-- 1 -->
      <g style="fill: #262626" transform="translate(40.234375 335.347575) scale(0.3 -0.3)">
       <use xlink:href="#DejaVuSans-31"/>
      </g>
     </g>
    </g>
    <g id="ytick_3">
     <g id="text_8">
      <!-- 2 -->
      <g style="fill: #262626" transform="translate(40.234375 259.009509) scale(0.3 -0.3)">
       <defs>
        <path id="DejaVuSans-32" d="M 1228 531 
L 3431 531 
L 3431 0 
L 469 0 
L 469 531 
Q 828 903 1448 1529 
Q 2069 2156 2228 2338 
Q 2531 2678 2651 2914 
Q 2772 3150 2772 3378 
Q 2772 3750 2511 3984 
Q 2250 4219 1831 4219 
Q 1534 4219 1204 4116 
Q 875 4013 500 3803 
L 500 4441 
Q 881 4594 1212 4672 
Q 1544 4750 1819 4750 
Q 2544 4750 2975 4387 
Q 3406 4025 3406 3419 
Q 3406 3131 3298 2873 
Q 3191 2616 2906 2266 
Q 2828 2175 2409 1742 
Q 1991 1309 1228 531 
z
" transform="scale(0.015625)"/>
       </defs>
       <use xlink:href="#DejaVuSans-32"/>
      </g>
     </g>
    </g>
    <g id="ytick_4">
     <g id="text_9">
      <!-- 3 -->
      <g style="fill: #262626" transform="translate(40.234375 182.671444) scale(0.3 -0.3)">
       <defs>
        <path id="DejaVuSans-33" d="M 2597 2516 
Q 3050 2419 3304 2112 
Q 3559 1806 3559 1356 
Q 3559 666 3084 287 
Q 2609 -91 1734 -91 
Q 1441 -91 1130 -33 
Q 819 25 488 141 
L 488 750 
Q 750 597 1062 519 
Q 1375 441 1716 441 
Q 2309 441 2620 675 
Q 2931 909 2931 1356 
Q 2931 1769 2642 2001 
Q 2353 2234 1838 2234 
L 1294 2234 
L 1294 2753 
L 1863 2753 
Q 2328 2753 2575 2939 
Q 2822 3125 2822 3475 
Q 2822 3834 2567 4026 
Q 2313 4219 1838 4219 
Q 1578 4219 1281 4162 
Q 984 4106 628 3988 
L 628 4550 
Q 988 4650 1302 4700 
Q 1616 4750 1894 4750 
Q 2613 4750 3031 4423 
Q 3450 4097 3450 3541 
Q 3450 3153 3228 2886 
Q 3006 2619 2597 2516 
z
" transform="scale(0.015625)"/>
       </defs>
       <use xlink:href="#DejaVuSans-33"/>
      </g>
     </g>
    </g>
    <g id="ytick_5">
     <g id="text_10">
      <!-- 4 -->
      <g style="fill: #262626" transform="translate(40.234375 106.333378) scale(0.3 -0.3)">
       <use xlink:href="#DejaVuSans-34"/>
      </g>
     </g>
    </g>
    <g id="ytick_6">
     <g id="text_11">
      <!-- 5 -->
      <g style="fill: #262626" transform="translate(40.234375 29.995312) scale(0.3 -0.3)">
       <defs>
        <path id="DejaVuSans-35" d="M 691 4666 
L 3169 4666 
L 3169 4134 
L 1269 4134 
L 1269 2991 
Q 1406 3038 1543 3061 
Q 1681 3084 1819 3084 
Q 2600 3084 3056 2656 
Q 3513 2228 3513 1497 
Q 3513 744 3044 326 
Q 2575 -91 1722 -91 
Q 1428 -91 1123 -41 
Q 819 9 494 109 
L 494 744 
Q 775 591 1075 516 
Q 1375 441 1709 441 
Q 2250 441 2565 725 
Q 2881 1009 2881 1497 
Q 2881 1984 2565 2268 
Q 2250 2553 1709 2553 
Q 1456 2553 1204 2497 
Q 953 2441 691 2322 
L 691 4666 
z
" transform="scale(0.015625)"/>
       </defs>
       <use xlink:href="#DejaVuSans-35"/>
      </g>
     </g>
    </g>
    <g id="text_12">
     <!-- volatility score -->
     <g style="fill: #262626" transform="translate(29.995313 321.108553) rotate(-90) scale(0.3 -0.3)">
      <defs>
       <path id="DejaVuSans-76" d="M 191 3500 
L 800 3500 
L 1894 563 
L 2988 3500 
L 3597 3500 
L 2284 0 
L 1503 0 
L 191 3500 
z
" transform="scale(0.015625)"/>
       <path id="DejaVuSans-6c" d="M 603 4863 
L 1178 4863 
L 1178 0 
L 603 0 
L 603 4863 
z
" transform="scale(0.015625)"/>
       <path id="DejaVuSans-61" d="M 2194 1759 
Q 1497 1759 1228 1600 
Q 959 1441 959 1056 
Q 959 750 1161 570 
Q 1363 391 1709 391 
Q 2188 391 2477 730 
Q 2766 1069 2766 1631 
L 2766 1759 
L 2194 1759 
z
M 3341 1997 
L 3341 0 
L 2766 0 
L 2766 531 
Q 2569 213 2275 61 
Q 1981 -91 1556 -91 
Q 1019 -91 701 211 
Q 384 513 384 1019 
Q 384 1609 779 1909 
Q 1175 2209 1959 2209 
L 2766 2209 
L 2766 2266 
Q 2766 2663 2505 2880 
Q 2244 3097 1772 3097 
Q 1472 3097 1187 3025 
Q 903 2953 641 2809 
L 641 3341 
Q 956 3463 1253 3523 
Q 1550 3584 1831 3584 
Q 2591 3584 2966 3190 
Q 3341 2797 3341 1997 
z
" transform="scale(0.015625)"/>
       <path id="DejaVuSans-74" d="M 1172 4494 
L 1172 3500 
L 2356 3500 
L 2356 3053 
L 1172 3053 
L 1172 1153 
Q 1172 725 1289 603 
Q 1406 481 1766 481 
L 2356 481 
L 2356 0 
L 1766 0 
Q 1100 0 847 248 
Q 594 497 594 1153 
L 594 3053 
L 172 3053 
L 172 3500 
L 594 3500 
L 594 4494 
L 1172 4494 
z
" transform="scale(0.015625)"/>
       <path id="DejaVuSans-69" d="M 603 3500 
L 1178 3500 
L 1178 0 
L 603 0 
L 603 3500 
z
M 603 4863 
L 1178 4863 
L 1178 4134 
L 603 4134 
L 603 4863 
z
" transform="scale(0.015625)"/>
       <path id="DejaVuSans-79" d="M 2059 -325 
Q 1816 -950 1584 -1140 
Q 1353 -1331 966 -1331 
L 506 -1331 
L 506 -850 
L 844 -850 
Q 1081 -850 1212 -737 
Q 1344 -625 1503 -206 
L 1606 56 
L 191 3500 
L 800 3500 
L 1894 763 
L 2988 3500 
L 3597 3500 
L 2059 -325 
z
" transform="scale(0.015625)"/>
      </defs>
      <use xlink:href="#DejaVuSans-76"/>
      <use xlink:href="#DejaVuSans-6f" x="59.179688"/>
      <use xlink:href="#DejaVuSans-6c" x="120.361328"/>
      <use xlink:href="#DejaVuSans-61" x="148.144531"/>
      <use xlink:href="#DejaVuSans-74" x="209.423828"/>
      <use xlink:href="#DejaVuSans-69" x="248.632812"/>
      <use xlink:href="#DejaVuSans-6c" x="276.416016"/>
      <use xlink:href="#DejaVuSans-69" x="304.199219"/>
      <use xlink:href="#DejaVuSans-74" x="331.982422"/>
      <use xlink:href="#DejaVuSans-79" x="371.191406"/>
      <use xlink:href="#DejaVuSans-20" x="430.371094"/>
      <use xlink:href="#DejaVuSans-73" x="462.158203"/>
      <use xlink:href="#DejaVuSans-63" x="514.257812"/>
      <use xlink:href="#DejaVuSans-6f" x="569.238281"/>
      <use xlink:href="#DejaVuSans-72" x="630.419922"/>
      <use xlink:href="#DejaVuSans-65" x="669.283203"/>
     </g>
    </g>
   </g>
   <g id="PathCollection_1">
    <defs>
     <path id="mddc927dd37" d="M -4.472136 4.472136 
L 4.472136 -4.472136 
M -4.472136 -4.472136 
L 4.472136 4.472136 
" style="stroke: #1f77b4; stroke-opacity: 0.8; stroke-width: 1.5"/>
    </defs>
    <g clip-path="url(#p5e3b3b7842)">
     <use xlink:href="#mddc927dd37" x="313.738038" y="286.544266" style="fill: #1f77b4; fill-opacity: 0.8; stroke: #1f77b4; stroke-opacity: 0.8; stroke-width: 1.5"/>
     <use xlink:href="#mddc927dd37" x="128.019797" y="289.674127" style="fill: #1f77b4; fill-opacity: 0.8; stroke: #1f77b4; stroke-opacity: 0.8; stroke-width: 1.5"/>
     <use xlink:href="#mddc927dd37" x="130.098396" y="303.109627" style="fill: #1f77b4; fill-opacity: 0.8; stroke: #1f77b4; stroke-opacity: 0.8; stroke-width: 1.5"/>
     <use xlink:href="#mddc927dd37" x="423.542209" y="297.8423" style="fill: #1f77b4; fill-opacity: 0.8; stroke: #1f77b4; stroke-opacity: 0.8; stroke-width: 1.5"/>
     <use xlink:href="#mddc927dd37" x="309.516214" y="283.872434" style="fill: #1f77b4; fill-opacity: 0.8; stroke: #1f77b4; stroke-opacity: 0.8; stroke-width: 1.5"/>
     <use xlink:href="#mddc927dd37" x="429.063264" y="329.064569" style="fill: #1f77b4; fill-opacity: 0.8; stroke: #1f77b4; stroke-opacity: 0.8; stroke-width: 1.5"/>
     <use xlink:href="#mddc927dd37" x="413.852052" y="279.826517" style="fill: #1f77b4; fill-opacity: 0.8; stroke: #1f77b4; stroke-opacity: 0.8; stroke-width: 1.5"/>
     <use xlink:href="#mddc927dd37" x="314.927738" y="264.100875" style="fill: #1f77b4; fill-opacity: 0.8; stroke: #1f77b4; stroke-opacity: 0.8; stroke-width: 1.5"/>
     <use xlink:href="#mddc927dd37" x="146.865131" y="193.717179" style="fill: #1f77b4; fill-opacity: 0.8; stroke: #1f77b4; stroke-opacity: 0.8; stroke-width: 1.5"/>
     <use xlink:href="#mddc927dd37" x="204.384681" y="262.879466" style="fill: #1f77b4; fill-opacity: 0.8; stroke: #1f77b4; stroke-opacity: 0.8; stroke-width: 1.5"/>
     <use xlink:href="#mddc927dd37" x="242.930585" y="323.949918" style="fill: #1f77b4; fill-opacity: 0.8; stroke: #1f77b4; stroke-opacity: 0.8; stroke-width: 1.5"/>
     <use xlink:href="#mddc927dd37" x="187.274317" y="281.505954" style="fill: #1f77b4; fill-opacity: 0.8; stroke: #1f77b4; stroke-opacity: 0.8; stroke-width: 1.5"/>
     <use xlink:href="#mddc927dd37" x="417.359007" y="35.086678" style="fill: #1f77b4; fill-opacity: 0.8; stroke: #1f77b4; stroke-opacity: 0.8; stroke-width: 1.5"/>
     <use xlink:href="#mddc927dd37" x="209.257699" y="323.949918" style="fill: #1f77b4; fill-opacity: 0.8; stroke: #1f77b4; stroke-opacity: 0.8; stroke-width: 1.5"/>
     <use xlink:href="#mddc927dd37" x="396.400468" y="306.697516" style="fill: #1f77b4; fill-opacity: 0.8; stroke: #1f77b4; stroke-opacity: 0.8; stroke-width: 1.5"/>
    </g>
   </g>
   <g id="PolyCollection_1">
    <defs>
     <path id="m9fd0d15ee8" d="M 128.019797 -389.353793 
L 128.019797 -294.421064 
L 131.06064 -295.677678 
L 134.101483 -296.871369 
L 137.142326 -298.06506 
L 140.183169 -299.258751 
L 143.224012 -300.563886 
L 146.264855 -301.946016 
L 149.305698 -303.328145 
L 152.346542 -304.722073 
L 155.387385 -306.279744 
L 158.428228 -308.065851 
L 161.469071 -309.240994 
L 164.509914 -310.917035 
L 167.550757 -312.336309 
L 170.5916 -313.513391 
L 173.632443 -314.690473 
L 176.673286 -316.338788 
L 179.71413 -317.749115 
L 182.754973 -318.648718 
L 185.795816 -319.972569 
L 188.836659 -321.158186 
L 191.877502 -322.455842 
L 194.918345 -323.635118 
L 197.959188 -324.820104 
L 201.000031 -326.005089 
L 204.040874 -327.178547 
L 207.081717 -328.421736 
L 210.122561 -329.707518 
L 213.163404 -330.239871 
L 216.204247 -331.090902 
L 219.24509 -331.788167 
L 222.285933 -331.989281 
L 225.326776 -332.399249 
L 228.367619 -332.852961 
L 231.408462 -333.072451 
L 234.449305 -333.399726 
L 237.490148 -334.12277 
L 240.530992 -334.203888 
L 243.571835 -334.126917 
L 246.612678 -334.101947 
L 249.653521 -334.561943 
L 252.694364 -334.789567 
L 255.735207 -334.821924 
L 258.77605 -334.618537 
L 261.816893 -334.377929 
L 264.857736 -334.714471 
L 267.898579 -335.032537 
L 270.939423 -335.073003 
L 273.980266 -334.616661 
L 277.021109 -335.153933 
L 280.061952 -334.737752 
L 283.102795 -334.486356 
L 286.143638 -334.408531 
L 289.184481 -334.202065 
L 292.225324 -334.095513 
L 295.266167 -333.759209 
L 298.30701 -333.363996 
L 301.347854 -333.021628 
L 304.388697 -332.572706 
L 307.42954 -332.437984 
L 310.470383 -332.141849 
L 313.511226 -331.899451 
L 316.552069 -331.585332 
L 319.592912 -331.297128 
L 322.633755 -330.814878 
L 325.674598 -330.630635 
L 328.715442 -330.429504 
L 331.756285 -330.232337 
L 334.797128 -329.873361 
L 337.837971 -329.514385 
L 340.878814 -329.15541 
L 343.919657 -328.796434 
L 346.9605 -328.437458 
L 350.001343 -328.112315 
L 353.042186 -327.93832 
L 356.083029 -327.719556 
L 359.123873 -327.34129 
L 362.164716 -326.810804 
L 365.205559 -326.526584 
L 368.246402 -326.466851 
L 371.287245 -326.355554 
L 374.328088 -325.877639 
L 377.368931 -325.400008 
L 380.409774 -324.989166 
L 383.450617 -324.592344 
L 386.49146 -323.956221 
L 389.532304 -323.475978 
L 392.573147 -323.036982 
L 395.61399 -322.507308 
L 398.654833 -322.022495 
L 401.695676 -321.285187 
L 404.736519 -320.572078 
L 407.777362 -320.338831 
L 410.818205 -320.091493 
L 413.859048 -319.461456 
L 416.899891 -318.74856 
L 419.940735 -318.035664 
L 422.981578 -317.402307 
L 426.022421 -316.613552 
L 429.063264 -316.098005 
L 429.063264 -477.871672 
L 429.063264 -477.871672 
L 426.022421 -475.782238 
L 422.981578 -474.066368 
L 419.940735 -472.018394 
L 416.899891 -469.97042 
L 413.859048 -468.240237 
L 410.818205 -466.959176 
L 407.777362 -465.678115 
L 404.736519 -464.397053 
L 401.695676 -463.075702 
L 398.654833 -461.496199 
L 395.61399 -459.916695 
L 392.573147 -458.327465 
L 389.532304 -457.047757 
L 386.49146 -455.430096 
L 383.450617 -453.685284 
L 380.409774 -452.152657 
L 377.368931 -450.664035 
L 374.328088 -448.925422 
L 371.287245 -447.219404 
L 368.246402 -445.636634 
L 365.205559 -444.053864 
L 362.164716 -442.482932 
L 359.123873 -441.033977 
L 356.083029 -439.585022 
L 353.042186 -438.136066 
L 350.001343 -436.686887 
L 346.9605 -435.211449 
L 343.919657 -433.754528 
L 340.878814 -432.374238 
L 337.837971 -430.867033 
L 334.797128 -429.424874 
L 331.756285 -427.981655 
L 328.715442 -426.514088 
L 325.674598 -424.86073 
L 322.633755 -422.763227 
L 319.592912 -421.603884 
L 316.552069 -420.444541 
L 313.511226 -419.250286 
L 310.470383 -417.807631 
L 307.42954 -416.364976 
L 304.388697 -414.962932 
L 301.347854 -413.693525 
L 298.30701 -412.583775 
L 295.266167 -411.043783 
L 292.225324 -409.117503 
L 289.184481 -408.02692 
L 286.143638 -407.315236 
L 283.102795 -406.001722 
L 280.061952 -404.613646 
L 277.021109 -402.898337 
L 273.980266 -401.346644 
L 270.939423 -400.552445 
L 267.898579 -399.690777 
L 264.857736 -398.722461 
L 261.816893 -397.407122 
L 258.77605 -396.097214 
L 255.735207 -395.395017 
L 252.694364 -394.002692 
L 249.653521 -392.657624 
L 246.612678 -392.090001 
L 243.571835 -391.482021 
L 240.530992 -391.168309 
L 237.490148 -390.68379 
L 234.449305 -390.370842 
L 231.408462 -389.887067 
L 228.367619 -389.290669 
L 225.326776 -388.745961 
L 222.285933 -387.827875 
L 219.24509 -386.759636 
L 216.204247 -386.177708 
L 213.163404 -385.813652 
L 210.122561 -385.857833 
L 207.081717 -385.919514 
L 204.040874 -385.972444 
L 201.000031 -385.937512 
L 197.959188 -386.07184 
L 194.918345 -386.127455 
L 191.877502 -386.034683 
L 188.836659 -385.8282 
L 185.795816 -385.020553 
L 182.754973 -384.644555 
L 179.71413 -385.121829 
L 176.673286 -385.17942 
L 173.632443 -385.317631 
L 170.5916 -385.400521 
L 167.550757 -385.521874 
L 164.509914 -385.185731 
L 161.469071 -385.509801 
L 158.428228 -386.180862 
L 155.387385 -386.787011 
L 152.346542 -386.875847 
L 149.305698 -387.001104 
L 146.264855 -386.987714 
L 143.224012 -387.045415 
L 140.183169 -387.489155 
L 137.142326 -387.998193 
L 134.101483 -388.329916 
L 131.06064 -388.943921 
L 128.019797 -389.353793 
z
" style="stroke: #ffffff; stroke-opacity: 0.15"/>
    </defs>
    <g clip-path="url(#p5e3b3b7842)">
     <use xlink:href="#m9fd0d15ee8" x="0" y="633.538678" style="fill: #1f77b4; fill-opacity: 0.15; stroke: #ffffff; stroke-opacity: 0.15"/>
    </g>
   </g>
   <g id="PathCollection_2">
    <defs>
     <path id="mc81762b925" d="M 0 -4.472136 
L -4.472136 4.472136 
L 4.472136 4.472136 
z
" style="stroke: #ff7f0e; stroke-opacity: 0.8"/>
    </defs>
    <g clip-path="url(#p5e3b3b7842)">
     <use xlink:href="#mc81762b925" x="335.519172" y="286.544266" style="fill: #ff7f0e; fill-opacity: 0.8; stroke: #ff7f0e; stroke-opacity: 0.8"/>
     <use xlink:href="#mc81762b925" x="307.629389" y="289.674127" style="fill: #ff7f0e; fill-opacity: 0.8; stroke: #ff7f0e; stroke-opacity: 0.8"/>
     <use xlink:href="#mc81762b925" x="333.594278" y="303.109627" style="fill: #ff7f0e; fill-opacity: 0.8; stroke: #ff7f0e; stroke-opacity: 0.8"/>
     <use xlink:href="#mc81762b925" x="436.326399" y="297.8423" style="fill: #ff7f0e; fill-opacity: 0.8; stroke: #ff7f0e; stroke-opacity: 0.8"/>
     <use xlink:href="#mc81762b925" x="362.114743" y="283.872434" style="fill: #ff7f0e; fill-opacity: 0.8; stroke: #ff7f0e; stroke-opacity: 0.8"/>
     <use xlink:href="#mc81762b925" x="439.16733" y="329.064569" style="fill: #ff7f0e; fill-opacity: 0.8; stroke: #ff7f0e; stroke-opacity: 0.8"/>
     <use xlink:href="#mc81762b925" x="402.168078" y="279.826517" style="fill: #ff7f0e; fill-opacity: 0.8; stroke: #ff7f0e; stroke-opacity: 0.8"/>
     <use xlink:href="#mc81762b925" x="355.626915" y="264.100875" style="fill: #ff7f0e; fill-opacity: 0.8; stroke: #ff7f0e; stroke-opacity: 0.8"/>
     <use xlink:href="#mc81762b925" x="285.23373" y="193.717179" style="fill: #ff7f0e; fill-opacity: 0.8; stroke: #ff7f0e; stroke-opacity: 0.8"/>
     <use xlink:href="#mc81762b925" x="189.540389" y="262.879466" style="fill: #ff7f0e; fill-opacity: 0.8; stroke: #ff7f0e; stroke-opacity: 0.8"/>
     <use xlink:href="#mc81762b925" x="332.3113" y="323.949918" style="fill: #ff7f0e; fill-opacity: 0.8; stroke: #ff7f0e; stroke-opacity: 0.8"/>
     <use xlink:href="#mc81762b925" x="187.696557" y="281.505954" style="fill: #ff7f0e; fill-opacity: 0.8; stroke: #ff7f0e; stroke-opacity: 0.8"/>
     <use xlink:href="#mc81762b925" x="253.562533" y="35.086678" style="fill: #ff7f0e; fill-opacity: 0.8; stroke: #ff7f0e; stroke-opacity: 0.8"/>
     <use xlink:href="#mc81762b925" x="257.4386" y="323.949918" style="fill: #ff7f0e; fill-opacity: 0.8; stroke: #ff7f0e; stroke-opacity: 0.8"/>
     <use xlink:href="#mc81762b925" x="401.978755" y="306.697516" style="fill: #ff7f0e; fill-opacity: 0.8; stroke: #ff7f0e; stroke-opacity: 0.8"/>
    </g>
   </g>
   <g id="PolyCollection_2">
    <defs>
     <path id="m290b20b3f1" d="M 187.696557 -549.23458 
L 187.696557 -341.652145 
L 190.236666 -341.541621 
L 192.776775 -341.431098 
L 195.316884 -341.320575 
L 197.856992 -341.269872 
L 200.397101 -341.229719 
L 202.93721 -341.189567 
L 205.477319 -341.149544 
L 208.017428 -341.110349 
L 210.557536 -341.01876 
L 213.097645 -340.75144 
L 215.637754 -340.577861 
L 218.177863 -340.501353 
L 220.717972 -340.352191 
L 223.25808 -340.13632 
L 225.798189 -339.971018 
L 228.338298 -339.855989 
L 230.878407 -339.740959 
L 233.418516 -339.626878 
L 235.958625 -339.5185 
L 238.498733 -339.410123 
L 241.038842 -339.296805 
L 243.578951 -339.181103 
L 246.11906 -339.071019 
L 248.659169 -338.960934 
L 251.199277 -338.847082 
L 253.739386 -338.732599 
L 256.279495 -338.620756 
L 258.819604 -338.510932 
L 261.359713 -338.477618 
L 263.899821 -338.333695 
L 266.43993 -338.311227 
L 268.980039 -338.288903 
L 271.520148 -338.270093 
L 274.060257 -338.251529 
L 276.600366 -338.232964 
L 279.140474 -338.203025 
L 281.680583 -338.224962 
L 284.220692 -338.028358 
L 286.760801 -337.834182 
L 289.30091 -337.641582 
L 291.841018 -337.448982 
L 294.381127 -337.257224 
L 296.921236 -337.066026 
L 299.461345 -336.808649 
L 302.001454 -336.68107 
L 304.541562 -336.484666 
L 307.081671 -336.29549 
L 309.62178 -336.22831 
L 312.161889 -335.911807 
L 314.701998 -335.751707 
L 317.242107 -335.523877 
L 319.782215 -335.330381 
L 322.322324 -335.137781 
L 324.862433 -334.845646 
L 327.402542 -334.656711 
L 329.942651 -334.39087 
L 332.482759 -334.053275 
L 335.022868 -333.778924 
L 337.562977 -333.470993 
L 340.103086 -333.089217 
L 342.643195 -332.648606 
L 345.183303 -332.745114 
L 347.723412 -332.869013 
L 350.263521 -332.67433 
L 352.80363 -332.370877 
L 355.343739 -332.046649 
L 357.883848 -331.736435 
L 360.423956 -331.423369 
L 362.964065 -330.966235 
L 365.504174 -330.634193 
L 368.044283 -329.945257 
L 370.584392 -329.500637 
L 373.1245 -328.916538 
L 375.664609 -327.735781 
L 378.204718 -327.050182 
L 380.744827 -326.523269 
L 383.284936 -325.554007 
L 385.825044 -323.967175 
L 388.365153 -322.283863 
L 390.905262 -321.134541 
L 393.445371 -319.778651 
L 395.98548 -317.8284 
L 398.525589 -315.330368 
L 401.065697 -313.089752 
L 403.605806 -310.957006 
L 406.145915 -308.855274 
L 408.686024 -305.746384 
L 411.226133 -304.168849 
L 413.766241 -301.6796 
L 416.30635 -299.385153 
L 418.846459 -296.570642 
L 421.386568 -293.881082 
L 423.926677 -292.176818 
L 426.466785 -290.115622 
L 429.006894 -287.230165 
L 431.547003 -284.255177 
L 434.087112 -281.408233 
L 436.627221 -278.250536 
L 439.16733 -275.526355 
L 439.16733 -348.381962 
L 439.16733 -348.381962 
L 436.627221 -348.644758 
L 434.087112 -349.574201 
L 431.547003 -350.079655 
L 429.006894 -350.115615 
L 426.466785 -350.353361 
L 423.926677 -350.996553 
L 421.386568 -351.412198 
L 418.846459 -352.050998 
L 416.30635 -352.328481 
L 413.766241 -352.596485 
L 411.226133 -352.857167 
L 408.686024 -353.576852 
L 406.145915 -354.119616 
L 403.605806 -354.387157 
L 401.065697 -354.887557 
L 398.525589 -355.892271 
L 395.98548 -357.046793 
L 393.445371 -357.681905 
L 390.905262 -358.661886 
L 388.365153 -359.723798 
L 385.825044 -360.563168 
L 383.284936 -361.562061 
L 380.744827 -362.469161 
L 378.204718 -363.649659 
L 375.664609 -364.683137 
L 373.1245 -365.594176 
L 370.584392 -367.291891 
L 368.044283 -369.291866 
L 365.504174 -370.983562 
L 362.964065 -372.526435 
L 360.423956 -374.367725 
L 357.883848 -376.419357 
L 355.343739 -378.449351 
L 352.80363 -380.096135 
L 350.263521 -381.712587 
L 347.723412 -383.977993 
L 345.183303 -386.355665 
L 342.643195 -388.666543 
L 340.103086 -391.064359 
L 337.562977 -393.133085 
L 335.022868 -395.427408 
L 332.482759 -397.717302 
L 329.942651 -400.001636 
L 327.402542 -402.285389 
L 324.862433 -404.569143 
L 322.322324 -406.99379 
L 319.782215 -409.795479 
L 317.242107 -412.528985 
L 314.701998 -414.891892 
L 312.161889 -417.2548 
L 309.62178 -419.605916 
L 307.081671 -421.956714 
L 304.541562 -424.477594 
L 302.001454 -427.553936 
L 299.461345 -429.902298 
L 296.921236 -432.669793 
L 294.381127 -435.503583 
L 291.841018 -438.337374 
L 289.30091 -440.732994 
L 286.760801 -443.093944 
L 284.220692 -446.010489 
L 281.680583 -449.174046 
L 279.140474 -452.183695 
L 276.600366 -454.775025 
L 274.060257 -457.538708 
L 271.520148 -459.997179 
L 268.980039 -462.616332 
L 266.43993 -465.432778 
L 263.899821 -468.249224 
L 261.359713 -471.06567 
L 258.819604 -473.882116 
L 256.279495 -476.692454 
L 253.739386 -479.498178 
L 251.199277 -482.303903 
L 248.659169 -485.109628 
L 246.11906 -487.898784 
L 243.578951 -490.40215 
L 241.038842 -492.893268 
L 238.498733 -495.268632 
L 235.958625 -497.488084 
L 233.418516 -499.707535 
L 230.878407 -501.926987 
L 228.338298 -504.306804 
L 225.798189 -507.107412 
L 223.25808 -509.90802 
L 220.717972 -512.789863 
L 218.177863 -515.518666 
L 215.637754 -518.330307 
L 213.097645 -521.141949 
L 210.557536 -523.95359 
L 208.017428 -526.765232 
L 205.477319 -529.576873 
L 202.93721 -532.388515 
L 200.397101 -535.200156 
L 197.856992 -538.011797 
L 195.316884 -540.823439 
L 192.776775 -543.630263 
L 190.236666 -546.432422 
L 187.696557 -549.23458 
z
" style="stroke: #ffffff; stroke-opacity: 0.15"/>
    </defs>
    <g clip-path="url(#p5e3b3b7842)">
     <use xlink:href="#m290b20b3f1" x="0" y="633.538678" style="fill: #ff7f0e; fill-opacity: 0.15; stroke: #ffffff; stroke-opacity: 0.15"/>
    </g>
   </g>
   <g id="PathCollection_3">
    <defs>
     <path id="m4ae7a82a2f" d="M 0 4.472136 
C 1.186024 4.472136 2.323632 4.000923 3.162278 3.162278 
C 4.000923 2.323632 4.472136 1.186024 4.472136 0 
C 4.472136 -1.186024 4.000923 -2.323632 3.162278 -3.162278 
C 2.323632 -4.000923 1.186024 -4.472136 0 -4.472136 
C -1.186024 -4.472136 -2.323632 -4.000923 -3.162278 -3.162278 
C -4.000923 -2.323632 -4.472136 -1.186024 -4.472136 0 
C -4.472136 1.186024 -4.000923 2.323632 -3.162278 3.162278 
C -2.323632 4.000923 -1.186024 4.472136 0 4.472136 
z
" style="stroke: #2ca02c; stroke-opacity: 0.8"/>
    </defs>
    <g clip-path="url(#p5e3b3b7842)">
     <use xlink:href="#m4ae7a82a2f" x="335.519172" y="286.544266" style="fill: #2ca02c; fill-opacity: 0.8; stroke: #2ca02c; stroke-opacity: 0.8"/>
     <use xlink:href="#m4ae7a82a2f" x="313.871868" y="289.674127" style="fill: #2ca02c; fill-opacity: 0.8; stroke: #2ca02c; stroke-opacity: 0.8"/>
     <use xlink:href="#m4ae7a82a2f" x="329.004145" y="303.109627" style="fill: #2ca02c; fill-opacity: 0.8; stroke: #2ca02c; stroke-opacity: 0.8"/>
     <use xlink:href="#m4ae7a82a2f" x="434.905933" y="297.8423" style="fill: #2ca02c; fill-opacity: 0.8; stroke: #2ca02c; stroke-opacity: 0.8"/>
     <use xlink:href="#m4ae7a82a2f" x="247.773711" y="283.872434" style="fill: #2ca02c; fill-opacity: 0.8; stroke: #2ca02c; stroke-opacity: 0.8"/>
     <use xlink:href="#m4ae7a82a2f" x="385.615782" y="329.064569" style="fill: #2ca02c; fill-opacity: 0.8; stroke: #2ca02c; stroke-opacity: 0.8"/>
     <use xlink:href="#m4ae7a82a2f" x="402.168078" y="279.826517" style="fill: #2ca02c; fill-opacity: 0.8; stroke: #2ca02c; stroke-opacity: 0.8"/>
     <use xlink:href="#m4ae7a82a2f" x="326.709079" y="264.100875" style="fill: #2ca02c; fill-opacity: 0.8; stroke: #2ca02c; stroke-opacity: 0.8"/>
     <use xlink:href="#m4ae7a82a2f" x="278.729494" y="193.717179" style="fill: #2ca02c; fill-opacity: 0.8; stroke: #2ca02c; stroke-opacity: 0.8"/>
     <use xlink:href="#m4ae7a82a2f" x="141.191592" y="262.879466" style="fill: #2ca02c; fill-opacity: 0.8; stroke: #2ca02c; stroke-opacity: 0.8"/>
     <use xlink:href="#m4ae7a82a2f" x="327.511891" y="323.949918" style="fill: #2ca02c; fill-opacity: 0.8; stroke: #2ca02c; stroke-opacity: 0.8"/>
     <use xlink:href="#m4ae7a82a2f" x="200.726131" y="281.505954" style="fill: #2ca02c; fill-opacity: 0.8; stroke: #2ca02c; stroke-opacity: 0.8"/>
     <use xlink:href="#m4ae7a82a2f" x="84.07642" y="35.086678" style="fill: #2ca02c; fill-opacity: 0.8; stroke: #2ca02c; stroke-opacity: 0.8"/>
     <use xlink:href="#m4ae7a82a2f" x="247.796933" y="323.949918" style="fill: #2ca02c; fill-opacity: 0.8; stroke: #2ca02c; stroke-opacity: 0.8"/>
     <use xlink:href="#m4ae7a82a2f" x="401.978755" y="306.697516" style="fill: #2ca02c; fill-opacity: 0.8; stroke: #2ca02c; stroke-opacity: 0.8"/>
    </g>
   </g>
   <g id="PolyCollection_3">
    <defs>
     <path id="m3c8e19ad2e" d="M 84.07642 -562.477134 
L 84.07642 -344.258715 
L 87.620153 -344.175165 
L 91.163885 -344.091615 
L 94.707618 -344.008274 
L 98.25135 -343.927357 
L 101.795083 -343.846439 
L 105.338815 -343.765521 
L 108.882548 -343.684604 
L 112.42628 -343.603686 
L 115.970013 -343.522768 
L 119.513745 -343.441851 
L 123.057477 -343.360933 
L 126.60121 -343.280015 
L 130.144942 -343.199097 
L 133.688675 -343.11818 
L 137.232407 -343.069039 
L 140.77614 -343.075257 
L 144.319872 -343.081474 
L 147.863605 -343.083408 
L 151.407337 -343.009289 
L 154.951069 -342.934446 
L 158.494802 -342.731258 
L 162.038534 -342.528071 
L 165.582267 -342.369564 
L 169.125999 -342.283277 
L 172.669732 -342.19699 
L 176.213464 -342.110703 
L 179.757197 -342.024416 
L 183.300929 -341.857303 
L 186.844662 -341.655348 
L 190.388394 -341.763347 
L 193.932126 -341.691878 
L 197.475859 -341.605018 
L 201.019591 -341.446497 
L 204.563324 -341.267383 
L 208.107056 -341.088269 
L 211.650789 -340.802993 
L 215.194521 -340.436636 
L 218.738254 -340.073745 
L 222.281986 -339.710854 
L 225.825719 -339.377945 
L 229.369451 -339.316846 
L 232.913183 -339.317495 
L 236.456916 -339.215281 
L 240.000648 -338.9911 
L 243.544381 -338.7418 
L 247.088113 -338.5428 
L 250.631846 -338.530383 
L 254.175578 -338.319851 
L 257.719311 -338.056505 
L 261.263043 -337.705807 
L 264.806775 -337.263766 
L 268.350508 -337.177982 
L 271.89424 -336.922312 
L 275.437973 -336.742543 
L 278.981705 -336.161735 
L 282.525438 -336.035808 
L 286.06917 -335.339657 
L 289.612903 -335.16537 
L 293.156635 -334.760881 
L 296.700368 -334.691462 
L 300.2441 -334.481131 
L 303.787832 -334.271028 
L 307.331565 -333.302944 
L 310.875297 -332.550137 
L 314.41903 -331.708702 
L 317.962762 -330.442414 
L 321.506495 -328.603942 
L 325.050227 -327.16716 
L 328.59396 -325.740597 
L 332.137692 -323.890866 
L 335.681425 -322.015691 
L 339.225157 -319.235377 
L 342.768889 -316.829826 
L 346.312622 -314.824808 
L 349.856354 -312.007061 
L 353.400087 -309.191444 
L 356.943819 -306.386744 
L 360.487552 -303.809797 
L 364.031284 -301.356937 
L 367.575017 -299.299568 
L 371.118749 -297.072976 
L 374.662481 -294.020077 
L 378.206214 -291.185456 
L 381.749946 -288.354568 
L 385.293679 -285.577287 
L 388.837411 -282.801729 
L 392.381144 -280.026888 
L 395.924876 -277.252046 
L 399.468609 -274.175776 
L 403.012341 -271.09553 
L 406.556074 -268.020279 
L 410.099806 -264.945028 
L 413.643538 -261.869777 
L 417.187271 -258.80571 
L 420.731003 -255.917097 
L 424.274736 -253.41438 
L 427.818468 -250.919592 
L 431.362201 -248.148035 
L 434.905933 -245.652 
L 434.905933 -342.790166 
L 434.905933 -342.790166 
L 431.362201 -343.103286 
L 427.818468 -343.598317 
L 424.274736 -343.761203 
L 420.731003 -344.021077 
L 417.187271 -344.325113 
L 413.643538 -344.570178 
L 410.099806 -344.878853 
L 406.556074 -345.254861 
L 403.012341 -345.597459 
L 399.468609 -346.032759 
L 395.924876 -346.477899 
L 392.381144 -347.154063 
L 388.837411 -347.712553 
L 385.293679 -348.18797 
L 381.749946 -348.796895 
L 378.206214 -349.399956 
L 374.662481 -350.25756 
L 371.118749 -351.174241 
L 367.575017 -351.825163 
L 364.031284 -352.25215 
L 360.487552 -353.213476 
L 356.943819 -354.942902 
L 353.400087 -356.893397 
L 349.856354 -358.157461 
L 346.312622 -359.119331 
L 342.768889 -360.786614 
L 339.225157 -362.714903 
L 335.681425 -364.644443 
L 332.137692 -366.571978 
L 328.59396 -368.504439 
L 325.050227 -370.471507 
L 321.506495 -373.046029 
L 317.962762 -375.426236 
L 314.41903 -377.902308 
L 310.875297 -380.631103 
L 307.331565 -383.237482 
L 303.787832 -385.686443 
L 300.2441 -388.148198 
L 296.700368 -390.687165 
L 293.156635 -393.017168 
L 289.612903 -395.530033 
L 286.06917 -398.546893 
L 282.525438 -401.451387 
L 278.981705 -403.897284 
L 275.437973 -406.648442 
L 271.89424 -409.401998 
L 268.350508 -412.374193 
L 264.806775 -415.249642 
L 261.263043 -417.39272 
L 257.719311 -420.297626 
L 254.175578 -423.200437 
L 250.631846 -426.095783 
L 247.088113 -428.991129 
L 243.544381 -431.886476 
L 240.000648 -434.679749 
L 236.456916 -437.817556 
L 232.913183 -440.599732 
L 229.369451 -443.498083 
L 225.825719 -446.230827 
L 222.281986 -448.765069 
L 218.738254 -451.243576 
L 215.194521 -454.228621 
L 211.650789 -457.076366 
L 208.107056 -459.787182 
L 204.563324 -462.503304 
L 201.019591 -465.219425 
L 197.475859 -467.935547 
L 193.932126 -470.651668 
L 190.388394 -473.365166 
L 186.844662 -476.467307 
L 183.300929 -479.717677 
L 179.757197 -482.924071 
L 176.213464 -485.719185 
L 172.669732 -488.502331 
L 169.125999 -491.19823 
L 165.582267 -493.786018 
L 162.038534 -496.391366 
L 158.494802 -499.621782 
L 154.951069 -502.451462 
L 151.407337 -505.251085 
L 147.863605 -508.265974 
L 144.319872 -511.298863 
L 140.77614 -514.663232 
L 137.232407 -517.471832 
L 133.688675 -520.432254 
L 130.144942 -523.593663 
L 126.60121 -526.811173 
L 123.057477 -530.0233 
L 119.513745 -532.898295 
L 115.970013 -535.762593 
L 112.42628 -538.961594 
L 108.882548 -542.010412 
L 105.338815 -544.792735 
L 101.795083 -547.761466 
L 98.25135 -550.797301 
L 94.707618 -553.818299 
L 91.163885 -556.723779 
L 87.620153 -559.625978 
L 84.07642 -562.477134 
z
" style="stroke: #ffffff; stroke-opacity: 0.15"/>
    </defs>
    <g clip-path="url(#p5e3b3b7842)">
     <use xlink:href="#m3c8e19ad2e" x="0" y="633.538678" style="fill: #2ca02c; fill-opacity: 0.15; stroke: #ffffff; stroke-opacity: 0.15"/>
    </g>
   </g>
   <g id="line2d_1">
    <path d="M 128.019797 285.831318 
L 131.06064 285.538953 
L 134.101483 285.246588 
L 137.142326 284.954223 
L 140.183169 284.661858 
L 143.224012 284.369492 
L 146.264855 284.077127 
L 149.305698 283.784762 
L 152.346542 283.492397 
L 155.387385 283.200031 
L 158.428228 282.907666 
L 161.469071 282.615301 
L 164.509914 282.322936 
L 167.550757 282.030571 
L 170.5916 281.738205 
L 173.632443 281.44584 
L 176.673286 281.153475 
L 179.71413 280.86111 
L 182.754973 280.568744 
L 185.795816 280.276379 
L 188.836659 279.984014 
L 191.877502 279.691649 
L 194.918345 279.399284 
L 197.959188 279.106918 
L 201.000031 278.814553 
L 204.040874 278.522188 
L 207.081717 278.229823 
L 210.122561 277.937457 
L 213.163404 277.645092 
L 216.204247 277.352727 
L 219.24509 277.060362 
L 222.285933 276.767997 
L 225.326776 276.475631 
L 228.367619 276.183266 
L 231.408462 275.890901 
L 234.449305 275.598536 
L 237.490148 275.30617 
L 240.530992 275.013805 
L 243.571835 274.72144 
L 246.612678 274.429075 
L 249.653521 274.13671 
L 252.694364 273.844344 
L 255.735207 273.551979 
L 258.77605 273.259614 
L 261.816893 272.967249 
L 264.857736 272.674884 
L 267.898579 272.382518 
L 270.939423 272.090153 
L 273.980266 271.797788 
L 277.021109 271.505423 
L 280.061952 271.213057 
L 283.102795 270.920692 
L 286.143638 270.628327 
L 289.184481 270.335962 
L 292.225324 270.043597 
L 295.266167 269.751231 
L 298.30701 269.458866 
L 301.347854 269.166501 
L 304.388697 268.874136 
L 307.42954 268.58177 
L 310.470383 268.289405 
L 313.511226 267.99704 
L 316.552069 267.704675 
L 319.592912 267.41231 
L 322.633755 267.119944 
L 325.674598 266.827579 
L 328.715442 266.535214 
L 331.756285 266.242849 
L 334.797128 265.950483 
L 337.837971 265.658118 
L 340.878814 265.365753 
L 343.919657 265.073388 
L 346.9605 264.781023 
L 350.001343 264.488657 
L 353.042186 264.196292 
L 356.083029 263.903927 
L 359.123873 263.611562 
L 362.164716 263.319197 
L 365.205559 263.026831 
L 368.246402 262.734466 
L 371.287245 262.442101 
L 374.328088 262.149736 
L 377.368931 261.85737 
L 380.409774 261.565005 
L 383.450617 261.27264 
L 386.49146 260.980275 
L 389.532304 260.68791 
L 392.573147 260.395544 
L 395.61399 260.103179 
L 398.654833 259.810814 
L 401.695676 259.518449 
L 404.736519 259.226083 
L 407.777362 258.933718 
L 410.818205 258.641353 
L 413.859048 258.348988 
L 416.899891 258.056623 
L 419.940735 257.764257 
L 422.981578 257.471892 
L 426.022421 257.179527 
L 429.063264 256.887162 
" clip-path="url(#p5e3b3b7842)" style="fill: none; stroke: #1f77b4; stroke-width: 2.25; stroke-linecap: round"/>
   </g>
   <g id="line2d_2">
    <path d="M 187.696557 224.468588 
L 190.236666 225.32346 
L 192.776775 226.178332 
L 195.316884 227.033204 
L 197.856992 227.888076 
L 200.397101 228.742948 
L 202.93721 229.59782 
L 205.477319 230.452691 
L 208.017428 231.307563 
L 210.557536 232.162435 
L 213.097645 233.017307 
L 215.637754 233.872179 
L 218.177863 234.727051 
L 220.717972 235.581923 
L 223.25808 236.436795 
L 225.798189 237.291666 
L 228.338298 238.146538 
L 230.878407 239.00141 
L 233.418516 239.856282 
L 235.958625 240.711154 
L 238.498733 241.566026 
L 241.038842 242.420898 
L 243.578951 243.275769 
L 246.11906 244.130641 
L 248.659169 244.985513 
L 251.199277 245.840385 
L 253.739386 246.695257 
L 256.279495 247.550129 
L 258.819604 248.405001 
L 261.359713 249.259872 
L 263.899821 250.114744 
L 266.43993 250.969616 
L 268.980039 251.824488 
L 271.520148 252.67936 
L 274.060257 253.534232 
L 276.600366 254.389104 
L 279.140474 255.243975 
L 281.680583 256.098847 
L 284.220692 256.953719 
L 286.760801 257.808591 
L 289.30091 258.663463 
L 291.841018 259.518335 
L 294.381127 260.373207 
L 296.921236 261.228078 
L 299.461345 262.08295 
L 302.001454 262.937822 
L 304.541562 263.792694 
L 307.081671 264.647566 
L 309.62178 265.502438 
L 312.161889 266.35731 
L 314.701998 267.212181 
L 317.242107 268.067053 
L 319.782215 268.921925 
L 322.322324 269.776797 
L 324.862433 270.631669 
L 327.402542 271.486541 
L 329.942651 272.341413 
L 332.482759 273.196284 
L 335.022868 274.051156 
L 337.562977 274.906028 
L 340.103086 275.7609 
L 342.643195 276.615772 
L 345.183303 277.470644 
L 347.723412 278.325516 
L 350.263521 279.180387 
L 352.80363 280.035259 
L 355.343739 280.890131 
L 357.883848 281.745003 
L 360.423956 282.599875 
L 362.964065 283.454747 
L 365.504174 284.309619 
L 368.044283 285.16449 
L 370.584392 286.019362 
L 373.1245 286.874234 
L 375.664609 287.729106 
L 378.204718 288.583978 
L 380.744827 289.43885 
L 383.284936 290.293722 
L 385.825044 291.148593 
L 388.365153 292.003465 
L 390.905262 292.858337 
L 393.445371 293.713209 
L 395.98548 294.568081 
L 398.525589 295.422953 
L 401.065697 296.277825 
L 403.605806 297.132696 
L 406.145915 297.987568 
L 408.686024 298.84244 
L 411.226133 299.697312 
L 413.766241 300.552184 
L 416.30635 301.407056 
L 418.846459 302.261928 
L 421.386568 303.116799 
L 423.926677 303.971671 
L 426.466785 304.826543 
L 429.006894 305.681415 
L 431.547003 306.536287 
L 434.087112 307.391159 
L 436.627221 308.246031 
L 439.16733 309.100902 
" clip-path="url(#p5e3b3b7842)" style="fill: none; stroke-dasharray: 8.325,3.6; stroke-dashoffset: 0; stroke: #ff7f0e; stroke-width: 2.25"/>
   </g>
   <g id="line2d_3">
    <path d="M 84.07642 169.310846 
L 87.620153 170.99839 
L 91.163885 172.685935 
L 94.707618 174.37348 
L 98.25135 176.061024 
L 101.795083 177.748569 
L 105.338815 179.436114 
L 108.882548 181.123659 
L 112.42628 182.811203 
L 115.970013 184.498748 
L 119.513745 186.186293 
L 123.057477 187.873837 
L 126.60121 189.561382 
L 130.144942 191.248927 
L 133.688675 192.936471 
L 137.232407 194.624016 
L 140.77614 196.311561 
L 144.319872 197.999106 
L 147.863605 199.68665 
L 151.407337 201.374195 
L 154.951069 203.06174 
L 158.494802 204.749284 
L 162.038534 206.436829 
L 165.582267 208.124374 
L 169.125999 209.811919 
L 172.669732 211.499463 
L 176.213464 213.187008 
L 179.757197 214.874553 
L 183.300929 216.562097 
L 186.844662 218.249642 
L 190.388394 219.937187 
L 193.932126 221.624731 
L 197.475859 223.312276 
L 201.019591 224.999821 
L 204.563324 226.687366 
L 208.107056 228.37491 
L 211.650789 230.062455 
L 215.194521 231.75 
L 218.738254 233.437544 
L 222.281986 235.125089 
L 225.825719 236.812634 
L 229.369451 238.500179 
L 232.913183 240.187723 
L 236.456916 241.875268 
L 240.000648 243.562813 
L 243.544381 245.250357 
L 247.088113 246.937902 
L 250.631846 248.625447 
L 254.175578 250.312991 
L 257.719311 252.000536 
L 261.263043 253.688081 
L 264.806775 255.375626 
L 268.350508 257.06317 
L 271.89424 258.750715 
L 275.437973 260.43826 
L 278.981705 262.125804 
L 282.525438 263.813349 
L 286.06917 265.500894 
L 289.612903 267.188439 
L 293.156635 268.875983 
L 296.700368 270.563528 
L 300.2441 272.251073 
L 303.787832 273.938617 
L 307.331565 275.626162 
L 310.875297 277.313707 
L 314.41903 279.001251 
L 317.962762 280.688796 
L 321.506495 282.376341 
L 325.050227 284.063886 
L 328.59396 285.75143 
L 332.137692 287.438975 
L 335.681425 289.12652 
L 339.225157 290.814064 
L 342.768889 292.501609 
L 346.312622 294.189154 
L 349.856354 295.876699 
L 353.400087 297.564243 
L 356.943819 299.251788 
L 360.487552 300.939333 
L 364.031284 302.626877 
L 367.575017 304.314422 
L 371.118749 306.001967 
L 374.662481 307.689511 
L 378.206214 309.377056 
L 381.749946 311.064601 
L 385.293679 312.752146 
L 388.837411 314.43969 
L 392.381144 316.127235 
L 395.924876 317.81478 
L 399.468609 319.502324 
L 403.012341 321.189869 
L 406.556074 322.877414 
L 410.099806 324.564959 
L 413.643538 326.252503 
L 417.187271 327.940048 
L 420.731003 329.627593 
L 424.274736 331.315137 
L 427.818468 333.002682 
L 431.362201 334.690227 
L 434.905933 336.377771 
" clip-path="url(#p5e3b3b7842)" style="fill: none; stroke-dasharray: 2.25,3.7125; stroke-dashoffset: 0; stroke: #2ca02c; stroke-width: 2.25"/>
   </g>
   <g id="patch_3">
    <path d="M 66.321875 405.526678 
L 66.321875 17.446678 
" style="fill: none; stroke: #262626; stroke-width: 0.8; stroke-linejoin: miter; stroke-linecap: square"/>
   </g>
   <g id="patch_4">
    <path d="M 66.321875 405.526678 
L 456.921875 405.526678 
" style="fill: none; stroke: #262626; stroke-width: 0.8; stroke-linejoin: miter; stroke-linecap: square"/>
   </g>
   <g id="legend_1">
    <g id="line2d_4">
     <path d="M 58.971875 505.199616 
L 88.971875 505.199616 
L 118.971875 505.199616 
" style="fill: none; stroke: #1f77b4; stroke-width: 1.5; stroke-linecap: round"/>
     <defs>
      <path id="m387ac2e8a2" d="M -5 5 
L 5 -5 
M -5 -5 
L 5 5 
" style="stroke: #1f77b4"/>
     </defs>
     <g>
      <use xlink:href="#m387ac2e8a2" x="88.971875" y="505.199616" style="fill: #1f77b4; stroke: #1f77b4"/>
     </g>
    </g>
    <g id="text_13">
     <!-- $\lambda^{jump}=0.0$, $r=-0.11$ -->
     <g style="fill: #262626" transform="translate(133.971875 515.699616) scale(0.3 -0.3)">
      <defs>
       <path id="DejaVuSans-Oblique-3bb" d="M 2350 4316 
L 3125 0 
L 2516 0 
L 2038 2588 
L 328 0 
L -281 0 
L 1903 3356 
L 1794 3975 
Q 1725 4369 1391 4369 
L 1091 4369 
L 1184 4863 
L 1550 4856 
Q 2253 4847 2350 4316 
z
" transform="scale(0.015625)"/>
       <path id="DejaVuSans-Oblique-6a" d="M 928 3500 
L 1503 3500 
L 813 -63 
L 809 -78 
Q 694 -675 544 -897 
Q 403 -1106 132 -1218 
Q -138 -1331 -506 -1331 
L -722 -1331 
L -628 -844 
L -481 -844 
Q -144 -844 -1 -703 
Q 141 -563 238 -63 
L 928 3500 
z
M 1197 4863 
L 1772 4863 
L 1631 4134 
L 1056 4134 
L 1197 4863 
z
" transform="scale(0.015625)"/>
       <path id="DejaVuSans-Oblique-75" d="M 428 1388 
L 838 3500 
L 1416 3500 
L 1006 1409 
Q 975 1256 961 1147 
Q 947 1038 947 966 
Q 947 700 1109 554 
Q 1272 409 1569 409 
Q 2031 409 2368 721 
Q 2706 1034 2809 1563 
L 3194 3500 
L 3769 3500 
L 3091 0 
L 2516 0 
L 2631 550 
Q 2388 244 2052 76 
Q 1716 -91 1338 -91 
Q 878 -91 622 161 
Q 366 413 366 863 
Q 366 956 381 1097 
Q 397 1238 428 1388 
z
" transform="scale(0.015625)"/>
       <path id="DejaVuSans-Oblique-6d" d="M 5747 2113 
L 5338 0 
L 4763 0 
L 5166 2094 
Q 5191 2228 5203 2325 
Q 5216 2422 5216 2491 
Q 5216 2772 5059 2928 
Q 4903 3084 4622 3084 
Q 4203 3084 3875 2770 
Q 3547 2456 3450 1953 
L 3066 0 
L 2491 0 
L 2900 2094 
Q 2925 2209 2937 2307 
Q 2950 2406 2950 2484 
Q 2950 2769 2794 2926 
Q 2638 3084 2363 3084 
Q 1938 3084 1609 2770 
Q 1281 2456 1184 1953 
L 800 0 
L 225 0 
L 909 3500 
L 1484 3500 
L 1375 2956 
Q 1609 3263 1923 3423 
Q 2238 3584 2597 3584 
Q 2978 3584 3223 3384 
Q 3469 3184 3519 2828 
Q 3781 3197 4126 3390 
Q 4472 3584 4856 3584 
Q 5306 3584 5551 3325 
Q 5797 3066 5797 2591 
Q 5797 2488 5784 2364 
Q 5772 2241 5747 2113 
z
" transform="scale(0.015625)"/>
       <path id="DejaVuSans-Oblique-70" d="M 3175 2156 
Q 3175 2616 2975 2859 
Q 2775 3103 2400 3103 
Q 2144 3103 1911 2972 
Q 1678 2841 1497 2591 
Q 1319 2344 1212 1994 
Q 1106 1644 1106 1300 
Q 1106 863 1306 627 
Q 1506 391 1875 391 
Q 2147 391 2380 519 
Q 2613 647 2778 891 
Q 2956 1147 3065 1494 
Q 3175 1841 3175 2156 
z
M 1394 2969 
Q 1625 3272 1939 3428 
Q 2253 3584 2638 3584 
Q 3175 3584 3472 3232 
Q 3769 2881 3769 2247 
Q 3769 1728 3584 1258 
Q 3400 788 3053 416 
Q 2822 169 2531 39 
Q 2241 -91 1919 -91 
Q 1547 -91 1294 64 
Q 1041 219 916 525 
L 556 -1331 
L -19 -1331 
L 922 3500 
L 1497 3500 
L 1394 2969 
z
" transform="scale(0.015625)"/>
       <path id="DejaVuSans-3d" d="M 678 2906 
L 4684 2906 
L 4684 2381 
L 678 2381 
L 678 2906 
z
M 678 1631 
L 4684 1631 
L 4684 1100 
L 678 1100 
L 678 1631 
z
" transform="scale(0.015625)"/>
       <path id="DejaVuSans-2c" d="M 750 794 
L 1409 794 
L 1409 256 
L 897 -744 
L 494 -744 
L 750 256 
L 750 794 
z
" transform="scale(0.015625)"/>
       <path id="DejaVuSans-Oblique-72" d="M 2853 2969 
Q 2766 3016 2653 3041 
Q 2541 3066 2413 3066 
Q 1953 3066 1609 2717 
Q 1266 2369 1153 1784 
L 800 0 
L 225 0 
L 909 3500 
L 1484 3500 
L 1375 2956 
Q 1603 3259 1920 3421 
Q 2238 3584 2597 3584 
Q 2691 3584 2781 3573 
Q 2872 3563 2963 3538 
L 2853 2969 
z
" transform="scale(0.015625)"/>
       <path id="DejaVuSans-2212" d="M 678 2272 
L 4684 2272 
L 4684 1741 
L 678 1741 
L 678 2272 
z
" transform="scale(0.015625)"/>
      </defs>
      <use xlink:href="#DejaVuSans-Oblique-3bb" transform="translate(0 0.529687)"/>
      <use xlink:href="#DejaVuSans-Oblique-6a" transform="translate(66.627396 38.810937) scale(0.7)"/>
      <use xlink:href="#DejaVuSans-Oblique-75" transform="translate(86.075638 38.810937) scale(0.7)"/>
      <use xlink:href="#DejaVuSans-Oblique-6d" transform="translate(130.440872 38.810937) scale(0.7)"/>
      <use xlink:href="#DejaVuSans-Oblique-70" transform="translate(198.629349 38.810937) scale(0.7)"/>
      <use xlink:href="#DejaVuSans-3d" transform="translate(265.27974 0.529687)"/>
      <use xlink:href="#DejaVuSans-30" transform="translate(368.551224 0.529687)"/>
      <use xlink:href="#DejaVuSans-2e" transform="translate(432.174271 0.529687)"/>
      <use xlink:href="#DejaVuSans-30" transform="translate(463.96138 0.529687)"/>
      <use xlink:href="#DejaVuSans-2c" transform="translate(527.584427 0.529687)"/>
      <use xlink:href="#DejaVuSans-20" transform="translate(559.371536 0.529687)"/>
      <use xlink:href="#DejaVuSans-Oblique-72" transform="translate(591.158646 0.529687)"/>
      <use xlink:href="#DejaVuSans-3d" transform="translate(651.754349 0.529687)"/>
      <use xlink:href="#DejaVuSans-2212" transform="translate(774.508255 0.529687)"/>
      <use xlink:href="#DejaVuSans-30" transform="translate(877.77974 0.529687)"/>
      <use xlink:href="#DejaVuSans-2e" transform="translate(941.402786 0.529687)"/>
      <use xlink:href="#DejaVuSans-31" transform="translate(973.189896 0.529687)"/>
      <use xlink:href="#DejaVuSans-31" transform="translate(1036.812943 0.529687)"/>
     </g>
    </g>
    <g id="line2d_5">
     <path d="M 58.971875 551.399616 
L 88.971875 551.399616 
L 118.971875 551.399616 
" style="fill: none; stroke-dasharray: 5.55,2.4; stroke-dashoffset: 0; stroke: #ff7f0e; stroke-width: 1.5"/>
     <defs>
      <path id="m0c53bce6c7" d="M 0 -5 
L -5 5 
L 5 5 
z
" style="stroke: #ff7f0e; stroke-linejoin: miter"/>
     </defs>
     <g>
      <use xlink:href="#m0c53bce6c7" x="88.971875" y="551.399616" style="fill: #ff7f0e; stroke: #ff7f0e; stroke-linejoin: miter"/>
     </g>
    </g>
    <g id="text_14">
     <!-- $\lambda^{jump}=0.1$, $r=-0.44$ -->
     <g style="fill: #262626" transform="translate(133.971875 561.899616) scale(0.3 -0.3)">
      <use xlink:href="#DejaVuSans-Oblique-3bb" transform="translate(0 0.529687)"/>
      <use xlink:href="#DejaVuSans-Oblique-6a" transform="translate(66.627396 38.810937) scale(0.7)"/>
      <use xlink:href="#DejaVuSans-Oblique-75" transform="translate(86.075638 38.810937) scale(0.7)"/>
      <use xlink:href="#DejaVuSans-Oblique-6d" transform="translate(130.440872 38.810937) scale(0.7)"/>
      <use xlink:href="#DejaVuSans-Oblique-70" transform="translate(198.629349 38.810937) scale(0.7)"/>
      <use xlink:href="#DejaVuSans-3d" transform="translate(265.27974 0.529687)"/>
      <use xlink:href="#DejaVuSans-30" transform="translate(368.551224 0.529687)"/>
      <use xlink:href="#DejaVuSans-2e" transform="translate(432.174271 0.529687)"/>
      <use xlink:href="#DejaVuSans-31" transform="translate(463.96138 0.529687)"/>
      <use xlink:href="#DejaVuSans-2c" transform="translate(527.584427 0.529687)"/>
      <use xlink:href="#DejaVuSans-20" transform="translate(559.371536 0.529687)"/>
      <use xlink:href="#DejaVuSans-Oblique-72" transform="translate(591.158646 0.529687)"/>
      <use xlink:href="#DejaVuSans-3d" transform="translate(651.754349 0.529687)"/>
      <use xlink:href="#DejaVuSans-2212" transform="translate(774.508255 0.529687)"/>
      <use xlink:href="#DejaVuSans-30" transform="translate(877.77974 0.529687)"/>
      <use xlink:href="#DejaVuSans-2e" transform="translate(941.402786 0.529687)"/>
      <use xlink:href="#DejaVuSans-34" transform="translate(973.189896 0.529687)"/>
      <use xlink:href="#DejaVuSans-34" transform="translate(1036.812943 0.529687)"/>
     </g>
    </g>
    <g id="line2d_6">
     <path d="M 58.971875 597.599616 
L 88.971875 597.599616 
L 118.971875 597.599616 
" style="fill: none; stroke-dasharray: 1.5,2.475; stroke-dashoffset: 0; stroke: #2ca02c; stroke-width: 1.5"/>
     <defs>
      <path id="m9495bc4351" d="M 0 5 
C 1.326016 5 2.597899 4.473168 3.535534 3.535534 
C 4.473168 2.597899 5 1.326016 5 0 
C 5 -1.326016 4.473168 -2.597899 3.535534 -3.535534 
C 2.597899 -4.473168 1.326016 -5 0 -5 
C -1.326016 -5 -2.597899 -4.473168 -3.535534 -3.535534 
C -4.473168 -2.597899 -5 -1.326016 -5 0 
C -5 1.326016 -4.473168 2.597899 -3.535534 3.535534 
C -2.597899 4.473168 -1.326016 5 0 5 
z
" style="stroke: #2ca02c"/>
     </defs>
     <g>
      <use xlink:href="#m9495bc4351" x="88.971875" y="597.599616" style="fill: #2ca02c; stroke: #2ca02c"/>
     </g>
    </g>
    <g id="text_15">
     <!-- $\lambda^{jump}=0.2$, $r=-0.51$ -->
     <g style="fill: #262626" transform="translate(133.971875 608.099616) scale(0.3 -0.3)">
      <use xlink:href="#DejaVuSans-Oblique-3bb" transform="translate(0 0.529687)"/>
      <use xlink:href="#DejaVuSans-Oblique-6a" transform="translate(66.627396 38.810937) scale(0.7)"/>
      <use xlink:href="#DejaVuSans-Oblique-75" transform="translate(86.075638 38.810937) scale(0.7)"/>
      <use xlink:href="#DejaVuSans-Oblique-6d" transform="translate(130.440872 38.810937) scale(0.7)"/>
      <use xlink:href="#DejaVuSans-Oblique-70" transform="translate(198.629349 38.810937) scale(0.7)"/>
      <use xlink:href="#DejaVuSans-3d" transform="translate(265.27974 0.529687)"/>
      <use xlink:href="#DejaVuSans-30" transform="translate(368.551224 0.529687)"/>
      <use xlink:href="#DejaVuSans-2e" transform="translate(432.174271 0.529687)"/>
      <use xlink:href="#DejaVuSans-32" transform="translate(458.46138 0.529687)"/>
      <use xlink:href="#DejaVuSans-2c" transform="translate(522.084427 0.529687)"/>
      <use xlink:href="#DejaVuSans-20" transform="translate(553.871536 0.529687)"/>
      <use xlink:href="#DejaVuSans-Oblique-72" transform="translate(585.658646 0.529687)"/>
      <use xlink:href="#DejaVuSans-3d" transform="translate(646.254349 0.529687)"/>
      <use xlink:href="#DejaVuSans-2212" transform="translate(769.008255 0.529687)"/>
      <use xlink:href="#DejaVuSans-30" transform="translate(872.27974 0.529687)"/>
      <use xlink:href="#DejaVuSans-2e" transform="translate(935.902786 0.529687)"/>
      <use xlink:href="#DejaVuSans-35" transform="translate(967.689896 0.529687)"/>
      <use xlink:href="#DejaVuSans-31" transform="translate(1031.312943 0.529687)"/>
     </g>
    </g>
   </g>
  </g>
 </g>
 <defs>
  <clipPath id="p5e3b3b7842">
   <rect x="66.321875" y="17.446678" width="390.6" height="388.08"/>
  </clipPath>
 </defs>
</svg>
