<?xml version="1.0" encoding="utf-8" standalone="no"?>
<!DOCTYPE svg PUBLIC "-//W3C//DTD SVG 1.1//EN"
  "http://www.w3.org/Graphics/SVG/1.1/DTD/svg11.dtd">
<svg xmlns:xlink="http://www.w3.org/1999/xlink" width="487.976562pt" height="572.76075pt" viewBox="0 0 487.976562 572.76075" xmlns="http://www.w3.org/2000/svg" version="1.1">
 <metadata>
  <rdf:RDF xmlns:dc="http://purl.org/dc/elements/1.1/" xmlns:cc="http://creativecommons.org/ns#" xmlns:rdf="http://www.w3.org/1999/02/22-rdf-syntax-ns#">
   <cc:Work>
    <dc:type rdf:resource="http://purl.org/dc/dcmitype/StillImage"/>
    <dc:date>2024-03-08T14:29:29.621332</dc:date>
    <dc:format>image/svg+xml</dc:format>
    <dc:creator>
     <cc:Agent>
      <dc:title>Matplotlib v3.7.1, https://matplotlib.org/</dc:title>
     </cc:Agent>
    </dc:creator>
   </cc:Work>
  </rdf:RDF>
 </metadata>
 <defs>
  <style type="text/css">*{stroke-linejoin: round; stroke-linecap: butt}</style>
 </defs>
 <g id="figure_1">
  <g id="patch_1">
   <path d="M 0 572.76075 
L 487.976562 572.76075 
L 487.976562 0 
L 0 0 
z
" style="fill: #ffffff"/>
  </g>
  <g id="axes_1">
   <g id="patch_2">
    <path d="M 66.321875 395.28 
L 456.921875 395.28 
L 456.921875 7.2 
L 66.321875 7.2 
z
" style="fill: #ffffff"/>
   </g>
   <g id="matplotlib.axis_1">
    <g id="xtick_1">
     <g id="text_1">
      <!-- 0.0 -->
      <g style="fill: #262626" transform="translate(42.467188 425.075312) scale(0.3 -0.3)">
       <defs>
        <path id="DejaVuSans-30" d="M 2034 4250 
Q 1547 4250 1301 3770 
Q 1056 3291 1056 2328 
Q 1056 1369 1301 889 
Q 1547 409 2034 409 
Q 2525 409 2770 889 
Q 3016 1369 3016 2328 
Q 3016 3291 2770 3770 
Q 2525 4250 2034 4250 
z
M 2034 4750 
Q 2819 4750 3233 4129 
Q 3647 3509 3647 2328 
Q 3647 1150 3233 529 
Q 2819 -91 2034 -91 
Q 1250 -91 836 529 
Q 422 1150 422 2328 
Q 422 3509 836 4129 
Q 1250 4750 2034 4750 
z
" transform="scale(0.015625)"/>
        <path id="DejaVuSans-2e" d="M 684 794 
L 1344 794 
L 1344 0 
L 684 0 
L 684 794 
z
" transform="scale(0.015625)"/>
       </defs>
       <use xlink:href="#DejaVuSans-30"/>
       <use xlink:href="#DejaVuSans-2e" x="63.623047"/>
       <use xlink:href="#DejaVuSans-30" x="95.410156"/>
      </g>
     </g>
    </g>
    <g id="xtick_2">
     <g id="text_2">
      <!-- 0.2 -->
      <g style="fill: #262626" transform="translate(120.587188 425.075312) scale(0.3 -0.3)">
       <defs>
        <path id="DejaVuSans-32" d="M 1228 531 
L 3431 531 
L 3431 0 
L 469 0 
L 469 531 
Q 828 903 1448 1529 
Q 2069 2156 2228 2338 
Q 2531 2678 2651 2914 
Q 2772 3150 2772 3378 
Q 2772 3750 2511 3984 
Q 2250 4219 1831 4219 
Q 1534 4219 1204 4116 
Q 875 4013 500 3803 
L 500 4441 
Q 881 4594 1212 4672 
Q 1544 4750 1819 4750 
Q 2544 4750 2975 4387 
Q 3406 4025 3406 3419 
Q 3406 3131 3298 2873 
Q 3191 2616 2906 2266 
Q 2828 2175 2409 1742 
Q 1991 1309 1228 531 
z
" transform="scale(0.015625)"/>
       </defs>
       <use xlink:href="#DejaVuSans-30"/>
       <use xlink:href="#DejaVuSans-2e" x="63.623047"/>
       <use xlink:href="#DejaVuSans-32" x="95.410156"/>
      </g>
     </g>
    </g>
    <g id="xtick_3">
     <g id="text_3">
      <!-- 0.4 -->
      <g style="fill: #262626" transform="translate(198.707188 425.075312) scale(0.3 -0.3)">
       <defs>
        <path id="DejaVuSans-34" d="M 2419 4116 
L 825 1625 
L 2419 1625 
L 2419 4116 
z
M 2253 4666 
L 3047 4666 
L 3047 1625 
L 3713 1625 
L 3713 1100 
L 3047 1100 
L 3047 0 
L 2419 0 
L 2419 1100 
L 313 1100 
L 313 1709 
L 2253 4666 
z
" transform="scale(0.015625)"/>
       </defs>
       <use xlink:href="#DejaVuSans-30"/>
       <use xlink:href="#DejaVuSans-2e" x="63.623047"/>
       <use xlink:href="#DejaVuSans-34" x="95.410156"/>
      </g>
     </g>
    </g>
    <g id="xtick_4">
     <g id="text_4">
      <!-- 0.6 -->
      <g style="fill: #262626" transform="translate(276.827187 425.075312) scale(0.3 -0.3)">
       <defs>
        <path id="DejaVuSans-36" d="M 2113 2584 
Q 1688 2584 1439 2293 
Q 1191 2003 1191 1497 
Q 1191 994 1439 701 
Q 1688 409 2113 409 
Q 2538 409 2786 701 
Q 3034 994 3034 1497 
Q 3034 2003 2786 2293 
Q 2538 2584 2113 2584 
z
M 3366 4563 
L 3366 3988 
Q 3128 4100 2886 4159 
Q 2644 4219 2406 4219 
Q 1781 4219 1451 3797 
Q 1122 3375 1075 2522 
Q 1259 2794 1537 2939 
Q 1816 3084 2150 3084 
Q 2853 3084 3261 2657 
Q 3669 2231 3669 1497 
Q 3669 778 3244 343 
Q 2819 -91 2113 -91 
Q 1303 -91 875 529 
Q 447 1150 447 2328 
Q 447 3434 972 4092 
Q 1497 4750 2381 4750 
Q 2619 4750 2861 4703 
Q 3103 4656 3366 4563 
z
" transform="scale(0.015625)"/>
       </defs>
       <use xlink:href="#DejaVuSans-30"/>
       <use xlink:href="#DejaVuSans-2e" x="63.623047"/>
       <use xlink:href="#DejaVuSans-36" x="95.410156"/>
      </g>
     </g>
    </g>
    <g id="xtick_5">
     <g id="text_5">
      <!-- 0.8 -->
      <g style="fill: #262626" transform="translate(354.947187 425.075312) scale(0.3 -0.3)">
       <defs>
        <path id="DejaVuSans-38" d="M 2034 2216 
Q 1584 2216 1326 1975 
Q 1069 1734 1069 1313 
Q 1069 891 1326 650 
Q 1584 409 2034 409 
Q 2484 409 2743 651 
Q 3003 894 3003 1313 
Q 3003 1734 2745 1975 
Q 2488 2216 2034 2216 
z
M 1403 2484 
Q 997 2584 770 2862 
Q 544 3141 544 3541 
Q 544 4100 942 4425 
Q 1341 4750 2034 4750 
Q 2731 4750 3128 4425 
Q 3525 4100 3525 3541 
Q 3525 3141 3298 2862 
Q 3072 2584 2669 2484 
Q 3125 2378 3379 2068 
Q 3634 1759 3634 1313 
Q 3634 634 3220 271 
Q 2806 -91 2034 -91 
Q 1263 -91 848 271 
Q 434 634 434 1313 
Q 434 1759 690 2068 
Q 947 2378 1403 2484 
z
M 1172 3481 
Q 1172 3119 1398 2916 
Q 1625 2713 2034 2713 
Q 2441 2713 2670 2916 
Q 2900 3119 2900 3481 
Q 2900 3844 2670 4047 
Q 2441 4250 2034 4250 
Q 1625 4250 1398 4047 
Q 1172 3844 1172 3481 
z
" transform="scale(0.015625)"/>
       </defs>
       <use xlink:href="#DejaVuSans-30"/>
       <use xlink:href="#DejaVuSans-2e" x="63.623047"/>
       <use xlink:href="#DejaVuSans-38" x="95.410156"/>
      </g>
     </g>
    </g>
    <g id="xtick_6">
     <g id="text_6">
      <!-- 1.0 -->
      <g style="fill: #262626" transform="translate(433.067187 425.075312) scale(0.3 -0.3)">
       <defs>
        <path id="DejaVuSans-31" d="M 794 531 
L 1825 531 
L 1825 4091 
L 703 3866 
L 703 4441 
L 1819 4666 
L 2450 4666 
L 2450 531 
L 3481 531 
L 3481 0 
L 794 0 
L 794 531 
z
" transform="scale(0.015625)"/>
       </defs>
       <use xlink:href="#DejaVuSans-31"/>
       <use xlink:href="#DejaVuSans-2e" x="63.623047"/>
       <use xlink:href="#DejaVuSans-30" x="95.410156"/>
      </g>
     </g>
    </g>
    <g id="text_7">
     <!-- F1 score -->
     <g style="fill: #262626" transform="translate(198.385156 458.109687) scale(0.3 -0.3)">
      <defs>
       <path id="DejaVuSans-46" d="M 628 4666 
L 3309 4666 
L 3309 4134 
L 1259 4134 
L 1259 2759 
L 3109 2759 
L 3109 2228 
L 1259 2228 
L 1259 0 
L 628 0 
L 628 4666 
z
" transform="scale(0.015625)"/>
       <path id="DejaVuSans-20" transform="scale(0.015625)"/>
       <path id="DejaVuSans-73" d="M 2834 3397 
L 2834 2853 
Q 2591 2978 2328 3040 
Q 2066 3103 1784 3103 
Q 1356 3103 1142 2972 
Q 928 2841 928 2578 
Q 928 2378 1081 2264 
Q 1234 2150 1697 2047 
L 1894 2003 
Q 2506 1872 2764 1633 
Q 3022 1394 3022 966 
Q 3022 478 2636 193 
Q 2250 -91 1575 -91 
Q 1294 -91 989 -36 
Q 684 19 347 128 
L 347 722 
Q 666 556 975 473 
Q 1284 391 1588 391 
Q 1994 391 2212 530 
Q 2431 669 2431 922 
Q 2431 1156 2273 1281 
Q 2116 1406 1581 1522 
L 1381 1569 
Q 847 1681 609 1914 
Q 372 2147 372 2553 
Q 372 3047 722 3315 
Q 1072 3584 1716 3584 
Q 2034 3584 2315 3537 
Q 2597 3491 2834 3397 
z
" transform="scale(0.015625)"/>
       <path id="DejaVuSans-63" d="M 3122 3366 
L 3122 2828 
Q 2878 2963 2633 3030 
Q 2388 3097 2138 3097 
Q 1578 3097 1268 2742 
Q 959 2388 959 1747 
Q 959 1106 1268 751 
Q 1578 397 2138 397 
Q 2388 397 2633 464 
Q 2878 531 3122 666 
L 3122 134 
Q 2881 22 2623 -34 
Q 2366 -91 2075 -91 
Q 1284 -91 818 406 
Q 353 903 353 1747 
Q 353 2603 823 3093 
Q 1294 3584 2113 3584 
Q 2378 3584 2631 3529 
Q 2884 3475 3122 3366 
z
" transform="scale(0.015625)"/>
       <path id="DejaVuSans-6f" d="M 1959 3097 
Q 1497 3097 1228 2736 
Q 959 2375 959 1747 
Q 959 1119 1226 758 
Q 1494 397 1959 397 
Q 2419 397 2687 759 
Q 2956 1122 2956 1747 
Q 2956 2369 2687 2733 
Q 2419 3097 1959 3097 
z
M 1959 3584 
Q 2709 3584 3137 3096 
Q 3566 2609 3566 1747 
Q 3566 888 3137 398 
Q 2709 -91 1959 -91 
Q 1206 -91 779 398 
Q 353 888 353 1747 
Q 353 2609 779 3096 
Q 1206 3584 1959 3584 
z
" transform="scale(0.015625)"/>
       <path id="DejaVuSans-72" d="M 2631 2963 
Q 2534 3019 2420 3045 
Q 2306 3072 2169 3072 
Q 1681 3072 1420 2755 
Q 1159 2438 1159 1844 
L 1159 0 
L 581 0 
L 581 3500 
L 1159 3500 
L 1159 2956 
Q 1341 3275 1631 3429 
Q 1922 3584 2338 3584 
Q 2397 3584 2469 3576 
Q 2541 3569 2628 3553 
L 2631 2963 
z
" transform="scale(0.015625)"/>
       <path id="DejaVuSans-65" d="M 3597 1894 
L 3597 1613 
L 953 1613 
Q 991 1019 1311 708 
Q 1631 397 2203 397 
Q 2534 397 2845 478 
Q 3156 559 3463 722 
L 3463 178 
Q 3153 47 2828 -22 
Q 2503 -91 2169 -91 
Q 1331 -91 842 396 
Q 353 884 353 1716 
Q 353 2575 817 3079 
Q 1281 3584 2069 3584 
Q 2775 3584 3186 3129 
Q 3597 2675 3597 1894 
z
M 3022 2063 
Q 3016 2534 2758 2815 
Q 2500 3097 2075 3097 
Q 1594 3097 1305 2825 
Q 1016 2553 972 2059 
L 3022 2063 
z
" transform="scale(0.015625)"/>
      </defs>
      <use xlink:href="#DejaVuSans-46"/>
      <use xlink:href="#DejaVuSans-31" x="57.519531"/>
      <use xlink:href="#DejaVuSans-20" x="121.142578"/>
      <use xlink:href="#DejaVuSans-73" x="152.929688"/>
      <use xlink:href="#DejaVuSans-63" x="205.029297"/>
      <use xlink:href="#DejaVuSans-6f" x="260.009766"/>
      <use xlink:href="#DejaVuSans-72" x="321.191406"/>
      <use xlink:href="#DejaVuSans-65" x="360.054688"/>
     </g>
    </g>
   </g>
   <g id="matplotlib.axis_2">
    <g id="ytick_1">
     <g id="text_8">
      <!-- 1 -->
      <g style="fill: #262626" transform="translate(40.234375 378.957656) scale(0.3 -0.3)">
       <use xlink:href="#DejaVuSans-31"/>
      </g>
     </g>
    </g>
    <g id="ytick_2">
     <g id="text_9">
      <!-- 2 -->
      <g style="fill: #262626" transform="translate(40.234375 323.517656) scale(0.3 -0.3)">
       <use xlink:href="#DejaVuSans-32"/>
      </g>
     </g>
    </g>
    <g id="ytick_3">
     <g id="text_10">
      <!-- 3 -->
      <g style="fill: #262626" transform="translate(40.234375 268.077656) scale(0.3 -0.3)">
       <defs>
        <path id="DejaVuSans-33" d="M 2597 2516 
Q 3050 2419 3304 2112 
Q 3559 1806 3559 1356 
Q 3559 666 3084 287 
Q 2609 -91 1734 -91 
Q 1441 -91 1130 -33 
Q 819 25 488 141 
L 488 750 
Q 750 597 1062 519 
Q 1375 441 1716 441 
Q 2309 441 2620 675 
Q 2931 909 2931 1356 
Q 2931 1769 2642 2001 
Q 2353 2234 1838 2234 
L 1294 2234 
L 1294 2753 
L 1863 2753 
Q 2328 2753 2575 2939 
Q 2822 3125 2822 3475 
Q 2822 3834 2567 4026 
Q 2313 4219 1838 4219 
Q 1578 4219 1281 4162 
Q 984 4106 628 3988 
L 628 4550 
Q 988 4650 1302 4700 
Q 1616 4750 1894 4750 
Q 2613 4750 3031 4423 
Q 3450 4097 3450 3541 
Q 3450 3153 3228 2886 
Q 3006 2619 2597 2516 
z
" transform="scale(0.015625)"/>
       </defs>
       <use xlink:href="#DejaVuSans-33"/>
      </g>
     </g>
    </g>
    <g id="ytick_4">
     <g id="text_11">
      <!-- 4 -->
      <g style="fill: #262626" transform="translate(40.234375 212.637656) scale(0.3 -0.3)">
       <use xlink:href="#DejaVuSans-34"/>
      </g>
     </g>
    </g>
    <g id="ytick_5">
     <g id="text_12">
      <!-- 5 -->
      <g style="fill: #262626" transform="translate(40.234375 157.197656) scale(0.3 -0.3)">
       <defs>
        <path id="DejaVuSans-35" d="M 691 4666 
L 3169 4666 
L 3169 4134 
L 1269 4134 
L 1269 2991 
Q 1406 3038 1543 3061 
Q 1681 3084 1819 3084 
Q 2600 3084 3056 2656 
Q 3513 2228 3513 1497 
Q 3513 744 3044 326 
Q 2575 -91 1722 -91 
Q 1428 -91 1123 -41 
Q 819 9 494 109 
L 494 744 
Q 775 591 1075 516 
Q 1375 441 1709 441 
Q 2250 441 2565 725 
Q 2881 1009 2881 1497 
Q 2881 1984 2565 2268 
Q 2250 2553 1709 2553 
Q 1456 2553 1204 2497 
Q 953 2441 691 2322 
L 691 4666 
z
" transform="scale(0.015625)"/>
       </defs>
       <use xlink:href="#DejaVuSans-35"/>
      </g>
     </g>
    </g>
    <g id="ytick_6">
     <g id="text_13">
      <!-- 6 -->
      <g style="fill: #262626" transform="translate(40.234375 101.757656) scale(0.3 -0.3)">
       <use xlink:href="#DejaVuSans-36"/>
      </g>
     </g>
    </g>
    <g id="ytick_7">
     <g id="text_14">
      <!-- 7 -->
      <g style="fill: #262626" transform="translate(40.234375 46.317656) scale(0.3 -0.3)">
       <defs>
        <path id="DejaVuSans-37" d="M 525 4666 
L 3525 4666 
L 3525 4397 
L 1831 0 
L 1172 0 
L 2766 4134 
L 525 4134 
L 525 4666 
z
" transform="scale(0.015625)"/>
       </defs>
       <use xlink:href="#DejaVuSans-37"/>
      </g>
     </g>
    </g>
    <g id="text_15">
     <!-- Image / Audio quality -->
     <g style="fill: #262626" transform="translate(29.995312 361.524375) rotate(-90) scale(0.3 -0.3)">
      <defs>
       <path id="DejaVuSans-49" d="M 628 4666 
L 1259 4666 
L 1259 0 
L 628 0 
L 628 4666 
z
" transform="scale(0.015625)"/>
       <path id="DejaVuSans-6d" d="M 3328 2828 
Q 3544 3216 3844 3400 
Q 4144 3584 4550 3584 
Q 5097 3584 5394 3201 
Q 5691 2819 5691 2113 
L 5691 0 
L 5113 0 
L 5113 2094 
Q 5113 2597 4934 2840 
Q 4756 3084 4391 3084 
Q 3944 3084 3684 2787 
Q 3425 2491 3425 1978 
L 3425 0 
L 2847 0 
L 2847 2094 
Q 2847 2600 2669 2842 
Q 2491 3084 2119 3084 
Q 1678 3084 1418 2786 
Q 1159 2488 1159 1978 
L 1159 0 
L 581 0 
L 581 3500 
L 1159 3500 
L 1159 2956 
Q 1356 3278 1631 3431 
Q 1906 3584 2284 3584 
Q 2666 3584 2933 3390 
Q 3200 3197 3328 2828 
z
" transform="scale(0.015625)"/>
       <path id="DejaVuSans-61" d="M 2194 1759 
Q 1497 1759 1228 1600 
Q 959 1441 959 1056 
Q 959 750 1161 570 
Q 1363 391 1709 391 
Q 2188 391 2477 730 
Q 2766 1069 2766 1631 
L 2766 1759 
L 2194 1759 
z
M 3341 1997 
L 3341 0 
L 2766 0 
L 2766 531 
Q 2569 213 2275 61 
Q 1981 -91 1556 -91 
Q 1019 -91 701 211 
Q 384 513 384 1019 
Q 384 1609 779 1909 
Q 1175 2209 1959 2209 
L 2766 2209 
L 2766 2266 
Q 2766 2663 2505 2880 
Q 2244 3097 1772 3097 
Q 1472 3097 1187 3025 
Q 903 2953 641 2809 
L 641 3341 
Q 956 3463 1253 3523 
Q 1550 3584 1831 3584 
Q 2591 3584 2966 3190 
Q 3341 2797 3341 1997 
z
" transform="scale(0.015625)"/>
       <path id="DejaVuSans-67" d="M 2906 1791 
Q 2906 2416 2648 2759 
Q 2391 3103 1925 3103 
Q 1463 3103 1205 2759 
Q 947 2416 947 1791 
Q 947 1169 1205 825 
Q 1463 481 1925 481 
Q 2391 481 2648 825 
Q 2906 1169 2906 1791 
z
M 3481 434 
Q 3481 -459 3084 -895 
Q 2688 -1331 1869 -1331 
Q 1566 -1331 1297 -1286 
Q 1028 -1241 775 -1147 
L 775 -588 
Q 1028 -725 1275 -790 
Q 1522 -856 1778 -856 
Q 2344 -856 2625 -561 
Q 2906 -266 2906 331 
L 2906 616 
Q 2728 306 2450 153 
Q 2172 0 1784 0 
Q 1141 0 747 490 
Q 353 981 353 1791 
Q 353 2603 747 3093 
Q 1141 3584 1784 3584 
Q 2172 3584 2450 3431 
Q 2728 3278 2906 2969 
L 2906 3500 
L 3481 3500 
L 3481 434 
z
" transform="scale(0.015625)"/>
       <path id="DejaVuSans-2f" d="M 1625 4666 
L 2156 4666 
L 531 -594 
L 0 -594 
L 1625 4666 
z
" transform="scale(0.015625)"/>
       <path id="DejaVuSans-41" d="M 2188 4044 
L 1331 1722 
L 3047 1722 
L 2188 4044 
z
M 1831 4666 
L 2547 4666 
L 4325 0 
L 3669 0 
L 3244 1197 
L 1141 1197 
L 716 0 
L 50 0 
L 1831 4666 
z
" transform="scale(0.015625)"/>
       <path id="DejaVuSans-75" d="M 544 1381 
L 544 3500 
L 1119 3500 
L 1119 1403 
Q 1119 906 1312 657 
Q 1506 409 1894 409 
Q 2359 409 2629 706 
Q 2900 1003 2900 1516 
L 2900 3500 
L 3475 3500 
L 3475 0 
L 2900 0 
L 2900 538 
Q 2691 219 2414 64 
Q 2138 -91 1772 -91 
Q 1169 -91 856 284 
Q 544 659 544 1381 
z
M 1991 3584 
L 1991 3584 
z
" transform="scale(0.015625)"/>
       <path id="DejaVuSans-64" d="M 2906 2969 
L 2906 4863 
L 3481 4863 
L 3481 0 
L 2906 0 
L 2906 525 
Q 2725 213 2448 61 
Q 2172 -91 1784 -91 
Q 1150 -91 751 415 
Q 353 922 353 1747 
Q 353 2572 751 3078 
Q 1150 3584 1784 3584 
Q 2172 3584 2448 3432 
Q 2725 3281 2906 2969 
z
M 947 1747 
Q 947 1113 1208 752 
Q 1469 391 1925 391 
Q 2381 391 2643 752 
Q 2906 1113 2906 1747 
Q 2906 2381 2643 2742 
Q 2381 3103 1925 3103 
Q 1469 3103 1208 2742 
Q 947 2381 947 1747 
z
" transform="scale(0.015625)"/>
       <path id="DejaVuSans-69" d="M 603 3500 
L 1178 3500 
L 1178 0 
L 603 0 
L 603 3500 
z
M 603 4863 
L 1178 4863 
L 1178 4134 
L 603 4134 
L 603 4863 
z
" transform="scale(0.015625)"/>
       <path id="DejaVuSans-71" d="M 947 1747 
Q 947 1113 1208 752 
Q 1469 391 1925 391 
Q 2381 391 2643 752 
Q 2906 1113 2906 1747 
Q 2906 2381 2643 2742 
Q 2381 3103 1925 3103 
Q 1469 3103 1208 2742 
Q 947 2381 947 1747 
z
M 2906 525 
Q 2725 213 2448 61 
Q 2172 -91 1784 -91 
Q 1150 -91 751 415 
Q 353 922 353 1747 
Q 353 2572 751 3078 
Q 1150 3584 1784 3584 
Q 2172 3584 2448 3432 
Q 2725 3281 2906 2969 
L 2906 3500 
L 3481 3500 
L 3481 -1331 
L 2906 -1331 
L 2906 525 
z
" transform="scale(0.015625)"/>
       <path id="DejaVuSans-6c" d="M 603 4863 
L 1178 4863 
L 1178 0 
L 603 0 
L 603 4863 
z
" transform="scale(0.015625)"/>
       <path id="DejaVuSans-74" d="M 1172 4494 
L 1172 3500 
L 2356 3500 
L 2356 3053 
L 1172 3053 
L 1172 1153 
Q 1172 725 1289 603 
Q 1406 481 1766 481 
L 2356 481 
L 2356 0 
L 1766 0 
Q 1100 0 847 248 
Q 594 497 594 1153 
L 594 3053 
L 172 3053 
L 172 3500 
L 594 3500 
L 594 4494 
L 1172 4494 
z
" transform="scale(0.015625)"/>
       <path id="DejaVuSans-79" d="M 2059 -325 
Q 1816 -950 1584 -1140 
Q 1353 -1331 966 -1331 
L 506 -1331 
L 506 -850 
L 844 -850 
Q 1081 -850 1212 -737 
Q 1344 -625 1503 -206 
L 1606 56 
L 191 3500 
L 800 3500 
L 1894 763 
L 2988 3500 
L 3597 3500 
L 2059 -325 
z
" transform="scale(0.015625)"/>
      </defs>
      <use xlink:href="#DejaVuSans-49"/>
      <use xlink:href="#DejaVuSans-6d" x="29.492188"/>
      <use xlink:href="#DejaVuSans-61" x="126.904297"/>
      <use xlink:href="#DejaVuSans-67" x="188.183594"/>
      <use xlink:href="#DejaVuSans-65" x="251.660156"/>
      <use xlink:href="#DejaVuSans-20" x="313.183594"/>
      <use xlink:href="#DejaVuSans-2f" x="344.970703"/>
      <use xlink:href="#DejaVuSans-20" x="378.662109"/>
      <use xlink:href="#DejaVuSans-41" x="410.449219"/>
      <use xlink:href="#DejaVuSans-75" x="478.857422"/>
      <use xlink:href="#DejaVuSans-64" x="542.236328"/>
      <use xlink:href="#DejaVuSans-69" x="605.712891"/>
      <use xlink:href="#DejaVuSans-6f" x="633.496094"/>
      <use xlink:href="#DejaVuSans-20" x="694.677734"/>
      <use xlink:href="#DejaVuSans-71" x="726.464844"/>
      <use xlink:href="#DejaVuSans-75" x="789.941406"/>
      <use xlink:href="#DejaVuSans-61" x="853.320312"/>
      <use xlink:href="#DejaVuSans-6c" x="914.599609"/>
      <use xlink:href="#DejaVuSans-69" x="942.382812"/>
      <use xlink:href="#DejaVuSans-74" x="970.166016"/>
      <use xlink:href="#DejaVuSans-79" x="1009.375"/>
     </g>
    </g>
   </g>
   <g id="PathCollection_1">
    <defs>
     <path id="m1cc6c0ec36" d="M 0 -4.472136 
L -4.472136 4.472136 
L 4.472136 4.472136 
z
" style="stroke: #1f77b4; stroke-opacity: 0.8"/>
    </defs>
    <g clip-path="url(#peefaa956ed)">
     <use xlink:href="#m1cc6c0ec36" x="258.79144" y="90.36" style="fill: #1f77b4; fill-opacity: 0.8; stroke: #1f77b4; stroke-opacity: 0.8"/>
     <use xlink:href="#m1cc6c0ec36" x="229.892463" y="145.8" style="fill: #1f77b4; fill-opacity: 0.8; stroke: #1f77b4; stroke-opacity: 0.8"/>
     <use xlink:href="#m1cc6c0ec36" x="320.211875" y="34.92" style="fill: #1f77b4; fill-opacity: 0.8; stroke: #1f77b4; stroke-opacity: 0.8"/>
     <use xlink:href="#m1cc6c0ec36" x="147.412522" y="145.8" style="fill: #1f77b4; fill-opacity: 0.8; stroke: #1f77b4; stroke-opacity: 0.8"/>
     <use xlink:href="#m1cc6c0ec36" x="268.013511" y="256.68" style="fill: #1f77b4; fill-opacity: 0.8; stroke: #1f77b4; stroke-opacity: 0.8"/>
     <use xlink:href="#m1cc6c0ec36" x="373.407134" y="145.8" style="fill: #1f77b4; fill-opacity: 0.8; stroke: #1f77b4; stroke-opacity: 0.8"/>
     <use xlink:href="#m1cc6c0ec36" x="245.461005" y="90.36" style="fill: #1f77b4; fill-opacity: 0.8; stroke: #1f77b4; stroke-opacity: 0.8"/>
     <use xlink:href="#m1cc6c0ec36" x="83.996083" y="201.24" style="fill: #1f77b4; fill-opacity: 0.8; stroke: #1f77b4; stroke-opacity: 0.8"/>
     <use xlink:href="#m1cc6c0ec36" x="298.91875" y="90.36" style="fill: #1f77b4; fill-opacity: 0.8; stroke: #1f77b4; stroke-opacity: 0.8"/>
     <use xlink:href="#m1cc6c0ec36" x="349.388272" y="312.12" style="fill: #1f77b4; fill-opacity: 0.8; stroke: #1f77b4; stroke-opacity: 0.8"/>
     <use xlink:href="#m1cc6c0ec36" x="293.662397" y="201.24" style="fill: #1f77b4; fill-opacity: 0.8; stroke: #1f77b4; stroke-opacity: 0.8"/>
     <use xlink:href="#m1cc6c0ec36" x="188.933199" y="256.68" style="fill: #1f77b4; fill-opacity: 0.8; stroke: #1f77b4; stroke-opacity: 0.8"/>
     <use xlink:href="#m1cc6c0ec36" x="244.737875" y="312.12" style="fill: #1f77b4; fill-opacity: 0.8; stroke: #1f77b4; stroke-opacity: 0.8"/>
     <use xlink:href="#m1cc6c0ec36" x="288.405875" y="145.8" style="fill: #1f77b4; fill-opacity: 0.8; stroke: #1f77b4; stroke-opacity: 0.8"/>
     <use xlink:href="#m1cc6c0ec36" x="247.07011" y="256.68" style="fill: #1f77b4; fill-opacity: 0.8; stroke: #1f77b4; stroke-opacity: 0.8"/>
    </g>
   </g>
   <g id="PolyCollection_1">
    <defs>
     <path id="m2311f75b22" d="M 83.996083 -459.240998 
L 83.996083 -248.192537 
L 86.919427 -250.919952 
L 89.842771 -253.654971 
L 92.766115 -256.401845 
L 95.689459 -258.473306 
L 98.612803 -261.351874 
L 101.536147 -264.230441 
L 104.459491 -267.109009 
L 107.382835 -269.141596 
L 110.306179 -270.755051 
L 113.229523 -272.375762 
L 116.152867 -273.996473 
L 119.076211 -275.517825 
L 121.999554 -277.606759 
L 124.922898 -280.266296 
L 127.846242 -282.835343 
L 130.769586 -285.40439 
L 133.69293 -287.973436 
L 136.616274 -290.542483 
L 139.539618 -293.111529 
L 142.462962 -295.680576 
L 145.386306 -298.249623 
L 148.30965 -300.818669 
L 151.232994 -303.387716 
L 154.156338 -305.956763 
L 157.079682 -308.328885 
L 160.003026 -309.912756 
L 162.92637 -311.50582 
L 165.849714 -313.893264 
L 168.773058 -316.230795 
L 171.696402 -317.703656 
L 174.619746 -320.024627 
L 177.543089 -322.404895 
L 180.466433 -324.163463 
L 183.389777 -327.107587 
L 186.313121 -329.358631 
L 189.236465 -330.008541 
L 192.159809 -332.024421 
L 195.083153 -334.733385 
L 198.006497 -336.231228 
L 200.929841 -336.695981 
L 203.853185 -337.173119 
L 206.776529 -337.650257 
L 209.699873 -340.044029 
L 212.623217 -341.590558 
L 215.546561 -342.388457 
L 218.469905 -343.117802 
L 221.393249 -344.260571 
L 224.316593 -345.774833 
L 227.239937 -346.719133 
L 230.163281 -347.620372 
L 233.086624 -348.634172 
L 236.009968 -349.592016 
L 238.933312 -350.525265 
L 241.856656 -350.038309 
L 244.78 -349.663571 
L 247.703344 -349.751052 
L 250.626688 -350.202435 
L 253.550032 -350.810666 
L 256.473376 -350.89832 
L 259.39672 -351.826637 
L 262.320064 -351.300038 
L 265.243408 -350.717985 
L 268.166752 -350.062732 
L 271.090096 -349.312819 
L 274.01344 -348.981205 
L 276.936784 -348.396316 
L 279.860128 -348.515957 
L 282.783472 -348.24722 
L 285.706816 -347.440005 
L 288.630159 -346.617398 
L 291.553503 -346.407924 
L 294.476847 -345.976108 
L 297.400191 -345.105596 
L 300.323535 -344.509257 
L 303.246879 -343.723362 
L 306.170223 -342.600461 
L 309.093567 -342.015605 
L 312.016911 -341.057577 
L 314.940255 -340.457605 
L 317.863599 -339.97579 
L 320.786943 -339.494555 
L 323.710287 -339.050013 
L 326.633631 -338.552888 
L 329.556975 -337.373742 
L 332.480319 -336.103735 
L 335.403663 -334.83055 
L 338.327007 -333.557365 
L 341.250351 -332.296235 
L 344.173694 -330.940305 
L 347.097038 -329.657723 
L 350.020382 -328.525424 
L 352.943726 -327.408015 
L 355.86707 -326.7512 
L 358.790414 -326.101141 
L 361.713758 -325.460087 
L 364.637102 -324.555807 
L 367.560446 -323.107912 
L 370.48379 -322.324527 
L 373.407134 -321.216368 
L 373.407134 -510.48556 
L 373.407134 -510.48556 
L 370.48379 -508.11549 
L 367.560446 -505.74542 
L 364.637102 -503.37535 
L 361.713758 -501.00528 
L 358.790414 -498.628093 
L 355.86707 -496.338984 
L 352.943726 -494.335143 
L 350.020382 -492.242454 
L 347.097038 -490.251621 
L 344.173694 -488.23343 
L 341.250351 -486.081084 
L 338.327007 -484.230365 
L 335.403663 -482.225068 
L 332.480319 -479.467795 
L 329.556975 -477.907369 
L 326.633631 -476.110602 
L 323.710287 -474.577037 
L 320.786943 -472.238494 
L 317.863599 -470.253696 
L 314.940255 -468.82532 
L 312.016911 -466.356537 
L 309.093567 -464.894389 
L 306.170223 -463.600531 
L 303.246879 -461.545411 
L 300.323535 -459.437649 
L 297.400191 -456.779976 
L 294.476847 -454.224711 
L 291.553503 -451.97709 
L 288.630159 -450.075453 
L 285.706816 -448.121353 
L 282.783472 -446.226791 
L 279.860128 -444.521346 
L 276.936784 -443.216542 
L 274.01344 -441.928848 
L 271.090096 -441.049829 
L 268.166752 -439.635995 
L 265.243408 -438.033132 
L 262.320064 -436.818831 
L 259.39672 -436.607226 
L 256.473376 -436.598841 
L 253.550032 -435.63894 
L 250.626688 -434.274531 
L 247.703344 -433.674761 
L 244.78 -432.750165 
L 241.856656 -432.37258 
L 238.933312 -431.143949 
L 236.009968 -430.009686 
L 233.086624 -428.859473 
L 230.163281 -427.830217 
L 227.239937 -426.677781 
L 224.316593 -426.558416 
L 221.393249 -426.221371 
L 218.469905 -426.067306 
L 215.546561 -425.866984 
L 212.623217 -425.655467 
L 209.699873 -425.671764 
L 206.776529 -425.907407 
L 203.853185 -425.969379 
L 200.929841 -426.043672 
L 198.006497 -426.633843 
L 195.083153 -426.891853 
L 192.159809 -427.546357 
L 189.236465 -428.093139 
L 186.313121 -428.803289 
L 183.389777 -428.909198 
L 180.466433 -428.795728 
L 177.543089 -429.970975 
L 174.619746 -431.46664 
L 171.696402 -432.567692 
L 168.773058 -433.104423 
L 165.849714 -433.65865 
L 162.92637 -435.165638 
L 160.003026 -436.506272 
L 157.079682 -437.205494 
L 154.156338 -438.596885 
L 151.232994 -439.604736 
L 148.30965 -440.604658 
L 145.386306 -441.60458 
L 142.462962 -442.400148 
L 139.539618 -443.069859 
L 136.616274 -443.73957 
L 133.69293 -444.409281 
L 130.769586 -445.078993 
L 127.846242 -445.748704 
L 124.922898 -446.418415 
L 121.999554 -447.135421 
L 119.076211 -448.321984 
L 116.152867 -448.93086 
L 113.229523 -449.295004 
L 110.306179 -449.766971 
L 107.382835 -450.436683 
L 104.459491 -451.743445 
L 101.536147 -453.199798 
L 98.612803 -454.656151 
L 95.689459 -455.675586 
L 92.766115 -456.514857 
L 89.842771 -457.354128 
L 86.919427 -458.193131 
L 83.996083 -459.240998 
z
" style="stroke: #ffffff; stroke-opacity: 0.15"/>
    </defs>
    <g clip-path="url(#peefaa956ed)">
     <use xlink:href="#m2311f75b22" x="0" y="572.76075" style="fill: #1f77b4; fill-opacity: 0.15; stroke: #ffffff; stroke-opacity: 0.15"/>
    </g>
   </g>
   <g id="PathCollection_2">
    <defs>
     <path id="mf46f64a54b" d="M -4.472136 4.472136 
L 4.472136 -4.472136 
M -4.472136 -4.472136 
L 4.472136 4.472136 
" style="stroke: #ff7f0e; stroke-opacity: 0.8; stroke-width: 1.5"/>
    </defs>
    <g clip-path="url(#peefaa956ed)">
     <use xlink:href="#mf46f64a54b" x="258.79144" y="201.24" style="fill: #ff7f0e; fill-opacity: 0.8; stroke: #ff7f0e; stroke-opacity: 0.8; stroke-width: 1.5"/>
     <use xlink:href="#mf46f64a54b" x="229.892463" y="256.68" style="fill: #ff7f0e; fill-opacity: 0.8; stroke: #ff7f0e; stroke-opacity: 0.8; stroke-width: 1.5"/>
     <use xlink:href="#mf46f64a54b" x="320.211875" y="34.92" style="fill: #ff7f0e; fill-opacity: 0.8; stroke: #ff7f0e; stroke-opacity: 0.8; stroke-width: 1.5"/>
     <use xlink:href="#mf46f64a54b" x="147.412522" y="145.8" style="fill: #ff7f0e; fill-opacity: 0.8; stroke: #ff7f0e; stroke-opacity: 0.8; stroke-width: 1.5"/>
     <use xlink:href="#mf46f64a54b" x="268.013511" y="201.24" style="fill: #ff7f0e; fill-opacity: 0.8; stroke: #ff7f0e; stroke-opacity: 0.8; stroke-width: 1.5"/>
     <use xlink:href="#mf46f64a54b" x="373.407134" y="90.36" style="fill: #ff7f0e; fill-opacity: 0.8; stroke: #ff7f0e; stroke-opacity: 0.8; stroke-width: 1.5"/>
     <use xlink:href="#mf46f64a54b" x="245.461005" y="145.8" style="fill: #ff7f0e; fill-opacity: 0.8; stroke: #ff7f0e; stroke-opacity: 0.8; stroke-width: 1.5"/>
     <use xlink:href="#mf46f64a54b" x="83.996083" y="256.68" style="fill: #ff7f0e; fill-opacity: 0.8; stroke: #ff7f0e; stroke-opacity: 0.8; stroke-width: 1.5"/>
     <use xlink:href="#mf46f64a54b" x="298.91875" y="90.36" style="fill: #ff7f0e; fill-opacity: 0.8; stroke: #ff7f0e; stroke-opacity: 0.8; stroke-width: 1.5"/>
     <use xlink:href="#mf46f64a54b" x="349.388272" y="201.24" style="fill: #ff7f0e; fill-opacity: 0.8; stroke: #ff7f0e; stroke-opacity: 0.8; stroke-width: 1.5"/>
     <use xlink:href="#mf46f64a54b" x="293.662397" y="145.8" style="fill: #ff7f0e; fill-opacity: 0.8; stroke: #ff7f0e; stroke-opacity: 0.8; stroke-width: 1.5"/>
     <use xlink:href="#mf46f64a54b" x="188.933199" y="201.24" style="fill: #ff7f0e; fill-opacity: 0.8; stroke: #ff7f0e; stroke-opacity: 0.8; stroke-width: 1.5"/>
     <use xlink:href="#mf46f64a54b" x="244.737875" y="201.24" style="fill: #ff7f0e; fill-opacity: 0.8; stroke: #ff7f0e; stroke-opacity: 0.8; stroke-width: 1.5"/>
     <use xlink:href="#mf46f64a54b" x="288.405875" y="145.8" style="fill: #ff7f0e; fill-opacity: 0.8; stroke: #ff7f0e; stroke-opacity: 0.8; stroke-width: 1.5"/>
     <use xlink:href="#mf46f64a54b" x="247.07011" y="145.8" style="fill: #ff7f0e; fill-opacity: 0.8; stroke: #ff7f0e; stroke-opacity: 0.8; stroke-width: 1.5"/>
    </g>
   </g>
   <g id="PolyCollection_2">
    <defs>
     <path id="m23d8cf3823" d="M 83.996083 -393.646192 
L 83.996083 -228.107129 
L 86.919427 -230.965018 
L 89.842771 -233.822906 
L 92.766115 -236.680795 
L 95.689459 -239.538683 
L 98.612803 -242.396572 
L 101.536147 -245.254461 
L 104.459491 -248.112349 
L 107.382835 -250.970238 
L 110.306179 -253.828126 
L 113.229523 -256.686015 
L 116.152867 -259.543903 
L 119.076211 -262.401792 
L 121.999554 -265.23199 
L 124.922898 -267.902228 
L 127.846242 -270.572466 
L 130.769586 -273.242704 
L 133.69293 -275.912942 
L 136.616274 -278.583181 
L 139.539618 -281.253419 
L 142.462962 -283.923657 
L 145.386306 -286.924874 
L 148.30965 -290.043394 
L 151.232994 -293.161915 
L 154.156338 -296.280435 
L 157.079682 -299.095559 
L 160.003026 -301.864021 
L 162.92637 -304.487269 
L 165.849714 -307.110518 
L 168.773058 -309.733767 
L 171.696402 -312.357016 
L 174.619746 -314.980265 
L 177.543089 -317.603514 
L 180.466433 -320.23592 
L 183.389777 -322.871906 
L 186.313121 -325.507893 
L 189.236465 -328.351159 
L 192.159809 -331.593358 
L 195.083153 -335.087818 
L 198.006497 -338.383346 
L 200.929841 -341.196241 
L 203.853185 -343.86102 
L 206.776529 -346.135751 
L 209.699873 -348.809932 
L 212.623217 -352.147917 
L 215.546561 -354.698583 
L 218.469905 -356.728136 
L 221.393249 -359.24811 
L 224.316593 -361.524466 
L 227.239937 -363.787047 
L 230.163281 -366.051543 
L 233.086624 -367.467732 
L 236.009968 -370.457826 
L 238.933312 -372.70658 
L 241.856656 -374.058912 
L 244.78 -375.261895 
L 247.703344 -377.441761 
L 250.626688 -379.811093 
L 253.550032 -381.189283 
L 256.473376 -384.160001 
L 259.39672 -385.120189 
L 262.320064 -385.532311 
L 265.243408 -386.058172 
L 268.166752 -387.351556 
L 271.090096 -388.460301 
L 274.01344 -389.5657 
L 276.936784 -389.927672 
L 279.860128 -390.951602 
L 282.783472 -391.919464 
L 285.706816 -392.479207 
L 288.630159 -393.455223 
L 291.553503 -394.280512 
L 294.476847 -394.8308 
L 297.400191 -395.368068 
L 300.323535 -395.825577 
L 303.246879 -396.238661 
L 306.170223 -396.884872 
L 309.093567 -397.733066 
L 312.016911 -398.640631 
L 314.940255 -398.990963 
L 317.863599 -399.814722 
L 320.786943 -400.554371 
L 323.710287 -400.930741 
L 326.633631 -401.738012 
L 329.556975 -402.488935 
L 332.480319 -403.137793 
L 335.403663 -403.91853 
L 338.327007 -404.504266 
L 341.250351 -404.632742 
L 344.173694 -405.274852 
L 347.097038 -405.736878 
L 350.020382 -405.834194 
L 352.943726 -406.274917 
L 355.86707 -406.738406 
L 358.790414 -407.070665 
L 361.713758 -407.392821 
L 364.637102 -407.714977 
L 367.560446 -408.037133 
L 370.48379 -408.359289 
L 373.407134 -408.681445 
L 373.407134 -527.372938 
L 373.407134 -527.372938 
L 370.48379 -524.770328 
L 367.560446 -522.042888 
L 364.637102 -519.703427 
L 361.713758 -517.148855 
L 358.790414 -514.407589 
L 355.86707 -512.050336 
L 352.943726 -509.318871 
L 350.020382 -506.320107 
L 347.097038 -503.764917 
L 344.173694 -500.759259 
L 341.250351 -498.475747 
L 338.327007 -496.10642 
L 335.403663 -493.555564 
L 332.480319 -491.480868 
L 329.556975 -489.077558 
L 326.633631 -486.524842 
L 323.710287 -483.974678 
L 320.786943 -481.343905 
L 317.863599 -478.266102 
L 314.940255 -475.714775 
L 312.016911 -473.760134 
L 309.093567 -471.205244 
L 306.170223 -468.65383 
L 303.246879 -466.176498 
L 300.323535 -463.996604 
L 297.400191 -461.181163 
L 294.476847 -459.192338 
L 291.553503 -456.003617 
L 288.630159 -453.91044 
L 285.706816 -451.572918 
L 282.783472 -450.085594 
L 279.860128 -448.002615 
L 276.936784 -446.524613 
L 274.01344 -444.932801 
L 271.090096 -443.537943 
L 268.166752 -441.580133 
L 265.243408 -439.988467 
L 262.320064 -438.287431 
L 259.39672 -436.561333 
L 256.473376 -435.091645 
L 253.550032 -433.492717 
L 250.626688 -431.676635 
L 247.703344 -430.135471 
L 244.78 -428.409189 
L 241.856656 -426.684222 
L 238.933312 -425.251415 
L 236.009968 -423.489125 
L 233.086624 -422.138864 
L 230.163281 -420.513868 
L 227.239937 -418.888933 
L 224.316593 -417.725792 
L 221.393249 -416.454846 
L 218.469905 -415.86019 
L 215.546561 -414.997846 
L 212.623217 -414.529085 
L 209.699873 -413.762026 
L 206.776529 -412.884833 
L 203.853185 -412.750161 
L 200.929841 -411.718727 
L 198.006497 -410.631117 
L 195.083153 -409.306763 
L 192.159809 -408.932004 
L 189.236465 -408.560905 
L 186.313121 -407.76145 
L 183.389777 -407.578577 
L 180.466433 -406.560539 
L 177.543089 -405.367581 
L 174.619746 -404.607779 
L 171.696402 -403.870863 
L 168.773058 -403.831226 
L 165.849714 -403.618614 
L 162.92637 -403.29984 
L 160.003026 -402.981066 
L 157.079682 -402.646869 
L 154.156338 -402.001899 
L 151.232994 -400.928215 
L 148.30965 -399.85453 
L 145.386306 -399.065091 
L 142.462962 -398.995152 
L 139.539618 -398.911991 
L 136.616274 -399.086344 
L 133.69293 -398.774332 
L 130.769586 -398.717334 
L 127.846242 -398.647783 
L 124.922898 -398.578232 
L 121.999554 -398.379596 
L 119.076211 -397.584842 
L 116.152867 -396.778845 
L 113.229523 -396.037246 
L 110.306179 -395.784272 
L 107.382835 -395.242605 
L 104.459491 -394.390532 
L 101.536147 -393.857439 
L 98.612803 -393.853672 
L 95.689459 -393.849904 
L 92.766115 -393.846137 
L 89.842771 -393.842369 
L 86.919427 -393.838602 
L 83.996083 -393.646192 
z
" style="stroke: #ffffff; stroke-opacity: 0.15"/>
    </defs>
    <g clip-path="url(#peefaa956ed)">
     <use xlink:href="#m23d8cf3823" x="0" y="572.76075" style="fill: #ff7f0e; fill-opacity: 0.15; stroke: #ffffff; stroke-opacity: 0.15"/>
    </g>
   </g>
   <g id="line2d_1">
    <path d="M 83.996083 200.882601 
L 86.919427 200.511532 
L 89.842771 200.140464 
L 92.766115 199.769395 
L 95.689459 199.398326 
L 98.612803 199.027258 
L 101.536147 198.656189 
L 104.459491 198.28512 
L 107.382835 197.914052 
L 110.306179 197.542983 
L 113.229523 197.171914 
L 116.152867 196.800845 
L 119.076211 196.429777 
L 121.999554 196.058708 
L 124.922898 195.687639 
L 127.846242 195.316571 
L 130.769586 194.945502 
L 133.69293 194.574433 
L 136.616274 194.203365 
L 139.539618 193.832296 
L 142.462962 193.461227 
L 145.386306 193.090159 
L 148.30965 192.71909 
L 151.232994 192.348021 
L 154.156338 191.976953 
L 157.079682 191.605884 
L 160.003026 191.234815 
L 162.92637 190.863746 
L 165.849714 190.492678 
L 168.773058 190.121609 
L 171.696402 189.75054 
L 174.619746 189.379472 
L 177.543089 189.008403 
L 180.466433 188.637334 
L 183.389777 188.266266 
L 186.313121 187.895197 
L 189.236465 187.524128 
L 192.159809 187.15306 
L 195.083153 186.781991 
L 198.006497 186.410922 
L 200.929841 186.039854 
L 203.853185 185.668785 
L 206.776529 185.297716 
L 209.699873 184.926647 
L 212.623217 184.555579 
L 215.546561 184.18451 
L 218.469905 183.813441 
L 221.393249 183.442373 
L 224.316593 183.071304 
L 227.239937 182.700235 
L 230.163281 182.329167 
L 233.086624 181.958098 
L 236.009968 181.587029 
L 238.933312 181.215961 
L 241.856656 180.844892 
L 244.78 180.473823 
L 247.703344 180.102755 
L 250.626688 179.731686 
L 253.550032 179.360617 
L 256.473376 178.989549 
L 259.39672 178.61848 
L 262.320064 178.247411 
L 265.243408 177.876342 
L 268.166752 177.505274 
L 271.090096 177.134205 
L 274.01344 176.763136 
L 276.936784 176.392068 
L 279.860128 176.020999 
L 282.783472 175.64993 
L 285.706816 175.278862 
L 288.630159 174.907793 
L 291.553503 174.536724 
L 294.476847 174.165656 
L 297.400191 173.794587 
L 300.323535 173.423518 
L 303.246879 173.05245 
L 306.170223 172.681381 
L 309.093567 172.310312 
L 312.016911 171.939243 
L 314.940255 171.568175 
L 317.863599 171.197106 
L 320.786943 170.826037 
L 323.710287 170.454969 
L 326.633631 170.0839 
L 329.556975 169.712831 
L 332.480319 169.341763 
L 335.403663 168.970694 
L 338.327007 168.599625 
L 341.250351 168.228557 
L 344.173694 167.857488 
L 347.097038 167.486419 
L 350.020382 167.115351 
L 352.943726 166.744282 
L 355.86707 166.373213 
L 358.790414 166.002144 
L 361.713758 165.631076 
L 364.637102 165.260007 
L 367.560446 164.888938 
L 370.48379 164.51787 
L 373.407134 164.146801 
" clip-path="url(#peefaa956ed)" style="fill: none; stroke: #1f77b4; stroke-width: 2.25; stroke-linecap: round"/>
   </g>
   <g id="line2d_2">
    <path d="M 83.996083 244.284081 
L 86.919427 242.923452 
L 89.842771 241.562824 
L 92.766115 240.202195 
L 95.689459 238.841567 
L 98.612803 237.480939 
L 101.536147 236.12031 
L 104.459491 234.759682 
L 107.382835 233.399053 
L 110.306179 232.038425 
L 113.229523 230.677796 
L 116.152867 229.317168 
L 119.076211 227.956539 
L 121.999554 226.595911 
L 124.922898 225.235283 
L 127.846242 223.874654 
L 130.769586 222.514026 
L 133.69293 221.153397 
L 136.616274 219.792769 
L 139.539618 218.43214 
L 142.462962 217.071512 
L 145.386306 215.710883 
L 148.30965 214.350255 
L 151.232994 212.989627 
L 154.156338 211.628998 
L 157.079682 210.26837 
L 160.003026 208.907741 
L 162.92637 207.547113 
L 165.849714 206.186484 
L 168.773058 204.825856 
L 171.696402 203.465227 
L 174.619746 202.104599 
L 177.543089 200.743971 
L 180.466433 199.383342 
L 183.389777 198.022714 
L 186.313121 196.662085 
L 189.236465 195.301457 
L 192.159809 193.940828 
L 195.083153 192.5802 
L 198.006497 191.219571 
L 200.929841 189.858943 
L 203.853185 188.498315 
L 206.776529 187.137686 
L 209.699873 185.777058 
L 212.623217 184.416429 
L 215.546561 183.055801 
L 218.469905 181.695172 
L 221.393249 180.334544 
L 224.316593 178.973915 
L 227.239937 177.613287 
L 230.163281 176.252659 
L 233.086624 174.89203 
L 236.009968 173.531402 
L 238.933312 172.170773 
L 241.856656 170.810145 
L 244.78 169.449516 
L 247.703344 168.088888 
L 250.626688 166.728259 
L 253.550032 165.367631 
L 256.473376 164.007003 
L 259.39672 162.646374 
L 262.320064 161.285746 
L 265.243408 159.925117 
L 268.166752 158.564489 
L 271.090096 157.20386 
L 274.01344 155.843232 
L 276.936784 154.482603 
L 279.860128 153.121975 
L 282.783472 151.761346 
L 285.706816 150.400718 
L 288.630159 149.04009 
L 291.553503 147.679461 
L 294.476847 146.318833 
L 297.400191 144.958204 
L 300.323535 143.597576 
L 303.246879 142.236947 
L 306.170223 140.876319 
L 309.093567 139.51569 
L 312.016911 138.155062 
L 314.940255 136.794434 
L 317.863599 135.433805 
L 320.786943 134.073177 
L 323.710287 132.712548 
L 326.633631 131.35192 
L 329.556975 129.991291 
L 332.480319 128.630663 
L 335.403663 127.270034 
L 338.327007 125.909406 
L 341.250351 124.548778 
L 344.173694 123.188149 
L 347.097038 121.827521 
L 350.020382 120.466892 
L 352.943726 119.106264 
L 355.86707 117.745635 
L 358.790414 116.385007 
L 361.713758 115.024378 
L 364.637102 113.66375 
L 367.560446 112.303122 
L 370.48379 110.942493 
L 373.407134 109.581865 
" clip-path="url(#peefaa956ed)" style="fill: none; stroke-dasharray: 8.325,3.6; stroke-dashoffset: 0; stroke: #ff7f0e; stroke-width: 2.25"/>
   </g>
   <g id="patch_3">
    <path d="M 66.321875 395.28 
L 66.321875 7.2 
" style="fill: none; stroke: #262626; stroke-width: 0.8; stroke-linejoin: miter; stroke-linecap: square"/>
   </g>
   <g id="patch_4">
    <path d="M 66.321875 395.28 
L 456.921875 395.28 
" style="fill: none; stroke: #262626; stroke-width: 0.8; stroke-linejoin: miter; stroke-linecap: square"/>
   </g>
   <g id="legend_1">
    <g id="line2d_3">
     <path d="M 115.472656 492.787312 
L 145.472656 492.787312 
L 175.472656 492.787312 
" style="fill: none; stroke: #1f77b4; stroke-width: 1.5; stroke-linecap: round"/>
     <defs>
      <path id="m5d5ebb2285" d="M 0 -5 
L -5 5 
L 5 5 
z
" style="stroke: #1f77b4; stroke-linejoin: miter"/>
     </defs>
     <g>
      <use xlink:href="#m5d5ebb2285" x="145.472656" y="492.787312" style="fill: #1f77b4; stroke: #1f77b4; stroke-linejoin: miter"/>
     </g>
    </g>
    <g id="text_16">
     <!-- Image, r=0.18 -->
     <g style="fill: #262626" transform="translate(190.472656 503.287312) scale(0.3 -0.3)">
      <defs>
       <path id="DejaVuSans-2c" d="M 750 794 
L 1409 794 
L 1409 256 
L 897 -744 
L 494 -744 
L 750 256 
L 750 794 
z
" transform="scale(0.015625)"/>
       <path id="DejaVuSans-3d" d="M 678 2906 
L 4684 2906 
L 4684 2381 
L 678 2381 
L 678 2906 
z
M 678 1631 
L 4684 1631 
L 4684 1100 
L 678 1100 
L 678 1631 
z
" transform="scale(0.015625)"/>
      </defs>
      <use xlink:href="#DejaVuSans-49"/>
      <use xlink:href="#DejaVuSans-6d" x="29.492188"/>
      <use xlink:href="#DejaVuSans-61" x="126.904297"/>
      <use xlink:href="#DejaVuSans-67" x="188.183594"/>
      <use xlink:href="#DejaVuSans-65" x="251.660156"/>
      <use xlink:href="#DejaVuSans-2c" x="313.183594"/>
      <use xlink:href="#DejaVuSans-20" x="344.970703"/>
      <use xlink:href="#DejaVuSans-72" x="376.757812"/>
      <use xlink:href="#DejaVuSans-3d" x="417.871094"/>
      <use xlink:href="#DejaVuSans-30" x="501.660156"/>
      <use xlink:href="#DejaVuSans-2e" x="565.283203"/>
      <use xlink:href="#DejaVuSans-31" x="597.070312"/>
      <use xlink:href="#DejaVuSans-38" x="660.693359"/>
     </g>
    </g>
    <g id="line2d_4">
     <path d="M 115.472656 536.821687 
L 145.472656 536.821687 
L 175.472656 536.821687 
" style="fill: none; stroke-dasharray: 5.55,2.4; stroke-dashoffset: 0; stroke: #ff7f0e; stroke-width: 1.5"/>
     <defs>
      <path id="m1b73238667" d="M -5 5 
L 5 -5 
M -5 -5 
L 5 5 
" style="stroke: #ff7f0e"/>
     </defs>
     <g>
      <use xlink:href="#m1b73238667" x="145.472656" y="536.821687" style="fill: #ff7f0e; stroke: #ff7f0e"/>
     </g>
    </g>
    <g id="text_17">
     <!-- Audio, r=0.60 -->
     <g style="fill: #262626" transform="translate(190.472656 547.321687) scale(0.3 -0.3)">
      <use xlink:href="#DejaVuSans-41"/>
      <use xlink:href="#DejaVuSans-75" x="68.408203"/>
      <use xlink:href="#DejaVuSans-64" x="131.787109"/>
      <use xlink:href="#DejaVuSans-69" x="195.263672"/>
      <use xlink:href="#DejaVuSans-6f" x="223.046875"/>
      <use xlink:href="#DejaVuSans-2c" x="284.228516"/>
      <use xlink:href="#DejaVuSans-20" x="316.015625"/>
      <use xlink:href="#DejaVuSans-72" x="347.802734"/>
      <use xlink:href="#DejaVuSans-3d" x="388.916016"/>
      <use xlink:href="#DejaVuSans-30" x="472.705078"/>
      <use xlink:href="#DejaVuSans-2e" x="536.328125"/>
      <use xlink:href="#DejaVuSans-36" x="568.115234"/>
      <use xlink:href="#DejaVuSans-30" x="631.738281"/>
     </g>
    </g>
   </g>
  </g>
 </g>
 <defs>
  <clipPath id="peefaa956ed">
   <rect x="66.321875" y="7.2" width="390.6" height="388.08"/>
  </clipPath>
 </defs>
</svg>
