<?xml version="1.0" encoding="utf-8" standalone="no"?>
<!DOCTYPE svg PUBLIC "-//W3C//DTD SVG 1.1//EN"
  "http://www.w3.org/Graphics/SVG/1.1/DTD/svg11.dtd">
<svg xmlns:xlink="http://www.w3.org/1999/xlink" width="488.271875pt" height="623.292pt" viewBox="0 0 488.271875 623.292" xmlns="http://www.w3.org/2000/svg" version="1.1">
 <metadata>
  <rdf:RDF xmlns:dc="http://purl.org/dc/elements/1.1/" xmlns:cc="http://creativecommons.org/ns#" xmlns:rdf="http://www.w3.org/1999/02/22-rdf-syntax-ns#">
   <cc:Work>
    <dc:type rdf:resource="http://purl.org/dc/dcmitype/StillImage"/>
    <dc:date>2024-06-11T13:35:32.822661</dc:date>
    <dc:format>image/svg+xml</dc:format>
    <dc:creator>
     <cc:Agent>
      <dc:title>Matplotlib v3.7.1, https://matplotlib.org/</dc:title>
     </cc:Agent>
    </dc:creator>
   </cc:Work>
  </rdf:RDF>
 </metadata>
 <defs>
  <style type="text/css">*{stroke-linejoin: round; stroke-linecap: butt}</style>
 </defs>
 <g id="figure_1">
  <g id="patch_1">
   <path d="M 0 623.292 
L 488.271875 623.292 
L 488.271875 0 
L 0 0 
z
" style="fill: #ffffff"/>
  </g>
  <g id="axes_1">
   <g id="patch_2">
    <path d="M 66.321875 395.28 
L 456.921875 395.28 
L 456.921875 7.2 
L 66.321875 7.2 
z
" style="fill: #ffffff"/>
   </g>
   <g id="matplotlib.axis_1">
    <g id="xtick_1">
     <g id="text_1">
      <!-- 0.4 -->
      <g style="fill: #262626" transform="translate(94.003355 425.075312) scale(0.3 -0.3)">
       <defs>
        <path id="DejaVuSans-30" d="M 2034 4250 
Q 1547 4250 1301 3770 
Q 1056 3291 1056 2328 
Q 1056 1369 1301 889 
Q 1547 409 2034 409 
Q 2525 409 2770 889 
Q 3016 1369 3016 2328 
Q 3016 3291 2770 3770 
Q 2525 4250 2034 4250 
z
M 2034 4750 
Q 2819 4750 3233 4129 
Q 3647 3509 3647 2328 
Q 3647 1150 3233 529 
Q 2819 -91 2034 -91 
Q 1250 -91 836 529 
Q 422 1150 422 2328 
Q 422 3509 836 4129 
Q 1250 4750 2034 4750 
z
" transform="scale(0.015625)"/>
        <path id="DejaVuSans-2e" d="M 684 794 
L 1344 794 
L 1344 0 
L 684 0 
L 684 794 
z
" transform="scale(0.015625)"/>
        <path id="DejaVuSans-34" d="M 2419 4116 
L 825 1625 
L 2419 1625 
L 2419 4116 
z
M 2253 4666 
L 3047 4666 
L 3047 1625 
L 3713 1625 
L 3713 1100 
L 3047 1100 
L 3047 0 
L 2419 0 
L 2419 1100 
L 313 1100 
L 313 1709 
L 2253 4666 
z
" transform="scale(0.015625)"/>
       </defs>
       <use xlink:href="#DejaVuSans-30"/>
       <use xlink:href="#DejaVuSans-2e" x="63.623047"/>
       <use xlink:href="#DejaVuSans-34" x="95.410156"/>
      </g>
     </g>
    </g>
    <g id="xtick_2">
     <g id="text_2">
      <!-- 0.6 -->
      <g style="fill: #262626" transform="translate(201.10645 425.075312) scale(0.3 -0.3)">
       <defs>
        <path id="DejaVuSans-36" d="M 2113 2584 
Q 1688 2584 1439 2293 
Q 1191 2003 1191 1497 
Q 1191 994 1439 701 
Q 1688 409 2113 409 
Q 2538 409 2786 701 
Q 3034 994 3034 1497 
Q 3034 2003 2786 2293 
Q 2538 2584 2113 2584 
z
M 3366 4563 
L 3366 3988 
Q 3128 4100 2886 4159 
Q 2644 4219 2406 4219 
Q 1781 4219 1451 3797 
Q 1122 3375 1075 2522 
Q 1259 2794 1537 2939 
Q 1816 3084 2150 3084 
Q 2853 3084 3261 2657 
Q 3669 2231 3669 1497 
Q 3669 778 3244 343 
Q 2819 -91 2113 -91 
Q 1303 -91 875 529 
Q 447 1150 447 2328 
Q 447 3434 972 4092 
Q 1497 4750 2381 4750 
Q 2619 4750 2861 4703 
Q 3103 4656 3366 4563 
z
" transform="scale(0.015625)"/>
       </defs>
       <use xlink:href="#DejaVuSans-30"/>
       <use xlink:href="#DejaVuSans-2e" x="63.623047"/>
       <use xlink:href="#DejaVuSans-36" x="95.410156"/>
      </g>
     </g>
    </g>
    <g id="xtick_3">
     <g id="text_3">
      <!-- 0.8 -->
      <g style="fill: #262626" transform="translate(308.209546 425.075312) scale(0.3 -0.3)">
       <defs>
        <path id="DejaVuSans-38" d="M 2034 2216 
Q 1584 2216 1326 1975 
Q 1069 1734 1069 1313 
Q 1069 891 1326 650 
Q 1584 409 2034 409 
Q 2484 409 2743 651 
Q 3003 894 3003 1313 
Q 3003 1734 2745 1975 
Q 2488 2216 2034 2216 
z
M 1403 2484 
Q 997 2584 770 2862 
Q 544 3141 544 3541 
Q 544 4100 942 4425 
Q 1341 4750 2034 4750 
Q 2731 4750 3128 4425 
Q 3525 4100 3525 3541 
Q 3525 3141 3298 2862 
Q 3072 2584 2669 2484 
Q 3125 2378 3379 2068 
Q 3634 1759 3634 1313 
Q 3634 634 3220 271 
Q 2806 -91 2034 -91 
Q 1263 -91 848 271 
Q 434 634 434 1313 
Q 434 1759 690 2068 
Q 947 2378 1403 2484 
z
M 1172 3481 
Q 1172 3119 1398 2916 
Q 1625 2713 2034 2713 
Q 2441 2713 2670 2916 
Q 2900 3119 2900 3481 
Q 2900 3844 2670 4047 
Q 2441 4250 2034 4250 
Q 1625 4250 1398 4047 
Q 1172 3844 1172 3481 
z
" transform="scale(0.015625)"/>
       </defs>
       <use xlink:href="#DejaVuSans-30"/>
       <use xlink:href="#DejaVuSans-2e" x="63.623047"/>
       <use xlink:href="#DejaVuSans-38" x="95.410156"/>
      </g>
     </g>
    </g>
    <g id="xtick_4">
     <g id="text_4">
      <!-- 1.0 -->
      <g style="fill: #262626" transform="translate(415.312642 425.075312) scale(0.3 -0.3)">
       <defs>
        <path id="DejaVuSans-31" d="M 794 531 
L 1825 531 
L 1825 4091 
L 703 3866 
L 703 4441 
L 1819 4666 
L 2450 4666 
L 2450 531 
L 3481 531 
L 3481 0 
L 794 0 
L 794 531 
z
" transform="scale(0.015625)"/>
       </defs>
       <use xlink:href="#DejaVuSans-31"/>
       <use xlink:href="#DejaVuSans-2e" x="63.623047"/>
       <use xlink:href="#DejaVuSans-30" x="95.410156"/>
      </g>
     </g>
    </g>
    <g id="text_5">
     <!-- F1 score -->
     <g style="fill: #262626" transform="translate(198.385156 458.109687) scale(0.3 -0.3)">
      <defs>
       <path id="DejaVuSans-46" d="M 628 4666 
L 3309 4666 
L 3309 4134 
L 1259 4134 
L 1259 2759 
L 3109 2759 
L 3109 2228 
L 1259 2228 
L 1259 0 
L 628 0 
L 628 4666 
z
" transform="scale(0.015625)"/>
       <path id="DejaVuSans-20" transform="scale(0.015625)"/>
       <path id="DejaVuSans-73" d="M 2834 3397 
L 2834 2853 
Q 2591 2978 2328 3040 
Q 2066 3103 1784 3103 
Q 1356 3103 1142 2972 
Q 928 2841 928 2578 
Q 928 2378 1081 2264 
Q 1234 2150 1697 2047 
L 1894 2003 
Q 2506 1872 2764 1633 
Q 3022 1394 3022 966 
Q 3022 478 2636 193 
Q 2250 -91 1575 -91 
Q 1294 -91 989 -36 
Q 684 19 347 128 
L 347 722 
Q 666 556 975 473 
Q 1284 391 1588 391 
Q 1994 391 2212 530 
Q 2431 669 2431 922 
Q 2431 1156 2273 1281 
Q 2116 1406 1581 1522 
L 1381 1569 
Q 847 1681 609 1914 
Q 372 2147 372 2553 
Q 372 3047 722 3315 
Q 1072 3584 1716 3584 
Q 2034 3584 2315 3537 
Q 2597 3491 2834 3397 
z
" transform="scale(0.015625)"/>
       <path id="DejaVuSans-63" d="M 3122 3366 
L 3122 2828 
Q 2878 2963 2633 3030 
Q 2388 3097 2138 3097 
Q 1578 3097 1268 2742 
Q 959 2388 959 1747 
Q 959 1106 1268 751 
Q 1578 397 2138 397 
Q 2388 397 2633 464 
Q 2878 531 3122 666 
L 3122 134 
Q 2881 22 2623 -34 
Q 2366 -91 2075 -91 
Q 1284 -91 818 406 
Q 353 903 353 1747 
Q 353 2603 823 3093 
Q 1294 3584 2113 3584 
Q 2378 3584 2631 3529 
Q 2884 3475 3122 3366 
z
" transform="scale(0.015625)"/>
       <path id="DejaVuSans-6f" d="M 1959 3097 
Q 1497 3097 1228 2736 
Q 959 2375 959 1747 
Q 959 1119 1226 758 
Q 1494 397 1959 397 
Q 2419 397 2687 759 
Q 2956 1122 2956 1747 
Q 2956 2369 2687 2733 
Q 2419 3097 1959 3097 
z
M 1959 3584 
Q 2709 3584 3137 3096 
Q 3566 2609 3566 1747 
Q 3566 888 3137 398 
Q 2709 -91 1959 -91 
Q 1206 -91 779 398 
Q 353 888 353 1747 
Q 353 2609 779 3096 
Q 1206 3584 1959 3584 
z
" transform="scale(0.015625)"/>
       <path id="DejaVuSans-72" d="M 2631 2963 
Q 2534 3019 2420 3045 
Q 2306 3072 2169 3072 
Q 1681 3072 1420 2755 
Q 1159 2438 1159 1844 
L 1159 0 
L 581 0 
L 581 3500 
L 1159 3500 
L 1159 2956 
Q 1341 3275 1631 3429 
Q 1922 3584 2338 3584 
Q 2397 3584 2469 3576 
Q 2541 3569 2628 3553 
L 2631 2963 
z
" transform="scale(0.015625)"/>
       <path id="DejaVuSans-65" d="M 3597 1894 
L 3597 1613 
L 953 1613 
Q 991 1019 1311 708 
Q 1631 397 2203 397 
Q 2534 397 2845 478 
Q 3156 559 3463 722 
L 3463 178 
Q 3153 47 2828 -22 
Q 2503 -91 2169 -91 
Q 1331 -91 842 396 
Q 353 884 353 1716 
Q 353 2575 817 3079 
Q 1281 3584 2069 3584 
Q 2775 3584 3186 3129 
Q 3597 2675 3597 1894 
z
M 3022 2063 
Q 3016 2534 2758 2815 
Q 2500 3097 2075 3097 
Q 1594 3097 1305 2825 
Q 1016 2553 972 2059 
L 3022 2063 
z
" transform="scale(0.015625)"/>
      </defs>
      <use xlink:href="#DejaVuSans-46"/>
      <use xlink:href="#DejaVuSans-31" x="57.519531"/>
      <use xlink:href="#DejaVuSans-20" x="121.142578"/>
      <use xlink:href="#DejaVuSans-73" x="152.929688"/>
      <use xlink:href="#DejaVuSans-63" x="205.029297"/>
      <use xlink:href="#DejaVuSans-6f" x="260.009766"/>
      <use xlink:href="#DejaVuSans-72" x="321.191406"/>
      <use xlink:href="#DejaVuSans-65" x="360.054688"/>
     </g>
    </g>
   </g>
   <g id="matplotlib.axis_2">
    <g id="ytick_1">
     <g id="text_6">
      <!-- 0 -->
      <g style="fill: #262626" transform="translate(40.234375 315.791288) scale(0.3 -0.3)">
       <use xlink:href="#DejaVuSans-30"/>
      </g>
     </g>
    </g>
    <g id="ytick_2">
     <g id="text_7">
      <!-- 1 -->
      <g style="fill: #262626" transform="translate(40.234375 223.039585) scale(0.3 -0.3)">
       <use xlink:href="#DejaVuSans-31"/>
      </g>
     </g>
    </g>
    <g id="ytick_3">
     <g id="text_8">
      <!-- 2 -->
      <g style="fill: #262626" transform="translate(40.234375 130.287883) scale(0.3 -0.3)">
       <defs>
        <path id="DejaVuSans-32" d="M 1228 531 
L 3431 531 
L 3431 0 
L 469 0 
L 469 531 
Q 828 903 1448 1529 
Q 2069 2156 2228 2338 
Q 2531 2678 2651 2914 
Q 2772 3150 2772 3378 
Q 2772 3750 2511 3984 
Q 2250 4219 1831 4219 
Q 1534 4219 1204 4116 
Q 875 4013 500 3803 
L 500 4441 
Q 881 4594 1212 4672 
Q 1544 4750 1819 4750 
Q 2544 4750 2975 4387 
Q 3406 4025 3406 3419 
Q 3406 3131 3298 2873 
Q 3191 2616 2906 2266 
Q 2828 2175 2409 1742 
Q 1991 1309 1228 531 
z
" transform="scale(0.015625)"/>
       </defs>
       <use xlink:href="#DejaVuSans-32"/>
      </g>
     </g>
    </g>
    <g id="ytick_4">
     <g id="text_9">
      <!-- 3 -->
      <g style="fill: #262626" transform="translate(40.234375 37.53618) scale(0.3 -0.3)">
       <defs>
        <path id="DejaVuSans-33" d="M 2597 2516 
Q 3050 2419 3304 2112 
Q 3559 1806 3559 1356 
Q 3559 666 3084 287 
Q 2609 -91 1734 -91 
Q 1441 -91 1130 -33 
Q 819 25 488 141 
L 488 750 
Q 750 597 1062 519 
Q 1375 441 1716 441 
Q 2309 441 2620 675 
Q 2931 909 2931 1356 
Q 2931 1769 2642 2001 
Q 2353 2234 1838 2234 
L 1294 2234 
L 1294 2753 
L 1863 2753 
Q 2328 2753 2575 2939 
Q 2822 3125 2822 3475 
Q 2822 3834 2567 4026 
Q 2313 4219 1838 4219 
Q 1578 4219 1281 4162 
Q 984 4106 628 3988 
L 628 4550 
Q 988 4650 1302 4700 
Q 1616 4750 1894 4750 
Q 2613 4750 3031 4423 
Q 3450 4097 3450 3541 
Q 3450 3153 3228 2886 
Q 3006 2619 2597 2516 
z
" transform="scale(0.015625)"/>
       </defs>
       <use xlink:href="#DejaVuSans-33"/>
      </g>
     </g>
    </g>
    <g id="text_10">
     <!-- No slide / slide ratio -->
     <g style="fill: #262626" transform="translate(29.995312 350.147812) rotate(-90) scale(0.3 -0.3)">
      <defs>
       <path id="DejaVuSans-4e" d="M 628 4666 
L 1478 4666 
L 3547 763 
L 3547 4666 
L 4159 4666 
L 4159 0 
L 3309 0 
L 1241 3903 
L 1241 0 
L 628 0 
L 628 4666 
z
" transform="scale(0.015625)"/>
       <path id="DejaVuSans-6c" d="M 603 4863 
L 1178 4863 
L 1178 0 
L 603 0 
L 603 4863 
z
" transform="scale(0.015625)"/>
       <path id="DejaVuSans-69" d="M 603 3500 
L 1178 3500 
L 1178 0 
L 603 0 
L 603 3500 
z
M 603 4863 
L 1178 4863 
L 1178 4134 
L 603 4134 
L 603 4863 
z
" transform="scale(0.015625)"/>
       <path id="DejaVuSans-64" d="M 2906 2969 
L 2906 4863 
L 3481 4863 
L 3481 0 
L 2906 0 
L 2906 525 
Q 2725 213 2448 61 
Q 2172 -91 1784 -91 
Q 1150 -91 751 415 
Q 353 922 353 1747 
Q 353 2572 751 3078 
Q 1150 3584 1784 3584 
Q 2172 3584 2448 3432 
Q 2725 3281 2906 2969 
z
M 947 1747 
Q 947 1113 1208 752 
Q 1469 391 1925 391 
Q 2381 391 2643 752 
Q 2906 1113 2906 1747 
Q 2906 2381 2643 2742 
Q 2381 3103 1925 3103 
Q 1469 3103 1208 2742 
Q 947 2381 947 1747 
z
" transform="scale(0.015625)"/>
       <path id="DejaVuSans-2f" d="M 1625 4666 
L 2156 4666 
L 531 -594 
L 0 -594 
L 1625 4666 
z
" transform="scale(0.015625)"/>
       <path id="DejaVuSans-61" d="M 2194 1759 
Q 1497 1759 1228 1600 
Q 959 1441 959 1056 
Q 959 750 1161 570 
Q 1363 391 1709 391 
Q 2188 391 2477 730 
Q 2766 1069 2766 1631 
L 2766 1759 
L 2194 1759 
z
M 3341 1997 
L 3341 0 
L 2766 0 
L 2766 531 
Q 2569 213 2275 61 
Q 1981 -91 1556 -91 
Q 1019 -91 701 211 
Q 384 513 384 1019 
Q 384 1609 779 1909 
Q 1175 2209 1959 2209 
L 2766 2209 
L 2766 2266 
Q 2766 2663 2505 2880 
Q 2244 3097 1772 3097 
Q 1472 3097 1187 3025 
Q 903 2953 641 2809 
L 641 3341 
Q 956 3463 1253 3523 
Q 1550 3584 1831 3584 
Q 2591 3584 2966 3190 
Q 3341 2797 3341 1997 
z
" transform="scale(0.015625)"/>
       <path id="DejaVuSans-74" d="M 1172 4494 
L 1172 3500 
L 2356 3500 
L 2356 3053 
L 1172 3053 
L 1172 1153 
Q 1172 725 1289 603 
Q 1406 481 1766 481 
L 2356 481 
L 2356 0 
L 1766 0 
Q 1100 0 847 248 
Q 594 497 594 1153 
L 594 3053 
L 172 3053 
L 172 3500 
L 594 3500 
L 594 4494 
L 1172 4494 
z
" transform="scale(0.015625)"/>
      </defs>
      <use xlink:href="#DejaVuSans-4e"/>
      <use xlink:href="#DejaVuSans-6f" x="74.804688"/>
      <use xlink:href="#DejaVuSans-20" x="135.986328"/>
      <use xlink:href="#DejaVuSans-73" x="167.773438"/>
      <use xlink:href="#DejaVuSans-6c" x="219.873047"/>
      <use xlink:href="#DejaVuSans-69" x="247.65625"/>
      <use xlink:href="#DejaVuSans-64" x="275.439453"/>
      <use xlink:href="#DejaVuSans-65" x="338.916016"/>
      <use xlink:href="#DejaVuSans-20" x="400.439453"/>
      <use xlink:href="#DejaVuSans-2f" x="432.226562"/>
      <use xlink:href="#DejaVuSans-20" x="465.917969"/>
      <use xlink:href="#DejaVuSans-73" x="497.705078"/>
      <use xlink:href="#DejaVuSans-6c" x="549.804688"/>
      <use xlink:href="#DejaVuSans-69" x="577.587891"/>
      <use xlink:href="#DejaVuSans-64" x="605.371094"/>
      <use xlink:href="#DejaVuSans-65" x="668.847656"/>
      <use xlink:href="#DejaVuSans-20" x="730.371094"/>
      <use xlink:href="#DejaVuSans-72" x="762.158203"/>
      <use xlink:href="#DejaVuSans-61" x="803.271484"/>
      <use xlink:href="#DejaVuSans-74" x="864.550781"/>
      <use xlink:href="#DejaVuSans-69" x="903.759766"/>
      <use xlink:href="#DejaVuSans-6f" x="931.542969"/>
     </g>
    </g>
   </g>
   <g id="PathCollection_1">
    <defs>
     <path id="me6d7fc8761" d="M -3 3 
L 3 -3 
M -3 -3 
L 3 3 
" style="stroke: #1f77b4; stroke-opacity: 0.8; stroke-width: 1.5"/>
    </defs>
    <g clip-path="url(#pfeb5120427)">
     <use xlink:href="#me6d7fc8761" x="313.738038" y="301.425577" style="fill: #1f77b4; fill-opacity: 0.8; stroke: #1f77b4; stroke-opacity: 0.8; stroke-width: 1.5"/>
     <use xlink:href="#me6d7fc8761" x="128.019797" y="299.106785" style="fill: #1f77b4; fill-opacity: 0.8; stroke: #1f77b4; stroke-opacity: 0.8; stroke-width: 1.5"/>
     <use xlink:href="#me6d7fc8761" x="130.098396" y="299.106785" style="fill: #1f77b4; fill-opacity: 0.8; stroke: #1f77b4; stroke-opacity: 0.8; stroke-width: 1.5"/>
     <use xlink:href="#me6d7fc8761" x="423.542209" y="293.541683" style="fill: #1f77b4; fill-opacity: 0.8; stroke: #1f77b4; stroke-opacity: 0.8; stroke-width: 1.5"/>
     <use xlink:href="#me6d7fc8761" x="309.516214" y="271.930536" style="fill: #1f77b4; fill-opacity: 0.8; stroke: #1f77b4; stroke-opacity: 0.8; stroke-width: 1.5"/>
     <use xlink:href="#me6d7fc8761" x="429.063264" y="304.393632" style="fill: #1f77b4; fill-opacity: 0.8; stroke: #1f77b4; stroke-opacity: 0.8; stroke-width: 1.5"/>
     <use xlink:href="#me6d7fc8761" x="413.852052" y="291.593897" style="fill: #1f77b4; fill-opacity: 0.8; stroke: #1f77b4; stroke-opacity: 0.8; stroke-width: 1.5"/>
     <use xlink:href="#me6d7fc8761" x="314.927738" y="270.261005" style="fill: #1f77b4; fill-opacity: 0.8; stroke: #1f77b4; stroke-opacity: 0.8; stroke-width: 1.5"/>
     <use xlink:href="#me6d7fc8761" x="146.865131" y="128.258148" style="fill: #1f77b4; fill-opacity: 0.8; stroke: #1f77b4; stroke-opacity: 0.8; stroke-width: 1.5"/>
     <use xlink:href="#me6d7fc8761" x="204.384681" y="246.052811" style="fill: #1f77b4; fill-opacity: 0.8; stroke: #1f77b4; stroke-opacity: 0.8; stroke-width: 1.5"/>
     <use xlink:href="#me6d7fc8761" x="242.930585" y="304.022625" style="fill: #1f77b4; fill-opacity: 0.8; stroke: #1f77b4; stroke-opacity: 0.8; stroke-width: 1.5"/>
     <use xlink:href="#me6d7fc8761" x="187.274317" y="239.003681" style="fill: #1f77b4; fill-opacity: 0.8; stroke: #1f77b4; stroke-opacity: 0.8; stroke-width: 1.5"/>
     <use xlink:href="#me6d7fc8761" x="417.359007" y="24.84" style="fill: #1f77b4; fill-opacity: 0.8; stroke: #1f77b4; stroke-opacity: 0.8; stroke-width: 1.5"/>
     <use xlink:href="#me6d7fc8761" x="209.257699" y="304.115377" style="fill: #1f77b4; fill-opacity: 0.8; stroke: #1f77b4; stroke-opacity: 0.8; stroke-width: 1.5"/>
     <use xlink:href="#me6d7fc8761" x="396.400468" y="266.736441" style="fill: #1f77b4; fill-opacity: 0.8; stroke: #1f77b4; stroke-opacity: 0.8; stroke-width: 1.5"/>
    </g>
   </g>
   <g id="PolyCollection_1">
    <defs>
     <path id="m24e1ec4082" d="M 128.019797 -426.209421 
L 128.019797 -297.987069 
L 131.06064 -299.14715 
L 134.101483 -300.125145 
L 137.142326 -301.358923 
L 140.183169 -302.284585 
L 143.224012 -303.212687 
L 146.264855 -304.27947 
L 149.305698 -305.746221 
L 152.346542 -307.207814 
L 155.387385 -308.625066 
L 158.428228 -310.246659 
L 161.469071 -312.08865 
L 164.509914 -313.930642 
L 167.550757 -314.711475 
L 170.5916 -316.226861 
L 173.632443 -317.752043 
L 176.673286 -319.232075 
L 179.71413 -320.530294 
L 182.754973 -321.533053 
L 185.795816 -322.539204 
L 188.836659 -324.039544 
L 191.877502 -324.696225 
L 194.918345 -325.396277 
L 197.959188 -325.765445 
L 201.000031 -326.631312 
L 204.040874 -327.49149 
L 207.081717 -328.043971 
L 210.122561 -328.65983 
L 213.163404 -329.219781 
L 216.204247 -329.801207 
L 219.24509 -330.04391 
L 222.285933 -330.695536 
L 225.326776 -330.944889 
L 228.367619 -331.009818 
L 231.408462 -331.077624 
L 234.449305 -331.335864 
L 237.490148 -331.941961 
L 240.530992 -331.98563 
L 243.571835 -332.358269 
L 246.612678 -332.679868 
L 249.653521 -333.802335 
L 252.694364 -334.089118 
L 255.735207 -334.303248 
L 258.77605 -334.690516 
L 261.816893 -335.15536 
L 264.857736 -335.651118 
L 267.898579 -336.183656 
L 270.939423 -336.106358 
L 273.980266 -336.100316 
L 277.021109 -336.041893 
L 280.061952 -335.799225 
L 283.102795 -335.731452 
L 286.143638 -335.889338 
L 289.184481 -335.844712 
L 292.225324 -335.791699 
L 295.266167 -335.533431 
L 298.30701 -335.22349 
L 301.347854 -334.917249 
L 304.388697 -334.616663 
L 307.42954 -334.554533 
L 310.470383 -334.404164 
L 313.511226 -334.463611 
L 316.552069 -334.382417 
L 319.592912 -334.07712 
L 322.633755 -333.999599 
L 325.674598 -333.576838 
L 328.715442 -333.346418 
L 331.756285 -333.113611 
L 334.797128 -332.88368 
L 337.837971 -332.605124 
L 340.878814 -332.41277 
L 343.919657 -332.123783 
L 346.9605 -331.510777 
L 350.001343 -330.896304 
L 353.042186 -330.523907 
L 356.083029 -329.84301 
L 359.123873 -329.821397 
L 362.164716 -329.398914 
L 365.205559 -328.770921 
L 368.246402 -327.755971 
L 371.287245 -327.697392 
L 374.328088 -327.07777 
L 377.368931 -326.293952 
L 380.409774 -325.373049 
L 383.450617 -324.520859 
L 386.49146 -323.747182 
L 389.532304 -322.879424 
L 392.573147 -321.890265 
L 395.61399 -320.984006 
L 398.654833 -320.347163 
L 401.695676 -319.450875 
L 404.736519 -318.604768 
L 407.777362 -317.477701 
L 410.818205 -316.498811 
L 413.859048 -315.521736 
L 416.899891 -314.501432 
L 419.940735 -313.22988 
L 422.981578 -312.022939 
L 426.022421 -311.053869 
L 429.063264 -310.09649 
L 429.063264 -474.88386 
L 429.063264 -474.88386 
L 426.022421 -473.035196 
L 422.981578 -471.186533 
L 419.940735 -469.33787 
L 416.899891 -467.489207 
L 413.859048 -465.885329 
L 410.818205 -464.093317 
L 407.777362 -462.395154 
L 404.736519 -461.107499 
L 401.695676 -459.618151 
L 398.654833 -458.213495 
L 395.61399 -456.826004 
L 392.573147 -455.53343 
L 389.532304 -454.046507 
L 386.49146 -452.661811 
L 383.450617 -451.373206 
L 380.409774 -450.319663 
L 377.368931 -448.792665 
L 374.328088 -447.086175 
L 371.287245 -445.252345 
L 368.246402 -443.475803 
L 365.205559 -441.700894 
L 362.164716 -440.136941 
L 359.123873 -438.839552 
L 356.083029 -437.542163 
L 353.042186 -436.310083 
L 350.001343 -434.935587 
L 346.9605 -433.564622 
L 343.919657 -432.193119 
L 340.878814 -430.817116 
L 337.837971 -429.451729 
L 334.797128 -428.478091 
L 331.756285 -427.185932 
L 328.715442 -426.066536 
L 325.674598 -424.840561 
L 322.633755 -423.680706 
L 319.592912 -422.323444 
L 316.552069 -421.46681 
L 313.511226 -420.540634 
L 310.470383 -419.369238 
L 307.42954 -418.913079 
L 304.388697 -418.074813 
L 301.347854 -417.225087 
L 298.30701 -416.375361 
L 295.266167 -415.523201 
L 292.225324 -414.662465 
L 289.184481 -413.428303 
L 286.143638 -412.182042 
L 283.102795 -411.442329 
L 280.061952 -411.265448 
L 277.021109 -410.625666 
L 273.980266 -409.75316 
L 270.939423 -409.379638 
L 267.898579 -408.541434 
L 264.857736 -408.476452 
L 261.816893 -407.83441 
L 258.77605 -406.264111 
L 255.735207 -405.816238 
L 252.694364 -405.685547 
L 249.653521 -405.392583 
L 246.612678 -404.535168 
L 243.571835 -403.924092 
L 240.530992 -404.668625 
L 237.490148 -404.761164 
L 234.449305 -404.407672 
L 231.408462 -404.039701 
L 228.367619 -404.462897 
L 225.326776 -405.162127 
L 222.285933 -405.846326 
L 219.24509 -405.718058 
L 216.204247 -407.051954 
L 213.163404 -407.91698 
L 210.122561 -408.615223 
L 207.081717 -409.323242 
L 204.040874 -409.014606 
L 201.000031 -408.755391 
L 197.959188 -409.455801 
L 194.918345 -410.147263 
L 191.877502 -410.830555 
L 188.836659 -411.513846 
L 185.795816 -412.223342 
L 182.754973 -412.917739 
L 179.71413 -413.620283 
L 176.673286 -414.75442 
L 173.632443 -415.212638 
L 170.5916 -415.750531 
L 167.550757 -416.454524 
L 164.509914 -417.133864 
L 161.469071 -417.813203 
L 158.428228 -417.700299 
L 155.387385 -418.828498 
L 152.346542 -419.069716 
L 149.305698 -420.266643 
L 146.264855 -420.624464 
L 143.224012 -421.442695 
L 140.183169 -422.449665 
L 137.142326 -423.419015 
L 134.101483 -424.446866 
L 131.06064 -425.150131 
L 128.019797 -426.209421 
z
" style="stroke: #ffffff; stroke-opacity: 0.15"/>
    </defs>
    <g clip-path="url(#pfeb5120427)">
     <use xlink:href="#m24e1ec4082" x="0" y="623.292" style="fill: #1f77b4; fill-opacity: 0.15; stroke: #ffffff; stroke-opacity: 0.15"/>
    </g>
   </g>
   <g id="PathCollection_2">
    <defs>
     <path id="mf7b9cecf05" d="M 0 -3 
L -3 3 
L 3 3 
z
" style="stroke: #ff7f0e; stroke-opacity: 0.8"/>
    </defs>
    <g clip-path="url(#pfeb5120427)">
     <use xlink:href="#mf7b9cecf05" x="335.519172" y="301.425577" style="fill: #ff7f0e; fill-opacity: 0.8; stroke: #ff7f0e; stroke-opacity: 0.8"/>
     <use xlink:href="#mf7b9cecf05" x="307.629389" y="299.106785" style="fill: #ff7f0e; fill-opacity: 0.8; stroke: #ff7f0e; stroke-opacity: 0.8"/>
     <use xlink:href="#mf7b9cecf05" x="333.594278" y="299.106785" style="fill: #ff7f0e; fill-opacity: 0.8; stroke: #ff7f0e; stroke-opacity: 0.8"/>
     <use xlink:href="#mf7b9cecf05" x="436.326399" y="293.541683" style="fill: #ff7f0e; fill-opacity: 0.8; stroke: #ff7f0e; stroke-opacity: 0.8"/>
     <use xlink:href="#mf7b9cecf05" x="362.114743" y="271.930536" style="fill: #ff7f0e; fill-opacity: 0.8; stroke: #ff7f0e; stroke-opacity: 0.8"/>
     <use xlink:href="#mf7b9cecf05" x="439.16733" y="304.393632" style="fill: #ff7f0e; fill-opacity: 0.8; stroke: #ff7f0e; stroke-opacity: 0.8"/>
     <use xlink:href="#mf7b9cecf05" x="402.168078" y="291.593897" style="fill: #ff7f0e; fill-opacity: 0.8; stroke: #ff7f0e; stroke-opacity: 0.8"/>
     <use xlink:href="#mf7b9cecf05" x="355.626915" y="270.261005" style="fill: #ff7f0e; fill-opacity: 0.8; stroke: #ff7f0e; stroke-opacity: 0.8"/>
     <use xlink:href="#mf7b9cecf05" x="285.23373" y="128.258148" style="fill: #ff7f0e; fill-opacity: 0.8; stroke: #ff7f0e; stroke-opacity: 0.8"/>
     <use xlink:href="#mf7b9cecf05" x="189.540389" y="246.052811" style="fill: #ff7f0e; fill-opacity: 0.8; stroke: #ff7f0e; stroke-opacity: 0.8"/>
     <use xlink:href="#mf7b9cecf05" x="332.3113" y="304.022625" style="fill: #ff7f0e; fill-opacity: 0.8; stroke: #ff7f0e; stroke-opacity: 0.8"/>
     <use xlink:href="#mf7b9cecf05" x="187.696557" y="239.003681" style="fill: #ff7f0e; fill-opacity: 0.8; stroke: #ff7f0e; stroke-opacity: 0.8"/>
     <use xlink:href="#mf7b9cecf05" x="253.562533" y="24.84" style="fill: #ff7f0e; fill-opacity: 0.8; stroke: #ff7f0e; stroke-opacity: 0.8"/>
     <use xlink:href="#mf7b9cecf05" x="257.4386" y="304.115377" style="fill: #ff7f0e; fill-opacity: 0.8; stroke: #ff7f0e; stroke-opacity: 0.8"/>
     <use xlink:href="#mf7b9cecf05" x="401.978755" y="266.736441" style="fill: #ff7f0e; fill-opacity: 0.8; stroke: #ff7f0e; stroke-opacity: 0.8"/>
    </g>
   </g>
   <g id="PolyCollection_2">
    <defs>
     <path id="m8b7f868c83" d="M 187.696557 -554.28487 
L 187.696557 -351.598947 
L 190.236666 -351.336232 
L 192.776775 -351.063057 
L 195.316884 -350.738636 
L 197.856992 -350.414215 
L 200.397101 -350.089793 
L 202.93721 -349.765372 
L 205.477319 -349.440951 
L 208.017428 -349.11653 
L 210.557536 -348.792109 
L 213.097645 -348.544444 
L 215.637754 -348.328746 
L 218.177863 -348.113048 
L 220.717972 -347.89735 
L 223.25808 -347.681652 
L 225.798189 -347.462679 
L 228.338298 -347.184742 
L 230.878407 -346.906805 
L 233.418516 -346.575033 
L 235.958625 -346.242718 
L 238.498733 -346.06558 
L 241.038842 -345.781605 
L 243.578951 -345.358689 
L 246.11906 -344.885078 
L 248.659169 -344.411467 
L 251.199277 -343.937856 
L 253.739386 -343.464245 
L 256.279495 -343.062244 
L 258.819604 -342.671036 
L 261.359713 -342.282001 
L 263.899821 -341.919328 
L 266.43993 -341.649879 
L 268.980039 -341.446354 
L 271.520148 -341.242828 
L 274.060257 -341.039303 
L 276.600366 -340.837482 
L 279.140474 -340.636744 
L 281.680583 -340.436007 
L 284.220692 -340.23527 
L 286.760801 -340.034532 
L 289.30091 -339.833795 
L 291.841018 -339.633058 
L 294.381127 -339.432321 
L 296.921236 -339.231583 
L 299.461345 -339.030846 
L 302.001454 -338.830109 
L 304.541562 -338.629371 
L 307.081671 -338.282705 
L 309.62178 -337.845607 
L 312.161889 -337.353411 
L 314.701998 -337.134818 
L 317.242107 -336.877814 
L 319.782215 -336.50828 
L 322.322324 -336.282419 
L 324.862433 -335.733586 
L 327.402542 -335.458146 
L 329.942651 -335.16019 
L 332.482759 -334.823255 
L 335.022868 -334.499683 
L 337.562977 -334.281465 
L 340.103086 -333.644252 
L 342.643195 -333.368301 
L 345.183303 -332.901748 
L 347.723412 -332.623758 
L 350.263521 -332.124659 
L 352.80363 -332.115502 
L 355.343739 -331.72194 
L 357.883848 -331.33473 
L 360.423956 -330.603739 
L 362.964065 -329.525588 
L 365.504174 -328.825304 
L 368.044283 -328.493525 
L 370.584392 -327.980432 
L 373.1245 -327.11114 
L 375.664609 -324.869632 
L 378.204718 -323.60524 
L 380.744827 -323.041898 
L 383.284936 -321.461667 
L 385.825044 -319.959447 
L 388.365153 -318.271294 
L 390.905262 -316.670817 
L 393.445371 -314.059613 
L 395.98548 -311.781094 
L 398.525589 -308.668135 
L 401.065697 -307.163694 
L 403.605806 -305.056032 
L 406.145915 -301.640135 
L 408.686024 -298.224238 
L 411.226133 -294.816437 
L 413.766241 -291.557304 
L 416.30635 -289.459283 
L 418.846459 -286.29246 
L 421.386568 -284.074544 
L 423.926677 -281.647277 
L 426.466785 -278.824951 
L 429.006894 -276.887434 
L 431.547003 -274.949918 
L 434.087112 -273.012401 
L 436.627221 -270.23306 
L 439.16733 -266.746159 
L 439.16733 -344.448141 
L 439.16733 -344.448141 
L 436.627221 -345.119994 
L 434.087112 -345.801343 
L 431.547003 -346.627458 
L 429.006894 -347.358548 
L 426.466785 -347.997936 
L 423.926677 -348.625431 
L 421.386568 -349.268973 
L 418.846459 -350.482573 
L 416.30635 -351.618191 
L 413.766241 -352.453961 
L 411.226133 -353.560888 
L 408.686024 -354.594378 
L 406.145915 -355.664818 
L 403.605806 -357.0825 
L 401.065697 -358.500182 
L 398.525589 -359.838173 
L 395.98548 -361.179754 
L 393.445371 -362.117838 
L 390.905262 -363.197934 
L 388.365153 -364.342987 
L 385.825044 -366.155851 
L 383.284936 -368.017893 
L 380.744827 -369.633148 
L 378.204718 -371.102905 
L 375.664609 -372.652337 
L 373.1245 -374.14122 
L 370.584392 -375.566349 
L 368.044283 -376.704996 
L 365.504174 -378.553079 
L 362.964065 -380.408845 
L 360.423956 -382.26461 
L 357.883848 -384.041804 
L 355.343739 -385.8547 
L 352.80363 -387.597263 
L 350.263521 -389.679543 
L 347.723412 -391.64527 
L 345.183303 -393.778324 
L 342.643195 -395.247006 
L 340.103086 -397.107238 
L 337.562977 -399.182582 
L 335.022868 -401.556115 
L 332.482759 -403.94336 
L 329.942651 -405.72252 
L 327.402542 -408.015675 
L 324.862433 -410.28877 
L 322.322324 -412.660935 
L 319.782215 -414.901044 
L 317.242107 -416.636817 
L 314.701998 -418.586912 
L 312.161889 -421.519362 
L 309.62178 -424.243202 
L 307.081671 -427.224134 
L 304.541562 -429.821612 
L 302.001454 -432.595015 
L 299.461345 -434.993687 
L 296.921236 -437.392359 
L 294.381127 -440.462429 
L 291.841018 -442.626364 
L 289.30091 -445.182129 
L 286.760801 -448.108321 
L 284.220692 -450.527846 
L 281.680583 -452.651031 
L 279.140474 -455.049904 
L 276.600366 -457.69765 
L 274.060257 -460.333344 
L 271.520148 -462.889248 
L 268.980039 -465.172834 
L 266.43993 -468.052394 
L 263.899821 -470.931954 
L 261.359713 -473.602973 
L 258.819604 -476.258356 
L 256.279495 -478.736114 
L 253.739386 -481.051084 
L 251.199277 -483.783711 
L 248.659169 -486.804901 
L 246.11906 -489.544419 
L 243.578951 -492.208947 
L 241.038842 -494.860291 
L 238.498733 -497.701753 
L 235.958625 -500.183233 
L 233.418516 -502.840729 
L 230.878407 -505.489876 
L 228.338298 -508.139023 
L 225.798189 -510.804592 
L 223.25808 -513.481318 
L 220.717972 -516.270084 
L 218.177863 -519.121647 
L 215.637754 -521.97321 
L 213.097645 -524.824773 
L 210.557536 -527.493522 
L 208.017428 -530.382955 
L 205.477319 -533.40369 
L 202.93721 -536.470009 
L 200.397101 -539.580141 
L 197.856992 -542.690273 
L 195.316884 -545.800405 
L 192.776775 -548.910537 
L 190.236666 -551.728568 
L 187.696557 -554.28487 
z
" style="stroke: #ffffff; stroke-opacity: 0.15"/>
    </defs>
    <g clip-path="url(#pfeb5120427)">
     <use xlink:href="#m8b7f868c83" x="0" y="623.292" style="fill: #ff7f0e; fill-opacity: 0.15; stroke: #ffffff; stroke-opacity: 0.15"/>
    </g>
   </g>
   <g id="PathCollection_3">
    <defs>
     <path id="m90c4462223" d="M 0 3 
C 0.795609 3 1.55874 2.683901 2.12132 2.12132 
C 2.683901 1.55874 3 0.795609 3 0 
C 3 -0.795609 2.683901 -1.55874 2.12132 -2.12132 
C 1.55874 -2.683901 0.795609 -3 0 -3 
C -0.795609 -3 -1.55874 -2.683901 -2.12132 -2.12132 
C -2.683901 -1.55874 -3 -0.795609 -3 0 
C -3 0.795609 -2.683901 1.55874 -2.12132 2.12132 
C -1.55874 2.683901 -0.795609 3 0 3 
z
" style="stroke: #2ca02c; stroke-opacity: 0.8"/>
    </defs>
    <g clip-path="url(#pfeb5120427)">
     <use xlink:href="#m90c4462223" x="335.519172" y="301.425577" style="fill: #2ca02c; fill-opacity: 0.8; stroke: #2ca02c; stroke-opacity: 0.8"/>
     <use xlink:href="#m90c4462223" x="313.871868" y="299.106785" style="fill: #2ca02c; fill-opacity: 0.8; stroke: #2ca02c; stroke-opacity: 0.8"/>
     <use xlink:href="#m90c4462223" x="329.004145" y="299.106785" style="fill: #2ca02c; fill-opacity: 0.8; stroke: #2ca02c; stroke-opacity: 0.8"/>
     <use xlink:href="#m90c4462223" x="434.905933" y="293.541683" style="fill: #2ca02c; fill-opacity: 0.8; stroke: #2ca02c; stroke-opacity: 0.8"/>
     <use xlink:href="#m90c4462223" x="247.773711" y="271.930536" style="fill: #2ca02c; fill-opacity: 0.8; stroke: #2ca02c; stroke-opacity: 0.8"/>
     <use xlink:href="#m90c4462223" x="385.615782" y="304.393632" style="fill: #2ca02c; fill-opacity: 0.8; stroke: #2ca02c; stroke-opacity: 0.8"/>
     <use xlink:href="#m90c4462223" x="402.168078" y="291.593897" style="fill: #2ca02c; fill-opacity: 0.8; stroke: #2ca02c; stroke-opacity: 0.8"/>
     <use xlink:href="#m90c4462223" x="326.709079" y="270.261005" style="fill: #2ca02c; fill-opacity: 0.8; stroke: #2ca02c; stroke-opacity: 0.8"/>
     <use xlink:href="#m90c4462223" x="278.729494" y="128.258148" style="fill: #2ca02c; fill-opacity: 0.8; stroke: #2ca02c; stroke-opacity: 0.8"/>
     <use xlink:href="#m90c4462223" x="141.191592" y="246.052811" style="fill: #2ca02c; fill-opacity: 0.8; stroke: #2ca02c; stroke-opacity: 0.8"/>
     <use xlink:href="#m90c4462223" x="327.511891" y="304.022625" style="fill: #2ca02c; fill-opacity: 0.8; stroke: #2ca02c; stroke-opacity: 0.8"/>
     <use xlink:href="#m90c4462223" x="200.726131" y="239.003681" style="fill: #2ca02c; fill-opacity: 0.8; stroke: #2ca02c; stroke-opacity: 0.8"/>
     <use xlink:href="#m90c4462223" x="84.07642" y="24.84" style="fill: #2ca02c; fill-opacity: 0.8; stroke: #2ca02c; stroke-opacity: 0.8"/>
     <use xlink:href="#m90c4462223" x="247.796933" y="304.115377" style="fill: #2ca02c; fill-opacity: 0.8; stroke: #2ca02c; stroke-opacity: 0.8"/>
     <use xlink:href="#m90c4462223" x="401.978755" y="266.736441" style="fill: #2ca02c; fill-opacity: 0.8; stroke: #2ca02c; stroke-opacity: 0.8"/>
    </g>
   </g>
   <g id="PolyCollection_3">
    <defs>
     <path id="m3a148e5b35" d="M 84.07642 -563.037494 
L 84.07642 -357.828397 
L 87.620153 -357.482113 
L 91.163885 -357.138386 
L 94.707618 -356.79724 
L 98.25135 -356.456093 
L 101.795083 -356.114947 
L 105.338815 -355.7738 
L 108.882548 -355.432654 
L 112.42628 -355.091507 
L 115.970013 -354.750361 
L 119.513745 -354.409214 
L 123.057477 -354.068068 
L 126.60121 -353.769336 
L 130.144942 -353.654141 
L 133.688675 -353.396645 
L 137.232407 -353.045424 
L 140.77614 -352.694203 
L 144.319872 -352.342982 
L 147.863605 -351.991762 
L 151.407337 -351.640541 
L 154.951069 -351.28932 
L 158.494802 -350.938099 
L 162.038534 -350.586878 
L 165.582267 -350.239529 
L 169.125999 -349.893733 
L 172.669732 -349.720279 
L 176.213464 -349.546824 
L 179.757197 -349.37337 
L 183.300929 -349.202243 
L 186.844662 -349.031648 
L 190.388394 -348.706346 
L 193.932126 -348.374295 
L 197.475859 -348.042245 
L 201.019591 -347.710194 
L 204.563324 -347.378144 
L 208.107056 -347.046094 
L 211.650789 -346.714043 
L 215.194521 -346.380161 
L 218.738254 -345.989593 
L 222.281986 -345.442468 
L 225.825719 -344.775226 
L 229.369451 -344.118399 
L 232.913183 -343.567996 
L 236.456916 -343.386935 
L 240.000648 -343.238537 
L 243.544381 -343.090139 
L 247.088113 -342.916467 
L 250.631846 -342.537424 
L 254.175578 -342.158382 
L 257.719311 -341.752423 
L 261.263043 -341.286273 
L 264.806775 -340.941773 
L 268.350508 -340.633564 
L 271.89424 -340.25634 
L 275.437973 -339.872318 
L 278.981705 -339.48193 
L 282.525438 -338.711512 
L 286.06917 -338.419149 
L 289.612903 -337.952989 
L 293.156635 -337.582497 
L 296.700368 -337.116706 
L 300.2441 -336.619029 
L 303.787832 -335.881562 
L 307.331565 -334.947399 
L 310.875297 -333.752367 
L 314.41903 -332.431197 
L 317.962762 -330.987599 
L 321.506495 -329.716406 
L 325.050227 -328.311326 
L 328.59396 -325.880333 
L 332.137692 -324.666979 
L 335.681425 -322.546911 
L 339.225157 -319.407118 
L 342.768889 -316.344579 
L 346.312622 -313.158127 
L 349.856354 -310.886697 
L 353.400087 -308.390119 
L 356.943819 -305.998859 
L 360.487552 -303.034368 
L 364.031284 -299.956784 
L 367.575017 -297.422908 
L 371.118749 -294.749714 
L 374.662481 -292.213784 
L 378.206214 -289.804757 
L 381.749946 -287.404998 
L 385.293679 -284.355112 
L 388.837411 -281.221092 
L 392.381144 -278.092311 
L 395.924876 -275.363746 
L 399.468609 -273.195466 
L 403.012341 -271.287713 
L 406.556074 -268.889817 
L 410.099806 -265.961665 
L 413.643538 -263.033514 
L 417.187271 -260.278189 
L 420.731003 -257.752942 
L 424.274736 -254.760878 
L 427.818468 -251.428721 
L 431.362201 -248.345166 
L 434.905933 -245.652 
L 434.905933 -338.847195 
L 434.905933 -338.847195 
L 431.362201 -339.277523 
L 427.818468 -339.655586 
L 424.274736 -340.127927 
L 420.731003 -340.677321 
L 417.187271 -341.512968 
L 413.643538 -342.013553 
L 410.099806 -342.856387 
L 406.556074 -343.63672 
L 403.012341 -344.450505 
L 399.468609 -345.266042 
L 395.924876 -345.815969 
L 392.381144 -346.630801 
L 388.837411 -347.445406 
L 385.293679 -348.512146 
L 381.749946 -349.342602 
L 378.206214 -350.32002 
L 374.662481 -351.253042 
L 371.118749 -352.399632 
L 367.575017 -353.522092 
L 364.031284 -355.053213 
L 360.487552 -356.698242 
L 356.943819 -358.353366 
L 353.400087 -360.362464 
L 349.856354 -362.457929 
L 346.312622 -364.564207 
L 342.768889 -366.833085 
L 339.225157 -368.050808 
L 335.681425 -370.55718 
L 332.137692 -372.411094 
L 328.59396 -374.273992 
L 325.050227 -376.602299 
L 321.506495 -378.985232 
L 317.962762 -381.114622 
L 314.41903 -383.63069 
L 310.875297 -386.149584 
L 307.331565 -388.665847 
L 303.787832 -391.172548 
L 300.2441 -393.476722 
L 296.700368 -395.977301 
L 293.156635 -398.706516 
L 289.612903 -401.277606 
L 286.06917 -404.066252 
L 282.525438 -406.392321 
L 278.981705 -409.240424 
L 275.437973 -412.288018 
L 271.89424 -414.924767 
L 268.350508 -417.480022 
L 264.806775 -420.058084 
L 261.263043 -422.66286 
L 257.719311 -425.196649 
L 254.175578 -427.487239 
L 250.631846 -429.854916 
L 247.088113 -432.36052 
L 243.544381 -434.819652 
L 240.000648 -437.184795 
L 236.456916 -440.088478 
L 232.913183 -442.99216 
L 229.369451 -445.835591 
L 225.825719 -448.464432 
L 222.281986 -451.049985 
L 218.738254 -453.632868 
L 215.194521 -456.212288 
L 211.650789 -458.717891 
L 208.107056 -461.192933 
L 204.563324 -463.964194 
L 201.019591 -466.716272 
L 197.475859 -469.705187 
L 193.932126 -472.579011 
L 190.388394 -475.365979 
L 186.844662 -478.196129 
L 183.300929 -480.980748 
L 179.757197 -483.898466 
L 176.213464 -486.935828 
L 172.669732 -489.962742 
L 169.125999 -492.69452 
L 165.582267 -495.889562 
L 162.038534 -498.741968 
L 158.494802 -501.520091 
L 154.951069 -504.458108 
L 151.407337 -507.748905 
L 147.863605 -510.605605 
L 144.319872 -513.292779 
L 140.77614 -516.270495 
L 137.232407 -519.117315 
L 133.688675 -521.830152 
L 130.144942 -524.652816 
L 126.60121 -527.556778 
L 123.057477 -530.460741 
L 119.513745 -533.378268 
L 115.970013 -536.284376 
L 112.42628 -539.192237 
L 108.882548 -542.100097 
L 105.338815 -545.011251 
L 101.795083 -547.926289 
L 98.25135 -550.841326 
L 94.707618 -553.756364 
L 91.163885 -556.696932 
L 87.620153 -559.868731 
L 84.07642 -563.037494 
z
" style="stroke: #ffffff; stroke-opacity: 0.15"/>
    </defs>
    <g clip-path="url(#pfeb5120427)">
     <use xlink:href="#m3a148e5b35" x="0" y="623.292" style="fill: #2ca02c; fill-opacity: 0.15; stroke: #ffffff; stroke-opacity: 0.15"/>
    </g>
   </g>
   <g id="line2d_1">
    <path d="M 128.019797 264.561048 
L 131.06064 264.40035 
L 134.101483 264.239653 
L 137.142326 264.078956 
L 140.183169 263.918258 
L 143.224012 263.757561 
L 146.264855 263.596864 
L 149.305698 263.436166 
L 152.346542 263.275469 
L 155.387385 263.114772 
L 158.428228 262.954074 
L 161.469071 262.793377 
L 164.509914 262.63268 
L 167.550757 262.471982 
L 170.5916 262.311285 
L 173.632443 262.150587 
L 176.673286 261.98989 
L 179.71413 261.829193 
L 182.754973 261.668495 
L 185.795816 261.507798 
L 188.836659 261.347101 
L 191.877502 261.186403 
L 194.918345 261.025706 
L 197.959188 260.865009 
L 201.000031 260.704311 
L 204.040874 260.543614 
L 207.081717 260.382917 
L 210.122561 260.222219 
L 213.163404 260.061522 
L 216.204247 259.900825 
L 219.24509 259.740127 
L 222.285933 259.57943 
L 225.326776 259.418733 
L 228.367619 259.258035 
L 231.408462 259.097338 
L 234.449305 258.936641 
L 237.490148 258.775943 
L 240.530992 258.615246 
L 243.571835 258.454549 
L 246.612678 258.293851 
L 249.653521 258.133154 
L 252.694364 257.972457 
L 255.735207 257.811759 
L 258.77605 257.651062 
L 261.816893 257.490365 
L 264.857736 257.329667 
L 267.898579 257.16897 
L 270.939423 257.008273 
L 273.980266 256.847575 
L 277.021109 256.686878 
L 280.061952 256.526181 
L 283.102795 256.365483 
L 286.143638 256.204786 
L 289.184481 256.044089 
L 292.225324 255.883391 
L 295.266167 255.722694 
L 298.30701 255.561997 
L 301.347854 255.401299 
L 304.388697 255.240602 
L 307.42954 255.079905 
L 310.470383 254.919207 
L 313.511226 254.75851 
L 316.552069 254.597813 
L 319.592912 254.437115 
L 322.633755 254.276418 
L 325.674598 254.115721 
L 328.715442 253.955023 
L 331.756285 253.794326 
L 334.797128 253.633629 
L 337.837971 253.472931 
L 340.878814 253.312234 
L 343.919657 253.151537 
L 346.9605 252.990839 
L 350.001343 252.830142 
L 353.042186 252.669445 
L 356.083029 252.508747 
L 359.123873 252.34805 
L 362.164716 252.187353 
L 365.205559 252.026655 
L 368.246402 251.865958 
L 371.287245 251.705261 
L 374.328088 251.544563 
L 377.368931 251.383866 
L 380.409774 251.223169 
L 383.450617 251.062471 
L 386.49146 250.901774 
L 389.532304 250.741076 
L 392.573147 250.580379 
L 395.61399 250.419682 
L 398.654833 250.258984 
L 401.695676 250.098287 
L 404.736519 249.93759 
L 407.777362 249.776892 
L 410.818205 249.616195 
L 413.859048 249.455498 
L 416.899891 249.2948 
L 419.940735 249.134103 
L 422.981578 248.973406 
L 426.022421 248.812708 
L 429.063264 248.652011 
" clip-path="url(#pfeb5120427)" style="fill: none; stroke: #1f77b4; stroke-width: 2.25; stroke-linecap: round"/>
   </g>
   <g id="line2d_2">
    <path d="M 187.696557 199.169471 
L 190.236666 200.223734 
L 192.776775 201.277998 
L 195.316884 202.332261 
L 197.856992 203.386524 
L 200.397101 204.440788 
L 202.93721 205.495051 
L 205.477319 206.549315 
L 208.017428 207.603578 
L 210.557536 208.657841 
L 213.097645 209.712105 
L 215.637754 210.766368 
L 218.177863 211.820632 
L 220.717972 212.874895 
L 223.25808 213.929158 
L 225.798189 214.983422 
L 228.338298 216.037685 
L 230.878407 217.091949 
L 233.418516 218.146212 
L 235.958625 219.200475 
L 238.498733 220.254739 
L 241.038842 221.309002 
L 243.578951 222.363266 
L 246.11906 223.417529 
L 248.659169 224.471792 
L 251.199277 225.526056 
L 253.739386 226.580319 
L 256.279495 227.634583 
L 258.819604 228.688846 
L 261.359713 229.743109 
L 263.899821 230.797373 
L 266.43993 231.851636 
L 268.980039 232.905899 
L 271.520148 233.960163 
L 274.060257 235.014426 
L 276.600366 236.06869 
L 279.140474 237.122953 
L 281.680583 238.177216 
L 284.220692 239.23148 
L 286.760801 240.285743 
L 289.30091 241.340007 
L 291.841018 242.39427 
L 294.381127 243.448533 
L 296.921236 244.502797 
L 299.461345 245.55706 
L 302.001454 246.611324 
L 304.541562 247.665587 
L 307.081671 248.71985 
L 309.62178 249.774114 
L 312.161889 250.828377 
L 314.701998 251.882641 
L 317.242107 252.936904 
L 319.782215 253.991167 
L 322.322324 255.045431 
L 324.862433 256.099694 
L 327.402542 257.153958 
L 329.942651 258.208221 
L 332.482759 259.262484 
L 335.022868 260.316748 
L 337.562977 261.371011 
L 340.103086 262.425275 
L 342.643195 263.479538 
L 345.183303 264.533801 
L 347.723412 265.588065 
L 350.263521 266.642328 
L 352.80363 267.696592 
L 355.343739 268.750855 
L 357.883848 269.805118 
L 360.423956 270.859382 
L 362.964065 271.913645 
L 365.504174 272.967909 
L 368.044283 274.022172 
L 370.584392 275.076435 
L 373.1245 276.130699 
L 375.664609 277.184962 
L 378.204718 278.239226 
L 380.744827 279.293489 
L 383.284936 280.347752 
L 385.825044 281.402016 
L 388.365153 282.456279 
L 390.905262 283.510543 
L 393.445371 284.564806 
L 395.98548 285.619069 
L 398.525589 286.673333 
L 401.065697 287.727596 
L 403.605806 288.78186 
L 406.145915 289.836123 
L 408.686024 290.890386 
L 411.226133 291.94465 
L 413.766241 292.998913 
L 416.30635 294.053177 
L 418.846459 295.10744 
L 421.386568 296.161703 
L 423.926677 297.215967 
L 426.466785 298.27023 
L 429.006894 299.324494 
L 431.547003 300.378757 
L 434.087112 301.43302 
L 436.627221 302.487284 
L 439.16733 303.541547 
" clip-path="url(#pfeb5120427)" style="fill: none; stroke-dasharray: 8.325,3.6; stroke-dashoffset: 0; stroke: #ff7f0e; stroke-width: 2.25"/>
   </g>
   <g id="line2d_3">
    <path d="M 84.07642 145.315644 
L 87.620153 147.161167 
L 91.163885 149.00669 
L 94.707618 150.852213 
L 98.25135 152.697735 
L 101.795083 154.543258 
L 105.338815 156.388781 
L 108.882548 158.234304 
L 112.42628 160.079827 
L 115.970013 161.92535 
L 119.513745 163.770873 
L 123.057477 165.616395 
L 126.60121 167.461918 
L 130.144942 169.307441 
L 133.688675 171.152964 
L 137.232407 172.998487 
L 140.77614 174.84401 
L 144.319872 176.689533 
L 147.863605 178.535055 
L 151.407337 180.380578 
L 154.951069 182.226101 
L 158.494802 184.071624 
L 162.038534 185.917147 
L 165.582267 187.76267 
L 169.125999 189.608192 
L 172.669732 191.453715 
L 176.213464 193.299238 
L 179.757197 195.144761 
L 183.300929 196.990284 
L 186.844662 198.835807 
L 190.388394 200.68133 
L 193.932126 202.526852 
L 197.475859 204.372375 
L 201.019591 206.217898 
L 204.563324 208.063421 
L 208.107056 209.908944 
L 211.650789 211.754467 
L 215.194521 213.599989 
L 218.738254 215.445512 
L 222.281986 217.291035 
L 225.825719 219.136558 
L 229.369451 220.982081 
L 232.913183 222.827604 
L 236.456916 224.673127 
L 240.000648 226.518649 
L 243.544381 228.364172 
L 247.088113 230.209695 
L 250.631846 232.055218 
L 254.175578 233.900741 
L 257.719311 235.746264 
L 261.263043 237.591787 
L 264.806775 239.437309 
L 268.350508 241.282832 
L 271.89424 243.128355 
L 275.437973 244.973878 
L 278.981705 246.819401 
L 282.525438 248.664924 
L 286.06917 250.510446 
L 289.612903 252.355969 
L 293.156635 254.201492 
L 296.700368 256.047015 
L 300.2441 257.892538 
L 303.787832 259.738061 
L 307.331565 261.583584 
L 310.875297 263.429106 
L 314.41903 265.274629 
L 317.962762 267.120152 
L 321.506495 268.965675 
L 325.050227 270.811198 
L 328.59396 272.656721 
L 332.137692 274.502244 
L 335.681425 276.347766 
L 339.225157 278.193289 
L 342.768889 280.038812 
L 346.312622 281.884335 
L 349.856354 283.729858 
L 353.400087 285.575381 
L 356.943819 287.420903 
L 360.487552 289.266426 
L 364.031284 291.111949 
L 367.575017 292.957472 
L 371.118749 294.802995 
L 374.662481 296.648518 
L 378.206214 298.494041 
L 381.749946 300.339563 
L 385.293679 302.185086 
L 388.837411 304.030609 
L 392.381144 305.876132 
L 395.924876 307.721655 
L 399.468609 309.567178 
L 403.012341 311.4127 
L 406.556074 313.258223 
L 410.099806 315.103746 
L 413.643538 316.949269 
L 417.187271 318.794792 
L 420.731003 320.640315 
L 424.274736 322.485838 
L 427.818468 324.33136 
L 431.362201 326.176883 
L 434.905933 328.022406 
" clip-path="url(#pfeb5120427)" style="fill: none; stroke-dasharray: 2.25,3.7125; stroke-dashoffset: 0; stroke: #2ca02c; stroke-width: 2.25"/>
   </g>
   <g id="patch_3">
    <path d="M 66.321875 395.28 
L 66.321875 7.2 
" style="fill: none; stroke: #262626; stroke-width: 0.8; stroke-linejoin: miter; stroke-linecap: square"/>
   </g>
   <g id="patch_4">
    <path d="M 66.321875 395.28 
L 456.921875 395.28 
" style="fill: none; stroke: #262626; stroke-width: 0.8; stroke-linejoin: miter; stroke-linecap: square"/>
   </g>
   <g id="legend_1">
    <g id="line2d_4">
     <path d="M 54.171875 494.952937 
L 84.171875 494.952937 
L 114.171875 494.952937 
" style="fill: none; stroke: #1f77b4; stroke-width: 1.5; stroke-linecap: round"/>
     <defs>
      <path id="mb059b8af6c" d="M -5 5 
L 5 -5 
M -5 -5 
L 5 5 
" style="stroke: #1f77b4"/>
     </defs>
     <g>
      <use xlink:href="#mb059b8af6c" x="84.171875" y="494.952937" style="fill: #1f77b4; stroke: #1f77b4"/>
     </g>
    </g>
    <g id="text_11">
     <!-- $\lambda^{jump}=0.0$, $r=-0.08$, -->
     <g style="fill: #262626" transform="translate(129.171875 505.452937) scale(0.3 -0.3)">
      <defs>
       <path id="DejaVuSans-Oblique-3bb" d="M 2350 4316 
L 3125 0 
L 2516 0 
L 2038 2588 
L 328 0 
L -281 0 
L 1903 3356 
L 1794 3975 
Q 1725 4369 1391 4369 
L 1091 4369 
L 1184 4863 
L 1550 4856 
Q 2253 4847 2350 4316 
z
" transform="scale(0.015625)"/>
       <path id="DejaVuSans-Oblique-6a" d="M 928 3500 
L 1503 3500 
L 813 -63 
L 809 -78 
Q 694 -675 544 -897 
Q 403 -1106 132 -1218 
Q -138 -1331 -506 -1331 
L -722 -1331 
L -628 -844 
L -481 -844 
Q -144 -844 -1 -703 
Q 141 -563 238 -63 
L 928 3500 
z
M 1197 4863 
L 1772 4863 
L 1631 4134 
L 1056 4134 
L 1197 4863 
z
" transform="scale(0.015625)"/>
       <path id="DejaVuSans-Oblique-75" d="M 428 1388 
L 838 3500 
L 1416 3500 
L 1006 1409 
Q 975 1256 961 1147 
Q 947 1038 947 966 
Q 947 700 1109 554 
Q 1272 409 1569 409 
Q 2031 409 2368 721 
Q 2706 1034 2809 1563 
L 3194 3500 
L 3769 3500 
L 3091 0 
L 2516 0 
L 2631 550 
Q 2388 244 2052 76 
Q 1716 -91 1338 -91 
Q 878 -91 622 161 
Q 366 413 366 863 
Q 366 956 381 1097 
Q 397 1238 428 1388 
z
" transform="scale(0.015625)"/>
       <path id="DejaVuSans-Oblique-6d" d="M 5747 2113 
L 5338 0 
L 4763 0 
L 5166 2094 
Q 5191 2228 5203 2325 
Q 5216 2422 5216 2491 
Q 5216 2772 5059 2928 
Q 4903 3084 4622 3084 
Q 4203 3084 3875 2770 
Q 3547 2456 3450 1953 
L 3066 0 
L 2491 0 
L 2900 2094 
Q 2925 2209 2937 2307 
Q 2950 2406 2950 2484 
Q 2950 2769 2794 2926 
Q 2638 3084 2363 3084 
Q 1938 3084 1609 2770 
Q 1281 2456 1184 1953 
L 800 0 
L 225 0 
L 909 3500 
L 1484 3500 
L 1375 2956 
Q 1609 3263 1923 3423 
Q 2238 3584 2597 3584 
Q 2978 3584 3223 3384 
Q 3469 3184 3519 2828 
Q 3781 3197 4126 3390 
Q 4472 3584 4856 3584 
Q 5306 3584 5551 3325 
Q 5797 3066 5797 2591 
Q 5797 2488 5784 2364 
Q 5772 2241 5747 2113 
z
" transform="scale(0.015625)"/>
       <path id="DejaVuSans-Oblique-70" d="M 3175 2156 
Q 3175 2616 2975 2859 
Q 2775 3103 2400 3103 
Q 2144 3103 1911 2972 
Q 1678 2841 1497 2591 
Q 1319 2344 1212 1994 
Q 1106 1644 1106 1300 
Q 1106 863 1306 627 
Q 1506 391 1875 391 
Q 2147 391 2380 519 
Q 2613 647 2778 891 
Q 2956 1147 3065 1494 
Q 3175 1841 3175 2156 
z
M 1394 2969 
Q 1625 3272 1939 3428 
Q 2253 3584 2638 3584 
Q 3175 3584 3472 3232 
Q 3769 2881 3769 2247 
Q 3769 1728 3584 1258 
Q 3400 788 3053 416 
Q 2822 169 2531 39 
Q 2241 -91 1919 -91 
Q 1547 -91 1294 64 
Q 1041 219 916 525 
L 556 -1331 
L -19 -1331 
L 922 3500 
L 1497 3500 
L 1394 2969 
z
" transform="scale(0.015625)"/>
       <path id="DejaVuSans-3d" d="M 678 2906 
L 4684 2906 
L 4684 2381 
L 678 2381 
L 678 2906 
z
M 678 1631 
L 4684 1631 
L 4684 1100 
L 678 1100 
L 678 1631 
z
" transform="scale(0.015625)"/>
       <path id="DejaVuSans-2c" d="M 750 794 
L 1409 794 
L 1409 256 
L 897 -744 
L 494 -744 
L 750 256 
L 750 794 
z
" transform="scale(0.015625)"/>
       <path id="DejaVuSans-Oblique-72" d="M 2853 2969 
Q 2766 3016 2653 3041 
Q 2541 3066 2413 3066 
Q 1953 3066 1609 2717 
Q 1266 2369 1153 1784 
L 800 0 
L 225 0 
L 909 3500 
L 1484 3500 
L 1375 2956 
Q 1603 3259 1920 3421 
Q 2238 3584 2597 3584 
Q 2691 3584 2781 3573 
Q 2872 3563 2963 3538 
L 2853 2969 
z
" transform="scale(0.015625)"/>
       <path id="DejaVuSans-2212" d="M 678 2272 
L 4684 2272 
L 4684 1741 
L 678 1741 
L 678 2272 
z
" transform="scale(0.015625)"/>
      </defs>
      <use xlink:href="#DejaVuSans-Oblique-3bb" transform="translate(0 0.529687)"/>
      <use xlink:href="#DejaVuSans-Oblique-6a" transform="translate(66.627396 38.810937) scale(0.7)"/>
      <use xlink:href="#DejaVuSans-Oblique-75" transform="translate(86.075638 38.810937) scale(0.7)"/>
      <use xlink:href="#DejaVuSans-Oblique-6d" transform="translate(130.440872 38.810937) scale(0.7)"/>
      <use xlink:href="#DejaVuSans-Oblique-70" transform="translate(198.629349 38.810937) scale(0.7)"/>
      <use xlink:href="#DejaVuSans-3d" transform="translate(265.27974 0.529687)"/>
      <use xlink:href="#DejaVuSans-30" transform="translate(368.551224 0.529687)"/>
      <use xlink:href="#DejaVuSans-2e" transform="translate(432.174271 0.529687)"/>
      <use xlink:href="#DejaVuSans-30" transform="translate(463.96138 0.529687)"/>
      <use xlink:href="#DejaVuSans-2c" transform="translate(527.584427 0.529687)"/>
      <use xlink:href="#DejaVuSans-20" transform="translate(559.371536 0.529687)"/>
      <use xlink:href="#DejaVuSans-Oblique-72" transform="translate(591.158646 0.529687)"/>
      <use xlink:href="#DejaVuSans-3d" transform="translate(651.754349 0.529687)"/>
      <use xlink:href="#DejaVuSans-2212" transform="translate(774.508255 0.529687)"/>
      <use xlink:href="#DejaVuSans-30" transform="translate(877.77974 0.529687)"/>
      <use xlink:href="#DejaVuSans-2e" transform="translate(941.402786 0.529687)"/>
      <use xlink:href="#DejaVuSans-30" transform="translate(973.189896 0.529687)"/>
      <use xlink:href="#DejaVuSans-38" transform="translate(1036.812943 0.529687)"/>
      <use xlink:href="#DejaVuSans-2c" transform="translate(1100.43599 0.529687)"/>
     </g>
    </g>
    <g id="line2d_5">
     <path d="M 54.171875 541.152937 
L 84.171875 541.152937 
L 114.171875 541.152937 
" style="fill: none; stroke-dasharray: 5.55,2.4; stroke-dashoffset: 0; stroke: #ff7f0e; stroke-width: 1.5"/>
     <defs>
      <path id="m54152163df" d="M 0 -5 
L -5 5 
L 5 5 
z
" style="stroke: #ff7f0e; stroke-linejoin: miter"/>
     </defs>
     <g>
      <use xlink:href="#m54152163df" x="84.171875" y="541.152937" style="fill: #ff7f0e; stroke: #ff7f0e; stroke-linejoin: miter"/>
     </g>
    </g>
    <g id="text_12">
     <!-- $\lambda^{jump}=0.1$, $r=-0.42$ -->
     <g style="fill: #262626" transform="translate(129.171875 551.652937) scale(0.3 -0.3)">
      <use xlink:href="#DejaVuSans-Oblique-3bb" transform="translate(0 0.529687)"/>
      <use xlink:href="#DejaVuSans-Oblique-6a" transform="translate(66.627396 38.810937) scale(0.7)"/>
      <use xlink:href="#DejaVuSans-Oblique-75" transform="translate(86.075638 38.810937) scale(0.7)"/>
      <use xlink:href="#DejaVuSans-Oblique-6d" transform="translate(130.440872 38.810937) scale(0.7)"/>
      <use xlink:href="#DejaVuSans-Oblique-70" transform="translate(198.629349 38.810937) scale(0.7)"/>
      <use xlink:href="#DejaVuSans-3d" transform="translate(265.27974 0.529687)"/>
      <use xlink:href="#DejaVuSans-30" transform="translate(368.551224 0.529687)"/>
      <use xlink:href="#DejaVuSans-2e" transform="translate(432.174271 0.529687)"/>
      <use xlink:href="#DejaVuSans-31" transform="translate(463.96138 0.529687)"/>
      <use xlink:href="#DejaVuSans-2c" transform="translate(527.584427 0.529687)"/>
      <use xlink:href="#DejaVuSans-20" transform="translate(559.371536 0.529687)"/>
      <use xlink:href="#DejaVuSans-Oblique-72" transform="translate(591.158646 0.529687)"/>
      <use xlink:href="#DejaVuSans-3d" transform="translate(651.754349 0.529687)"/>
      <use xlink:href="#DejaVuSans-2212" transform="translate(774.508255 0.529687)"/>
      <use xlink:href="#DejaVuSans-30" transform="translate(877.77974 0.529687)"/>
      <use xlink:href="#DejaVuSans-2e" transform="translate(941.402786 0.529687)"/>
      <use xlink:href="#DejaVuSans-34" transform="translate(973.189896 0.529687)"/>
      <use xlink:href="#DejaVuSans-32" transform="translate(1036.812943 0.529687)"/>
     </g>
    </g>
    <g id="line2d_6">
     <path d="M 54.171875 587.352937 
L 84.171875 587.352937 
L 114.171875 587.352937 
" style="fill: none; stroke-dasharray: 1.5,2.475; stroke-dashoffset: 0; stroke: #2ca02c; stroke-width: 1.5"/>
     <defs>
      <path id="m1b13758e85" d="M 0 5 
C 1.326016 5 2.597899 4.473168 3.535534 3.535534 
C 4.473168 2.597899 5 1.326016 5 0 
C 5 -1.326016 4.473168 -2.597899 3.535534 -3.535534 
C 2.597899 -4.473168 1.326016 -5 0 -5 
C -1.326016 -5 -2.597899 -4.473168 -3.535534 -3.535534 
C -4.473168 -2.597899 -5 -1.326016 -5 0 
C -5 1.326016 -4.473168 2.597899 -3.535534 3.535534 
C -2.597899 4.473168 -1.326016 5 0 5 
z
" style="stroke: #2ca02c"/>
     </defs>
     <g>
      <use xlink:href="#m1b13758e85" x="84.171875" y="587.352937" style="fill: #2ca02c; stroke: #2ca02c"/>
     </g>
    </g>
    <g id="text_13">
     <!-- $\lambda^{jump}=0.2$, $r=-0.48$ -->
     <g style="fill: #262626" transform="translate(129.171875 597.852937) scale(0.3 -0.3)">
      <use xlink:href="#DejaVuSans-Oblique-3bb" transform="translate(0 0.529687)"/>
      <use xlink:href="#DejaVuSans-Oblique-6a" transform="translate(66.627396 38.810937) scale(0.7)"/>
      <use xlink:href="#DejaVuSans-Oblique-75" transform="translate(86.075638 38.810937) scale(0.7)"/>
      <use xlink:href="#DejaVuSans-Oblique-6d" transform="translate(130.440872 38.810937) scale(0.7)"/>
      <use xlink:href="#DejaVuSans-Oblique-70" transform="translate(198.629349 38.810937) scale(0.7)"/>
      <use xlink:href="#DejaVuSans-3d" transform="translate(265.27974 0.529687)"/>
      <use xlink:href="#DejaVuSans-30" transform="translate(368.551224 0.529687)"/>
      <use xlink:href="#DejaVuSans-2e" transform="translate(432.174271 0.529687)"/>
      <use xlink:href="#DejaVuSans-32" transform="translate(458.46138 0.529687)"/>
      <use xlink:href="#DejaVuSans-2c" transform="translate(522.084427 0.529687)"/>
      <use xlink:href="#DejaVuSans-20" transform="translate(553.871536 0.529687)"/>
      <use xlink:href="#DejaVuSans-Oblique-72" transform="translate(585.658646 0.529687)"/>
      <use xlink:href="#DejaVuSans-3d" transform="translate(646.254349 0.529687)"/>
      <use xlink:href="#DejaVuSans-2212" transform="translate(769.008255 0.529687)"/>
      <use xlink:href="#DejaVuSans-30" transform="translate(872.27974 0.529687)"/>
      <use xlink:href="#DejaVuSans-2e" transform="translate(935.902786 0.529687)"/>
      <use xlink:href="#DejaVuSans-34" transform="translate(967.689896 0.529687)"/>
      <use xlink:href="#DejaVuSans-38" transform="translate(1031.312943 0.529687)"/>
     </g>
    </g>
   </g>
  </g>
 </g>
 <defs>
  <clipPath id="pfeb5120427">
   <rect x="66.321875" y="7.2" width="390.6" height="388.08"/>
  </clipPath>
 </defs>
</svg>
