<?xml version="1.0" encoding="utf-8" standalone="no"?>
<!DOCTYPE svg PUBLIC "-//W3C//DTD SVG 1.1//EN"
  "http://www.w3.org/Graphics/SVG/1.1/DTD/svg11.dtd">
<svg xmlns:xlink="http://www.w3.org/1999/xlink" width="477.687186pt" height="572.76075pt" viewBox="0 0 477.687186 572.76075" xmlns="http://www.w3.org/2000/svg" version="1.1">
 <metadata>
  <rdf:RDF xmlns:dc="http://purl.org/dc/elements/1.1/" xmlns:cc="http://creativecommons.org/ns#" xmlns:rdf="http://www.w3.org/1999/02/22-rdf-syntax-ns#">
   <cc:Work>
    <dc:type rdf:resource="http://purl.org/dc/dcmitype/StillImage"/>
    <dc:date>2024-03-08T14:29:43.081188</dc:date>
    <dc:format>image/svg+xml</dc:format>
    <dc:creator>
     <cc:Agent>
      <dc:title>Matplotlib v3.7.1, https://matplotlib.org/</dc:title>
     </cc:Agent>
    </dc:creator>
   </cc:Work>
  </rdf:RDF>
 </metadata>
 <defs>
  <style type="text/css">*{stroke-linejoin: round; stroke-linecap: butt}</style>
 </defs>
 <g id="figure_1">
  <g id="patch_1">
   <path d="M 0 572.76075 
L 477.687186 572.76075 
L 477.687186 0 
L 0 0 
z
" style="fill: #ffffff"/>
  </g>
  <g id="axes_1">
   <g id="patch_2">
    <path d="M 66.321875 395.28 
L 456.921875 395.28 
L 456.921875 7.2 
L 66.321875 7.2 
z
" style="fill: #ffffff"/>
   </g>
   <g id="matplotlib.axis_1">
    <g id="xtick_1">
     <g id="text_1">
      <!-- 0.0 -->
      <g style="fill: #262626" transform="translate(42.467188 425.075312) scale(0.3 -0.3)">
       <defs>
        <path id="DejaVuSans-30" d="M 2034 4250 
Q 1547 4250 1301 3770 
Q 1056 3291 1056 2328 
Q 1056 1369 1301 889 
Q 1547 409 2034 409 
Q 2525 409 2770 889 
Q 3016 1369 3016 2328 
Q 3016 3291 2770 3770 
Q 2525 4250 2034 4250 
z
M 2034 4750 
Q 2819 4750 3233 4129 
Q 3647 3509 3647 2328 
Q 3647 1150 3233 529 
Q 2819 -91 2034 -91 
Q 1250 -91 836 529 
Q 422 1150 422 2328 
Q 422 3509 836 4129 
Q 1250 4750 2034 4750 
z
" transform="scale(0.015625)"/>
        <path id="DejaVuSans-2e" d="M 684 794 
L 1344 794 
L 1344 0 
L 684 0 
L 684 794 
z
" transform="scale(0.015625)"/>
       </defs>
       <use xlink:href="#DejaVuSans-30"/>
       <use xlink:href="#DejaVuSans-2e" x="63.623047"/>
       <use xlink:href="#DejaVuSans-30" x="95.410156"/>
      </g>
     </g>
    </g>
    <g id="xtick_2">
     <g id="text_2">
      <!-- 0.2 -->
      <g style="fill: #262626" transform="translate(118.529312 425.075312) scale(0.3 -0.3)">
       <defs>
        <path id="DejaVuSans-32" d="M 1228 531 
L 3431 531 
L 3431 0 
L 469 0 
L 469 531 
Q 828 903 1448 1529 
Q 2069 2156 2228 2338 
Q 2531 2678 2651 2914 
Q 2772 3150 2772 3378 
Q 2772 3750 2511 3984 
Q 2250 4219 1831 4219 
Q 1534 4219 1204 4116 
Q 875 4013 500 3803 
L 500 4441 
Q 881 4594 1212 4672 
Q 1544 4750 1819 4750 
Q 2544 4750 2975 4387 
Q 3406 4025 3406 3419 
Q 3406 3131 3298 2873 
Q 3191 2616 2906 2266 
Q 2828 2175 2409 1742 
Q 1991 1309 1228 531 
z
" transform="scale(0.015625)"/>
       </defs>
       <use xlink:href="#DejaVuSans-30"/>
       <use xlink:href="#DejaVuSans-2e" x="63.623047"/>
       <use xlink:href="#DejaVuSans-32" x="95.410156"/>
      </g>
     </g>
    </g>
    <g id="xtick_3">
     <g id="text_3">
      <!-- 0.4 -->
      <g style="fill: #262626" transform="translate(194.591437 425.075312) scale(0.3 -0.3)">
       <defs>
        <path id="DejaVuSans-34" d="M 2419 4116 
L 825 1625 
L 2419 1625 
L 2419 4116 
z
M 2253 4666 
L 3047 4666 
L 3047 1625 
L 3713 1625 
L 3713 1100 
L 3047 1100 
L 3047 0 
L 2419 0 
L 2419 1100 
L 313 1100 
L 313 1709 
L 2253 4666 
z
" transform="scale(0.015625)"/>
       </defs>
       <use xlink:href="#DejaVuSans-30"/>
       <use xlink:href="#DejaVuSans-2e" x="63.623047"/>
       <use xlink:href="#DejaVuSans-34" x="95.410156"/>
      </g>
     </g>
    </g>
    <g id="xtick_4">
     <g id="text_4">
      <!-- 0.6 -->
      <g style="fill: #262626" transform="translate(270.653562 425.075312) scale(0.3 -0.3)">
       <defs>
        <path id="DejaVuSans-36" d="M 2113 2584 
Q 1688 2584 1439 2293 
Q 1191 2003 1191 1497 
Q 1191 994 1439 701 
Q 1688 409 2113 409 
Q 2538 409 2786 701 
Q 3034 994 3034 1497 
Q 3034 2003 2786 2293 
Q 2538 2584 2113 2584 
z
M 3366 4563 
L 3366 3988 
Q 3128 4100 2886 4159 
Q 2644 4219 2406 4219 
Q 1781 4219 1451 3797 
Q 1122 3375 1075 2522 
Q 1259 2794 1537 2939 
Q 1816 3084 2150 3084 
Q 2853 3084 3261 2657 
Q 3669 2231 3669 1497 
Q 3669 778 3244 343 
Q 2819 -91 2113 -91 
Q 1303 -91 875 529 
Q 447 1150 447 2328 
Q 447 3434 972 4092 
Q 1497 4750 2381 4750 
Q 2619 4750 2861 4703 
Q 3103 4656 3366 4563 
z
" transform="scale(0.015625)"/>
       </defs>
       <use xlink:href="#DejaVuSans-30"/>
       <use xlink:href="#DejaVuSans-2e" x="63.623047"/>
       <use xlink:href="#DejaVuSans-36" x="95.410156"/>
      </g>
     </g>
    </g>
    <g id="xtick_5">
     <g id="text_5">
      <!-- 0.8 -->
      <g style="fill: #262626" transform="translate(346.715686 425.075312) scale(0.3 -0.3)">
       <defs>
        <path id="DejaVuSans-38" d="M 2034 2216 
Q 1584 2216 1326 1975 
Q 1069 1734 1069 1313 
Q 1069 891 1326 650 
Q 1584 409 2034 409 
Q 2484 409 2743 651 
Q 3003 894 3003 1313 
Q 3003 1734 2745 1975 
Q 2488 2216 2034 2216 
z
M 1403 2484 
Q 997 2584 770 2862 
Q 544 3141 544 3541 
Q 544 4100 942 4425 
Q 1341 4750 2034 4750 
Q 2731 4750 3128 4425 
Q 3525 4100 3525 3541 
Q 3525 3141 3298 2862 
Q 3072 2584 2669 2484 
Q 3125 2378 3379 2068 
Q 3634 1759 3634 1313 
Q 3634 634 3220 271 
Q 2806 -91 2034 -91 
Q 1263 -91 848 271 
Q 434 634 434 1313 
Q 434 1759 690 2068 
Q 947 2378 1403 2484 
z
M 1172 3481 
Q 1172 3119 1398 2916 
Q 1625 2713 2034 2713 
Q 2441 2713 2670 2916 
Q 2900 3119 2900 3481 
Q 2900 3844 2670 4047 
Q 2441 4250 2034 4250 
Q 1625 4250 1398 4047 
Q 1172 3844 1172 3481 
z
" transform="scale(0.015625)"/>
       </defs>
       <use xlink:href="#DejaVuSans-30"/>
       <use xlink:href="#DejaVuSans-2e" x="63.623047"/>
       <use xlink:href="#DejaVuSans-38" x="95.410156"/>
      </g>
     </g>
    </g>
    <g id="xtick_6">
     <g id="text_6">
      <!-- 1.0 -->
      <g style="fill: #262626" transform="translate(422.777811 425.075312) scale(0.3 -0.3)">
       <defs>
        <path id="DejaVuSans-31" d="M 794 531 
L 1825 531 
L 1825 4091 
L 703 3866 
L 703 4441 
L 1819 4666 
L 2450 4666 
L 2450 531 
L 3481 531 
L 3481 0 
L 794 0 
L 794 531 
z
" transform="scale(0.015625)"/>
       </defs>
       <use xlink:href="#DejaVuSans-31"/>
       <use xlink:href="#DejaVuSans-2e" x="63.623047"/>
       <use xlink:href="#DejaVuSans-30" x="95.410156"/>
      </g>
     </g>
    </g>
    <g id="text_7">
     <!-- F1 score -->
     <g style="fill: #262626" transform="translate(198.385156 458.109687) scale(0.3 -0.3)">
      <defs>
       <path id="DejaVuSans-46" d="M 628 4666 
L 3309 4666 
L 3309 4134 
L 1259 4134 
L 1259 2759 
L 3109 2759 
L 3109 2228 
L 1259 2228 
L 1259 0 
L 628 0 
L 628 4666 
z
" transform="scale(0.015625)"/>
       <path id="DejaVuSans-20" transform="scale(0.015625)"/>
       <path id="DejaVuSans-73" d="M 2834 3397 
L 2834 2853 
Q 2591 2978 2328 3040 
Q 2066 3103 1784 3103 
Q 1356 3103 1142 2972 
Q 928 2841 928 2578 
Q 928 2378 1081 2264 
Q 1234 2150 1697 2047 
L 1894 2003 
Q 2506 1872 2764 1633 
Q 3022 1394 3022 966 
Q 3022 478 2636 193 
Q 2250 -91 1575 -91 
Q 1294 -91 989 -36 
Q 684 19 347 128 
L 347 722 
Q 666 556 975 473 
Q 1284 391 1588 391 
Q 1994 391 2212 530 
Q 2431 669 2431 922 
Q 2431 1156 2273 1281 
Q 2116 1406 1581 1522 
L 1381 1569 
Q 847 1681 609 1914 
Q 372 2147 372 2553 
Q 372 3047 722 3315 
Q 1072 3584 1716 3584 
Q 2034 3584 2315 3537 
Q 2597 3491 2834 3397 
z
" transform="scale(0.015625)"/>
       <path id="DejaVuSans-63" d="M 3122 3366 
L 3122 2828 
Q 2878 2963 2633 3030 
Q 2388 3097 2138 3097 
Q 1578 3097 1268 2742 
Q 959 2388 959 1747 
Q 959 1106 1268 751 
Q 1578 397 2138 397 
Q 2388 397 2633 464 
Q 2878 531 3122 666 
L 3122 134 
Q 2881 22 2623 -34 
Q 2366 -91 2075 -91 
Q 1284 -91 818 406 
Q 353 903 353 1747 
Q 353 2603 823 3093 
Q 1294 3584 2113 3584 
Q 2378 3584 2631 3529 
Q 2884 3475 3122 3366 
z
" transform="scale(0.015625)"/>
       <path id="DejaVuSans-6f" d="M 1959 3097 
Q 1497 3097 1228 2736 
Q 959 2375 959 1747 
Q 959 1119 1226 758 
Q 1494 397 1959 397 
Q 2419 397 2687 759 
Q 2956 1122 2956 1747 
Q 2956 2369 2687 2733 
Q 2419 3097 1959 3097 
z
M 1959 3584 
Q 2709 3584 3137 3096 
Q 3566 2609 3566 1747 
Q 3566 888 3137 398 
Q 2709 -91 1959 -91 
Q 1206 -91 779 398 
Q 353 888 353 1747 
Q 353 2609 779 3096 
Q 1206 3584 1959 3584 
z
" transform="scale(0.015625)"/>
       <path id="DejaVuSans-72" d="M 2631 2963 
Q 2534 3019 2420 3045 
Q 2306 3072 2169 3072 
Q 1681 3072 1420 2755 
Q 1159 2438 1159 1844 
L 1159 0 
L 581 0 
L 581 3500 
L 1159 3500 
L 1159 2956 
Q 1341 3275 1631 3429 
Q 1922 3584 2338 3584 
Q 2397 3584 2469 3576 
Q 2541 3569 2628 3553 
L 2631 2963 
z
" transform="scale(0.015625)"/>
       <path id="DejaVuSans-65" d="M 3597 1894 
L 3597 1613 
L 953 1613 
Q 991 1019 1311 708 
Q 1631 397 2203 397 
Q 2534 397 2845 478 
Q 3156 559 3463 722 
L 3463 178 
Q 3153 47 2828 -22 
Q 2503 -91 2169 -91 
Q 1331 -91 842 396 
Q 353 884 353 1716 
Q 353 2575 817 3079 
Q 1281 3584 2069 3584 
Q 2775 3584 3186 3129 
Q 3597 2675 3597 1894 
z
M 3022 2063 
Q 3016 2534 2758 2815 
Q 2500 3097 2075 3097 
Q 1594 3097 1305 2825 
Q 1016 2553 972 2059 
L 3022 2063 
z
" transform="scale(0.015625)"/>
      </defs>
      <use xlink:href="#DejaVuSans-46"/>
      <use xlink:href="#DejaVuSans-31" x="57.519531"/>
      <use xlink:href="#DejaVuSans-20" x="121.142578"/>
      <use xlink:href="#DejaVuSans-73" x="152.929688"/>
      <use xlink:href="#DejaVuSans-63" x="205.029297"/>
      <use xlink:href="#DejaVuSans-6f" x="260.009766"/>
      <use xlink:href="#DejaVuSans-72" x="321.191406"/>
      <use xlink:href="#DejaVuSans-65" x="360.054688"/>
     </g>
    </g>
   </g>
   <g id="matplotlib.axis_2">
    <g id="ytick_1">
     <g id="text_8">
      <!-- 1 -->
      <g style="fill: #262626" transform="translate(40.234375 378.957656) scale(0.3 -0.3)">
       <use xlink:href="#DejaVuSans-31"/>
      </g>
     </g>
    </g>
    <g id="ytick_2">
     <g id="text_9">
      <!-- 2 -->
      <g style="fill: #262626" transform="translate(40.234375 323.517656) scale(0.3 -0.3)">
       <use xlink:href="#DejaVuSans-32"/>
      </g>
     </g>
    </g>
    <g id="ytick_3">
     <g id="text_10">
      <!-- 3 -->
      <g style="fill: #262626" transform="translate(40.234375 268.077656) scale(0.3 -0.3)">
       <defs>
        <path id="DejaVuSans-33" d="M 2597 2516 
Q 3050 2419 3304 2112 
Q 3559 1806 3559 1356 
Q 3559 666 3084 287 
Q 2609 -91 1734 -91 
Q 1441 -91 1130 -33 
Q 819 25 488 141 
L 488 750 
Q 750 597 1062 519 
Q 1375 441 1716 441 
Q 2309 441 2620 675 
Q 2931 909 2931 1356 
Q 2931 1769 2642 2001 
Q 2353 2234 1838 2234 
L 1294 2234 
L 1294 2753 
L 1863 2753 
Q 2328 2753 2575 2939 
Q 2822 3125 2822 3475 
Q 2822 3834 2567 4026 
Q 2313 4219 1838 4219 
Q 1578 4219 1281 4162 
Q 984 4106 628 3988 
L 628 4550 
Q 988 4650 1302 4700 
Q 1616 4750 1894 4750 
Q 2613 4750 3031 4423 
Q 3450 4097 3450 3541 
Q 3450 3153 3228 2886 
Q 3006 2619 2597 2516 
z
" transform="scale(0.015625)"/>
       </defs>
       <use xlink:href="#DejaVuSans-33"/>
      </g>
     </g>
    </g>
    <g id="ytick_4">
     <g id="text_11">
      <!-- 4 -->
      <g style="fill: #262626" transform="translate(40.234375 212.637656) scale(0.3 -0.3)">
       <use xlink:href="#DejaVuSans-34"/>
      </g>
     </g>
    </g>
    <g id="ytick_5">
     <g id="text_12">
      <!-- 5 -->
      <g style="fill: #262626" transform="translate(40.234375 157.197656) scale(0.3 -0.3)">
       <defs>
        <path id="DejaVuSans-35" d="M 691 4666 
L 3169 4666 
L 3169 4134 
L 1269 4134 
L 1269 2991 
Q 1406 3038 1543 3061 
Q 1681 3084 1819 3084 
Q 2600 3084 3056 2656 
Q 3513 2228 3513 1497 
Q 3513 744 3044 326 
Q 2575 -91 1722 -91 
Q 1428 -91 1123 -41 
Q 819 9 494 109 
L 494 744 
Q 775 591 1075 516 
Q 1375 441 1709 441 
Q 2250 441 2565 725 
Q 2881 1009 2881 1497 
Q 2881 1984 2565 2268 
Q 2250 2553 1709 2553 
Q 1456 2553 1204 2497 
Q 953 2441 691 2322 
L 691 4666 
z
" transform="scale(0.015625)"/>
       </defs>
       <use xlink:href="#DejaVuSans-35"/>
      </g>
     </g>
    </g>
    <g id="ytick_6">
     <g id="text_13">
      <!-- 6 -->
      <g style="fill: #262626" transform="translate(40.234375 101.757656) scale(0.3 -0.3)">
       <use xlink:href="#DejaVuSans-36"/>
      </g>
     </g>
    </g>
    <g id="ytick_7">
     <g id="text_14">
      <!-- 7 -->
      <g style="fill: #262626" transform="translate(40.234375 46.317656) scale(0.3 -0.3)">
       <defs>
        <path id="DejaVuSans-37" d="M 525 4666 
L 3525 4666 
L 3525 4397 
L 1831 0 
L 1172 0 
L 2766 4134 
L 525 4134 
L 525 4666 
z
" transform="scale(0.015625)"/>
       </defs>
       <use xlink:href="#DejaVuSans-37"/>
      </g>
     </g>
    </g>
    <g id="text_15">
     <!-- Image / Audio quality -->
     <g style="fill: #262626" transform="translate(29.995312 361.524375) rotate(-90) scale(0.3 -0.3)">
      <defs>
       <path id="DejaVuSans-49" d="M 628 4666 
L 1259 4666 
L 1259 0 
L 628 0 
L 628 4666 
z
" transform="scale(0.015625)"/>
       <path id="DejaVuSans-6d" d="M 3328 2828 
Q 3544 3216 3844 3400 
Q 4144 3584 4550 3584 
Q 5097 3584 5394 3201 
Q 5691 2819 5691 2113 
L 5691 0 
L 5113 0 
L 5113 2094 
Q 5113 2597 4934 2840 
Q 4756 3084 4391 3084 
Q 3944 3084 3684 2787 
Q 3425 2491 3425 1978 
L 3425 0 
L 2847 0 
L 2847 2094 
Q 2847 2600 2669 2842 
Q 2491 3084 2119 3084 
Q 1678 3084 1418 2786 
Q 1159 2488 1159 1978 
L 1159 0 
L 581 0 
L 581 3500 
L 1159 3500 
L 1159 2956 
Q 1356 3278 1631 3431 
Q 1906 3584 2284 3584 
Q 2666 3584 2933 3390 
Q 3200 3197 3328 2828 
z
" transform="scale(0.015625)"/>
       <path id="DejaVuSans-61" d="M 2194 1759 
Q 1497 1759 1228 1600 
Q 959 1441 959 1056 
Q 959 750 1161 570 
Q 1363 391 1709 391 
Q 2188 391 2477 730 
Q 2766 1069 2766 1631 
L 2766 1759 
L 2194 1759 
z
M 3341 1997 
L 3341 0 
L 2766 0 
L 2766 531 
Q 2569 213 2275 61 
Q 1981 -91 1556 -91 
Q 1019 -91 701 211 
Q 384 513 384 1019 
Q 384 1609 779 1909 
Q 1175 2209 1959 2209 
L 2766 2209 
L 2766 2266 
Q 2766 2663 2505 2880 
Q 2244 3097 1772 3097 
Q 1472 3097 1187 3025 
Q 903 2953 641 2809 
L 641 3341 
Q 956 3463 1253 3523 
Q 1550 3584 1831 3584 
Q 2591 3584 2966 3190 
Q 3341 2797 3341 1997 
z
" transform="scale(0.015625)"/>
       <path id="DejaVuSans-67" d="M 2906 1791 
Q 2906 2416 2648 2759 
Q 2391 3103 1925 3103 
Q 1463 3103 1205 2759 
Q 947 2416 947 1791 
Q 947 1169 1205 825 
Q 1463 481 1925 481 
Q 2391 481 2648 825 
Q 2906 1169 2906 1791 
z
M 3481 434 
Q 3481 -459 3084 -895 
Q 2688 -1331 1869 -1331 
Q 1566 -1331 1297 -1286 
Q 1028 -1241 775 -1147 
L 775 -588 
Q 1028 -725 1275 -790 
Q 1522 -856 1778 -856 
Q 2344 -856 2625 -561 
Q 2906 -266 2906 331 
L 2906 616 
Q 2728 306 2450 153 
Q 2172 0 1784 0 
Q 1141 0 747 490 
Q 353 981 353 1791 
Q 353 2603 747 3093 
Q 1141 3584 1784 3584 
Q 2172 3584 2450 3431 
Q 2728 3278 2906 2969 
L 2906 3500 
L 3481 3500 
L 3481 434 
z
" transform="scale(0.015625)"/>
       <path id="DejaVuSans-2f" d="M 1625 4666 
L 2156 4666 
L 531 -594 
L 0 -594 
L 1625 4666 
z
" transform="scale(0.015625)"/>
       <path id="DejaVuSans-41" d="M 2188 4044 
L 1331 1722 
L 3047 1722 
L 2188 4044 
z
M 1831 4666 
L 2547 4666 
L 4325 0 
L 3669 0 
L 3244 1197 
L 1141 1197 
L 716 0 
L 50 0 
L 1831 4666 
z
" transform="scale(0.015625)"/>
       <path id="DejaVuSans-75" d="M 544 1381 
L 544 3500 
L 1119 3500 
L 1119 1403 
Q 1119 906 1312 657 
Q 1506 409 1894 409 
Q 2359 409 2629 706 
Q 2900 1003 2900 1516 
L 2900 3500 
L 3475 3500 
L 3475 0 
L 2900 0 
L 2900 538 
Q 2691 219 2414 64 
Q 2138 -91 1772 -91 
Q 1169 -91 856 284 
Q 544 659 544 1381 
z
M 1991 3584 
L 1991 3584 
z
" transform="scale(0.015625)"/>
       <path id="DejaVuSans-64" d="M 2906 2969 
L 2906 4863 
L 3481 4863 
L 3481 0 
L 2906 0 
L 2906 525 
Q 2725 213 2448 61 
Q 2172 -91 1784 -91 
Q 1150 -91 751 415 
Q 353 922 353 1747 
Q 353 2572 751 3078 
Q 1150 3584 1784 3584 
Q 2172 3584 2448 3432 
Q 2725 3281 2906 2969 
z
M 947 1747 
Q 947 1113 1208 752 
Q 1469 391 1925 391 
Q 2381 391 2643 752 
Q 2906 1113 2906 1747 
Q 2906 2381 2643 2742 
Q 2381 3103 1925 3103 
Q 1469 3103 1208 2742 
Q 947 2381 947 1747 
z
" transform="scale(0.015625)"/>
       <path id="DejaVuSans-69" d="M 603 3500 
L 1178 3500 
L 1178 0 
L 603 0 
L 603 3500 
z
M 603 4863 
L 1178 4863 
L 1178 4134 
L 603 4134 
L 603 4863 
z
" transform="scale(0.015625)"/>
       <path id="DejaVuSans-71" d="M 947 1747 
Q 947 1113 1208 752 
Q 1469 391 1925 391 
Q 2381 391 2643 752 
Q 2906 1113 2906 1747 
Q 2906 2381 2643 2742 
Q 2381 3103 1925 3103 
Q 1469 3103 1208 2742 
Q 947 2381 947 1747 
z
M 2906 525 
Q 2725 213 2448 61 
Q 2172 -91 1784 -91 
Q 1150 -91 751 415 
Q 353 922 353 1747 
Q 353 2572 751 3078 
Q 1150 3584 1784 3584 
Q 2172 3584 2448 3432 
Q 2725 3281 2906 2969 
L 2906 3500 
L 3481 3500 
L 3481 -1331 
L 2906 -1331 
L 2906 525 
z
" transform="scale(0.015625)"/>
       <path id="DejaVuSans-6c" d="M 603 4863 
L 1178 4863 
L 1178 0 
L 603 0 
L 603 4863 
z
" transform="scale(0.015625)"/>
       <path id="DejaVuSans-74" d="M 1172 4494 
L 1172 3500 
L 2356 3500 
L 2356 3053 
L 1172 3053 
L 1172 1153 
Q 1172 725 1289 603 
Q 1406 481 1766 481 
L 2356 481 
L 2356 0 
L 1766 0 
Q 1100 0 847 248 
Q 594 497 594 1153 
L 594 3053 
L 172 3053 
L 172 3500 
L 594 3500 
L 594 4494 
L 1172 4494 
z
" transform="scale(0.015625)"/>
       <path id="DejaVuSans-79" d="M 2059 -325 
Q 1816 -950 1584 -1140 
Q 1353 -1331 966 -1331 
L 506 -1331 
L 506 -850 
L 844 -850 
Q 1081 -850 1212 -737 
Q 1344 -625 1503 -206 
L 1606 56 
L 191 3500 
L 800 3500 
L 1894 763 
L 2988 3500 
L 3597 3500 
L 2059 -325 
z
" transform="scale(0.015625)"/>
      </defs>
      <use xlink:href="#DejaVuSans-49"/>
      <use xlink:href="#DejaVuSans-6d" x="29.492188"/>
      <use xlink:href="#DejaVuSans-61" x="126.904297"/>
      <use xlink:href="#DejaVuSans-67" x="188.183594"/>
      <use xlink:href="#DejaVuSans-65" x="251.660156"/>
      <use xlink:href="#DejaVuSans-20" x="313.183594"/>
      <use xlink:href="#DejaVuSans-2f" x="344.970703"/>
      <use xlink:href="#DejaVuSans-20" x="378.662109"/>
      <use xlink:href="#DejaVuSans-41" x="410.449219"/>
      <use xlink:href="#DejaVuSans-75" x="478.857422"/>
      <use xlink:href="#DejaVuSans-64" x="542.236328"/>
      <use xlink:href="#DejaVuSans-69" x="605.712891"/>
      <use xlink:href="#DejaVuSans-6f" x="633.496094"/>
      <use xlink:href="#DejaVuSans-20" x="694.677734"/>
      <use xlink:href="#DejaVuSans-71" x="726.464844"/>
      <use xlink:href="#DejaVuSans-75" x="789.941406"/>
      <use xlink:href="#DejaVuSans-61" x="853.320312"/>
      <use xlink:href="#DejaVuSans-6c" x="914.599609"/>
      <use xlink:href="#DejaVuSans-69" x="942.382812"/>
      <use xlink:href="#DejaVuSans-74" x="970.166016"/>
      <use xlink:href="#DejaVuSans-79" x="1009.375"/>
     </g>
    </g>
   </g>
   <g id="PathCollection_1">
    <defs>
     <path id="ma00132f336" d="M 0 -4.472136 
L -4.472136 4.472136 
L 4.472136 4.472136 
z
" style="stroke: #1f77b4; stroke-opacity: 0.8"/>
    </defs>
    <g clip-path="url(#pac3e11a306)">
     <use xlink:href="#ma00132f336" x="374.825598" y="90.36" style="fill: #1f77b4; fill-opacity: 0.8; stroke: #1f77b4; stroke-opacity: 0.8"/>
     <use xlink:href="#ma00132f336" x="315.606217" y="145.8" style="fill: #1f77b4; fill-opacity: 0.8; stroke: #1f77b4; stroke-opacity: 0.8"/>
     <use xlink:href="#ma00132f336" x="432.37085" y="34.92" style="fill: #1f77b4; fill-opacity: 0.8; stroke: #1f77b4; stroke-opacity: 0.8"/>
     <use xlink:href="#ma00132f336" x="381.979693" y="145.8" style="fill: #1f77b4; fill-opacity: 0.8; stroke: #1f77b4; stroke-opacity: 0.8"/>
     <use xlink:href="#ma00132f336" x="342.911419" y="256.68" style="fill: #1f77b4; fill-opacity: 0.8; stroke: #1f77b4; stroke-opacity: 0.8"/>
     <use xlink:href="#ma00132f336" x="444.614936" y="145.8" style="fill: #1f77b4; fill-opacity: 0.8; stroke: #1f77b4; stroke-opacity: 0.8"/>
     <use xlink:href="#ma00132f336" x="369.823621" y="90.36" style="fill: #1f77b4; fill-opacity: 0.8; stroke: #1f77b4; stroke-opacity: 0.8"/>
     <use xlink:href="#ma00132f336" x="252.850246" y="201.24" style="fill: #1f77b4; fill-opacity: 0.8; stroke: #1f77b4; stroke-opacity: 0.8"/>
     <use xlink:href="#ma00132f336" x="420.222039" y="90.36" style="fill: #1f77b4; fill-opacity: 0.8; stroke: #1f77b4; stroke-opacity: 0.8"/>
     <use xlink:href="#ma00132f336" x="212.811893" y="312.12" style="fill: #1f77b4; fill-opacity: 0.8; stroke: #1f77b4; stroke-opacity: 0.8"/>
     <use xlink:href="#ma00132f336" x="278.46465" y="201.24" style="fill: #1f77b4; fill-opacity: 0.8; stroke: #1f77b4; stroke-opacity: 0.8"/>
     <use xlink:href="#ma00132f336" x="311.41798" y="256.68" style="fill: #1f77b4; fill-opacity: 0.8; stroke: #1f77b4; stroke-opacity: 0.8"/>
     <use xlink:href="#ma00132f336" x="265.099981" y="312.12" style="fill: #1f77b4; fill-opacity: 0.8; stroke: #1f77b4; stroke-opacity: 0.8"/>
     <use xlink:href="#ma00132f336" x="403.168427" y="145.8" style="fill: #1f77b4; fill-opacity: 0.8; stroke: #1f77b4; stroke-opacity: 0.8"/>
     <use xlink:href="#ma00132f336" x="198.476146" y="256.68" style="fill: #1f77b4; fill-opacity: 0.8; stroke: #1f77b4; stroke-opacity: 0.8"/>
    </g>
   </g>
   <g id="PolyCollection_1">
    <defs>
     <path id="maae7553962" d="M 198.476146 -323.904123 
L 198.476146 -213.731338 
L 200.962396 -216.210707 
L 203.448647 -218.997528 
L 205.934897 -221.853599 
L 208.421147 -224.72765 
L 210.907398 -227.85675 
L 213.393648 -230.700507 
L 215.879899 -233.393294 
L 218.366149 -236.314917 
L 220.852399 -239.432613 
L 223.33865 -242.55031 
L 225.8249 -245.538146 
L 228.311151 -248.404331 
L 230.797401 -251.274707 
L 233.283651 -254.145648 
L 235.769902 -257.016588 
L 238.256152 -259.887529 
L 240.742403 -262.919623 
L 243.228653 -265.972742 
L 245.714903 -269.028091 
L 248.201154 -272.083441 
L 250.687404 -275.138791 
L 253.173655 -278.19414 
L 255.659905 -281.24949 
L 258.146155 -283.817409 
L 260.632406 -286.834883 
L 263.118656 -289.858091 
L 265.604907 -292.881298 
L 268.091157 -295.904506 
L 270.577407 -298.927713 
L 273.063658 -301.950921 
L 275.549908 -304.974262 
L 278.036159 -308.19811 
L 280.522409 -311.1843 
L 283.008659 -314.425627 
L 285.49491 -317.572567 
L 287.98116 -320.285676 
L 290.467411 -323.178408 
L 292.953661 -326.119537 
L 295.439911 -328.910609 
L 297.926162 -331.442083 
L 300.412412 -333.973556 
L 302.898663 -336.296881 
L 305.384913 -338.94271 
L 307.871163 -341.565516 
L 310.357414 -344.282832 
L 312.843664 -346.605924 
L 315.329915 -348.738343 
L 317.816165 -351.345011 
L 320.302415 -353.577689 
L 322.788666 -355.630467 
L 325.274916 -357.639675 
L 327.761167 -360.207958 
L 330.247417 -362.595236 
L 332.733667 -364.486694 
L 335.219918 -366.314341 
L 337.706168 -368.877115 
L 340.192419 -371.324425 
L 342.678669 -373.432927 
L 345.164919 -375.714598 
L 347.65117 -377.755932 
L 350.13742 -380.363863 
L 352.623671 -382.108267 
L 355.109921 -383.727406 
L 357.596171 -385.214865 
L 360.082422 -386.765503 
L 362.568672 -388.702692 
L 365.054923 -390.566741 
L 367.541173 -392.462992 
L 370.027423 -394.376261 
L 372.513674 -396.278574 
L 374.999924 -398.169405 
L 377.486175 -400.074887 
L 379.972425 -401.982343 
L 382.458675 -403.705059 
L 384.944926 -405.040547 
L 387.431176 -406.749162 
L 389.917427 -408.294456 
L 392.403677 -410.009942 
L 394.889927 -411.300191 
L 397.376178 -412.453935 
L 399.862428 -413.879067 
L 402.348679 -415.729914 
L 404.834929 -417.150092 
L 407.321179 -418.574117 
L 409.80743 -419.999784 
L 412.29368 -421.597178 
L 414.779931 -423.236465 
L 417.266181 -424.875751 
L 419.752431 -426.515037 
L 422.238682 -427.810514 
L 424.724932 -428.744039 
L 427.211183 -429.984141 
L 429.697433 -431.781703 
L 432.183684 -433.579266 
L 434.669934 -435.046041 
L 437.156184 -436.402819 
L 439.642435 -437.767653 
L 442.128685 -439.171033 
L 444.614936 -440.96861 
L 444.614936 -536.041653 
L 444.614936 -536.041653 
L 442.128685 -533.246884 
L 439.642435 -530.202541 
L 437.156184 -527.37682 
L 434.669934 -524.384753 
L 432.183684 -521.27905 
L 429.697433 -518.338124 
L 427.211183 -515.423448 
L 424.724932 -512.767555 
L 422.238682 -509.652005 
L 419.752431 -506.406304 
L 417.266181 -503.694559 
L 414.779931 -501.322342 
L 412.29368 -498.426183 
L 409.80743 -495.525184 
L 407.321179 -492.754913 
L 404.834929 -490.276636 
L 402.348679 -487.627378 
L 399.862428 -484.901232 
L 397.376178 -482.343573 
L 394.889927 -479.846053 
L 392.403677 -477.325314 
L 389.917427 -474.220559 
L 387.431176 -471.014434 
L 384.944926 -468.180293 
L 382.458675 -465.719026 
L 379.972425 -463.321382 
L 377.486175 -460.923685 
L 374.999924 -458.28655 
L 372.513674 -456.123564 
L 370.027423 -453.355322 
L 367.541173 -450.152968 
L 365.054923 -448.199803 
L 362.568672 -445.81021 
L 360.082422 -443.541168 
L 357.596171 -441.357358 
L 355.109921 -439.167433 
L 352.623671 -436.382096 
L 350.13742 -433.70192 
L 347.65117 -430.989771 
L 345.164919 -428.793422 
L 342.678669 -426.898832 
L 340.192419 -424.940084 
L 337.706168 -422.72089 
L 335.219918 -420.154547 
L 332.733667 -418.010579 
L 330.247417 -415.9941 
L 327.761167 -413.647017 
L 325.274916 -411.341752 
L 322.788666 -409.390085 
L 320.302415 -407.388022 
L 317.816165 -405.638124 
L 315.329915 -403.738037 
L 312.843664 -401.619742 
L 310.357414 -399.745272 
L 307.871163 -397.78142 
L 305.384913 -396.149372 
L 302.898663 -394.134287 
L 300.412412 -391.738414 
L 297.926162 -390.02897 
L 295.439911 -388.202192 
L 292.953661 -386.633256 
L 290.467411 -384.462912 
L 287.98116 -383.042702 
L 285.49491 -381.869413 
L 283.008659 -380.011512 
L 280.522409 -378.142675 
L 278.036159 -376.148065 
L 275.549908 -374.520811 
L 273.063658 -372.726199 
L 270.577407 -370.69161 
L 268.091157 -368.765092 
L 265.604907 -366.950821 
L 263.118656 -365.271351 
L 260.632406 -363.230185 
L 258.146155 -361.374444 
L 255.659905 -359.633436 
L 253.173655 -358.128012 
L 250.687404 -356.61524 
L 248.201154 -355.114361 
L 245.714903 -353.6182 
L 243.228653 -352.124015 
L 240.742403 -350.629829 
L 238.256152 -349.135644 
L 235.769902 -347.641459 
L 233.283651 -346.10118 
L 230.797401 -344.185472 
L 228.311151 -342.44312 
L 225.8249 -340.88562 
L 223.33865 -339.32812 
L 220.852399 -338.103057 
L 218.366149 -337.045829 
L 215.879899 -335.67167 
L 213.393648 -334.169254 
L 210.907398 -332.443199 
L 208.421147 -330.700275 
L 205.934897 -328.957352 
L 203.448647 -327.214429 
L 200.962396 -325.46927 
L 198.476146 -323.904123 
z
" style="stroke: #ffffff; stroke-opacity: 0.15"/>
    </defs>
    <g clip-path="url(#pac3e11a306)">
     <use xlink:href="#maae7553962" x="0" y="572.76075" style="fill: #1f77b4; fill-opacity: 0.15; stroke: #ffffff; stroke-opacity: 0.15"/>
    </g>
   </g>
   <g id="PathCollection_2">
    <defs>
     <path id="ma4f4b95964" d="M -4.472136 4.472136 
L 4.472136 -4.472136 
M -4.472136 -4.472136 
L 4.472136 4.472136 
" style="stroke: #ff7f0e; stroke-opacity: 0.8; stroke-width: 1.5"/>
    </defs>
    <g clip-path="url(#pac3e11a306)">
     <use xlink:href="#ma4f4b95964" x="374.825598" y="201.24" style="fill: #ff7f0e; fill-opacity: 0.8; stroke: #ff7f0e; stroke-opacity: 0.8; stroke-width: 1.5"/>
     <use xlink:href="#ma4f4b95964" x="315.606217" y="256.68" style="fill: #ff7f0e; fill-opacity: 0.8; stroke: #ff7f0e; stroke-opacity: 0.8; stroke-width: 1.5"/>
     <use xlink:href="#ma4f4b95964" x="432.37085" y="34.92" style="fill: #ff7f0e; fill-opacity: 0.8; stroke: #ff7f0e; stroke-opacity: 0.8; stroke-width: 1.5"/>
     <use xlink:href="#ma4f4b95964" x="381.979693" y="145.8" style="fill: #ff7f0e; fill-opacity: 0.8; stroke: #ff7f0e; stroke-opacity: 0.8; stroke-width: 1.5"/>
     <use xlink:href="#ma4f4b95964" x="342.911419" y="201.24" style="fill: #ff7f0e; fill-opacity: 0.8; stroke: #ff7f0e; stroke-opacity: 0.8; stroke-width: 1.5"/>
     <use xlink:href="#ma4f4b95964" x="444.614936" y="90.36" style="fill: #ff7f0e; fill-opacity: 0.8; stroke: #ff7f0e; stroke-opacity: 0.8; stroke-width: 1.5"/>
     <use xlink:href="#ma4f4b95964" x="369.823621" y="145.8" style="fill: #ff7f0e; fill-opacity: 0.8; stroke: #ff7f0e; stroke-opacity: 0.8; stroke-width: 1.5"/>
     <use xlink:href="#ma4f4b95964" x="252.850246" y="256.68" style="fill: #ff7f0e; fill-opacity: 0.8; stroke: #ff7f0e; stroke-opacity: 0.8; stroke-width: 1.5"/>
     <use xlink:href="#ma4f4b95964" x="420.222039" y="90.36" style="fill: #ff7f0e; fill-opacity: 0.8; stroke: #ff7f0e; stroke-opacity: 0.8; stroke-width: 1.5"/>
     <use xlink:href="#ma4f4b95964" x="212.811893" y="201.24" style="fill: #ff7f0e; fill-opacity: 0.8; stroke: #ff7f0e; stroke-opacity: 0.8; stroke-width: 1.5"/>
     <use xlink:href="#ma4f4b95964" x="278.46465" y="145.8" style="fill: #ff7f0e; fill-opacity: 0.8; stroke: #ff7f0e; stroke-opacity: 0.8; stroke-width: 1.5"/>
     <use xlink:href="#ma4f4b95964" x="311.41798" y="201.24" style="fill: #ff7f0e; fill-opacity: 0.8; stroke: #ff7f0e; stroke-opacity: 0.8; stroke-width: 1.5"/>
     <use xlink:href="#ma4f4b95964" x="265.099981" y="201.24" style="fill: #ff7f0e; fill-opacity: 0.8; stroke: #ff7f0e; stroke-opacity: 0.8; stroke-width: 1.5"/>
     <use xlink:href="#ma4f4b95964" x="403.168427" y="145.8" style="fill: #ff7f0e; fill-opacity: 0.8; stroke: #ff7f0e; stroke-opacity: 0.8; stroke-width: 1.5"/>
     <use xlink:href="#ma4f4b95964" x="198.476146" y="145.8" style="fill: #ff7f0e; fill-opacity: 0.8; stroke: #ff7f0e; stroke-opacity: 0.8; stroke-width: 1.5"/>
    </g>
   </g>
   <g id="PolyCollection_2">
    <defs>
     <path id="m639647711b" d="M 198.476146 -387.609491 
L 198.476146 -266.891441 
L 200.962396 -269.15676 
L 203.448647 -271.42208 
L 205.934897 -273.6874 
L 208.421147 -275.952719 
L 210.907398 -278.218039 
L 213.393648 -280.483359 
L 215.879899 -282.748678 
L 218.366149 -285.023001 
L 220.852399 -287.317678 
L 223.33865 -289.612354 
L 225.8249 -291.853687 
L 228.311151 -294.063536 
L 230.797401 -296.318483 
L 233.283651 -298.57343 
L 235.769902 -300.75093 
L 238.256152 -302.919925 
L 240.742403 -305.08892 
L 243.228653 -307.257915 
L 245.714903 -309.375936 
L 248.201154 -311.456553 
L 250.687404 -313.749242 
L 253.173655 -315.906212 
L 255.659905 -318.065891 
L 258.146155 -320.232582 
L 260.632406 -322.399273 
L 263.118656 -324.565965 
L 265.604907 -326.732656 
L 268.091157 -328.899347 
L 270.577407 -331.129589 
L 273.063658 -333.44507 
L 275.549908 -335.760551 
L 278.036159 -338.076033 
L 280.522409 -340.07755 
L 283.008659 -341.876983 
L 285.49491 -344.0812 
L 287.98116 -346.333324 
L 290.467411 -348.575613 
L 292.953661 -350.575288 
L 295.439911 -352.689117 
L 297.926162 -354.852789 
L 300.412412 -357.006305 
L 302.898663 -359.164898 
L 305.384913 -361.330627 
L 307.871163 -363.497218 
L 310.357414 -365.1745 
L 312.843664 -366.566111 
L 315.329915 -367.64456 
L 317.816165 -368.607903 
L 320.302415 -370.054103 
L 322.788666 -372.35293 
L 325.274916 -374.181389 
L 327.761167 -375.62274 
L 330.247417 -376.631836 
L 332.733667 -377.77829 
L 335.219918 -379.513099 
L 337.706168 -381.133519 
L 340.192419 -382.736113 
L 342.678669 -384.041407 
L 345.164919 -385.35175 
L 347.65117 -386.364985 
L 350.13742 -387.384993 
L 352.623671 -388.70019 
L 355.109921 -389.717921 
L 357.596171 -390.411274 
L 360.082422 -390.979148 
L 362.568672 -391.672594 
L 365.054923 -392.369298 
L 367.541173 -392.76628 
L 370.027423 -392.911834 
L 372.513674 -393.091786 
L 374.999924 -393.954547 
L 377.486175 -394.319883 
L 379.972425 -394.610452 
L 382.458675 -395.011994 
L 384.944926 -395.862687 
L 387.431176 -397.005872 
L 389.917427 -398.317956 
L 392.403677 -398.877298 
L 394.889927 -399.418052 
L 397.376178 -400.124922 
L 399.862428 -400.701208 
L 402.348679 -401.424293 
L 404.834929 -401.610467 
L 407.321179 -402.078075 
L 409.80743 -402.60195 
L 412.29368 -403.125825 
L 414.779931 -403.651706 
L 417.266181 -404.179174 
L 419.752431 -404.706643 
L 422.238682 -405.234111 
L 424.724932 -405.761579 
L 427.211183 -406.289048 
L 429.697433 -406.816516 
L 432.183684 -407.281585 
L 434.669934 -407.598188 
L 437.156184 -407.897756 
L 439.642435 -408.146446 
L 442.128685 -408.395136 
L 444.614936 -408.643826 
L 444.614936 -500.322806 
L 444.614936 -500.322806 
L 442.128685 -498.301767 
L 439.642435 -496.220575 
L 437.156184 -493.993289 
L 434.669934 -491.453531 
L 432.183684 -489.626821 
L 429.697433 -487.637247 
L 427.211183 -485.685568 
L 424.724932 -483.774278 
L 422.238682 -482.177322 
L 419.752431 -480.60961 
L 417.266181 -478.984965 
L 414.779931 -477.546698 
L 412.29368 -476.102166 
L 409.80743 -474.478651 
L 407.321179 -472.85113 
L 404.834929 -471.165345 
L 402.348679 -469.400433 
L 399.862428 -467.811591 
L 397.376178 -466.358162 
L 394.889927 -464.737562 
L 392.403677 -463.110498 
L 389.917427 -461.33034 
L 387.431176 -459.879001 
L 384.944926 -458.242237 
L 382.458675 -456.718581 
L 379.972425 -455.351553 
L 377.486175 -453.871096 
L 374.999924 -452.792835 
L 372.513674 -451.513803 
L 370.027423 -450.282484 
L 367.541173 -448.936156 
L 365.054923 -447.287207 
L 362.568672 -445.795508 
L 360.082422 -444.720146 
L 357.596171 -443.287651 
L 355.109921 -442.153154 
L 352.623671 -440.989493 
L 350.13742 -439.839799 
L 347.65117 -438.595256 
L 345.164919 -437.297869 
L 342.678669 -435.99969 
L 340.192419 -434.892274 
L 337.706168 -434.015497 
L 335.219918 -432.913983 
L 332.733667 -431.797462 
L 330.247417 -430.701274 
L 327.761167 -429.603427 
L 325.274916 -428.850856 
L 322.788666 -427.811975 
L 320.302415 -426.774269 
L 317.816165 -425.715796 
L 315.329915 -425.161108 
L 312.843664 -424.382199 
L 310.357414 -423.406689 
L 307.871163 -422.341539 
L 305.384913 -421.274341 
L 302.898663 -420.298953 
L 300.412412 -419.456676 
L 297.926162 -418.600282 
L 295.439911 -417.755818 
L 292.953661 -417.023277 
L 290.467411 -416.06689 
L 287.98116 -415.221084 
L 285.49491 -414.451271 
L 283.008659 -413.54837 
L 280.522409 -412.681695 
L 278.036159 -411.771086 
L 275.549908 -410.86224 
L 273.063658 -410.022313 
L 270.577407 -409.039291 
L 268.091157 -408.290222 
L 265.604907 -407.362506 
L 263.118656 -406.845868 
L 260.632406 -405.922034 
L 258.146155 -405.062635 
L 255.659905 -404.231416 
L 253.173655 -403.45718 
L 250.687404 -402.540837 
L 248.201154 -401.790388 
L 245.714903 -401.18993 
L 243.228653 -400.446189 
L 240.742403 -399.693561 
L 238.256152 -398.939782 
L 235.769902 -398.184512 
L 233.283651 -397.378404 
L 230.797401 -396.53534 
L 228.311151 -395.810426 
L 225.8249 -394.940233 
L 223.33865 -394.177579 
L 220.852399 -393.591136 
L 218.366149 -392.785731 
L 215.879899 -392.058624 
L 213.393648 -391.358128 
L 210.907398 -390.817088 
L 208.421147 -390.341222 
L 205.934897 -389.690914 
L 203.448647 -388.658456 
L 200.962396 -387.869887 
L 198.476146 -387.609491 
z
" style="stroke: #ffffff; stroke-opacity: 0.15"/>
    </defs>
    <g clip-path="url(#pac3e11a306)">
     <use xlink:href="#m639647711b" x="0" y="572.76075" style="fill: #ff7f0e; fill-opacity: 0.15; stroke: #ffffff; stroke-opacity: 0.15"/>
    </g>
   </g>
   <g id="line2d_1">
    <path d="M 198.476146 295.315017 
L 200.962396 293.176702 
L 203.448647 291.038387 
L 205.934897 288.900072 
L 208.421147 286.761756 
L 210.907398 284.623441 
L 213.393648 282.485126 
L 215.879899 280.346811 
L 218.366149 278.208496 
L 220.852399 276.070181 
L 223.33865 273.931866 
L 225.8249 271.793551 
L 228.311151 269.655236 
L 230.797401 267.516921 
L 233.283651 265.378606 
L 235.769902 263.240291 
L 238.256152 261.101975 
L 240.742403 258.96366 
L 243.228653 256.825345 
L 245.714903 254.68703 
L 248.201154 252.548715 
L 250.687404 250.4104 
L 253.173655 248.272085 
L 255.659905 246.13377 
L 258.146155 243.995455 
L 260.632406 241.85714 
L 263.118656 239.718825 
L 265.604907 237.58051 
L 268.091157 235.442194 
L 270.577407 233.303879 
L 273.063658 231.165564 
L 275.549908 229.027249 
L 278.036159 226.888934 
L 280.522409 224.750619 
L 283.008659 222.612304 
L 285.49491 220.473989 
L 287.98116 218.335674 
L 290.467411 216.197359 
L 292.953661 214.059044 
L 295.439911 211.920729 
L 297.926162 209.782413 
L 300.412412 207.644098 
L 302.898663 205.505783 
L 305.384913 203.367468 
L 307.871163 201.229153 
L 310.357414 199.090838 
L 312.843664 196.952523 
L 315.329915 194.814208 
L 317.816165 192.675893 
L 320.302415 190.537578 
L 322.788666 188.399263 
L 325.274916 186.260948 
L 327.761167 184.122632 
L 330.247417 181.984317 
L 332.733667 179.846002 
L 335.219918 177.707687 
L 337.706168 175.569372 
L 340.192419 173.431057 
L 342.678669 171.292742 
L 345.164919 169.154427 
L 347.65117 167.016112 
L 350.13742 164.877797 
L 352.623671 162.739482 
L 355.109921 160.601167 
L 357.596171 158.462851 
L 360.082422 156.324536 
L 362.568672 154.186221 
L 365.054923 152.047906 
L 367.541173 149.909591 
L 370.027423 147.771276 
L 372.513674 145.632961 
L 374.999924 143.494646 
L 377.486175 141.356331 
L 379.972425 139.218016 
L 382.458675 137.079701 
L 384.944926 134.941386 
L 387.431176 132.80307 
L 389.917427 130.664755 
L 392.403677 128.52644 
L 394.889927 126.388125 
L 397.376178 124.24981 
L 399.862428 122.111495 
L 402.348679 119.97318 
L 404.834929 117.834865 
L 407.321179 115.69655 
L 409.80743 113.558235 
L 412.29368 111.41992 
L 414.779931 109.281604 
L 417.266181 107.143289 
L 419.752431 105.004974 
L 422.238682 102.866659 
L 424.724932 100.728344 
L 427.211183 98.590029 
L 429.697433 96.451714 
L 432.183684 94.313399 
L 434.669934 92.175084 
L 437.156184 90.036769 
L 439.642435 87.898454 
L 442.128685 85.760139 
L 444.614936 83.621823 
" clip-path="url(#pac3e11a306)" style="fill: none; stroke: #1f77b4; stroke-width: 2.25; stroke-linecap: round"/>
   </g>
   <g id="line2d_2">
    <path d="M 198.476146 228.632766 
L 200.962396 227.449065 
L 203.448647 226.265363 
L 205.934897 225.081662 
L 208.421147 223.897961 
L 210.907398 222.714259 
L 213.393648 221.530558 
L 215.879899 220.346856 
L 218.366149 219.163155 
L 220.852399 217.979454 
L 223.33865 216.795752 
L 225.8249 215.612051 
L 228.311151 214.428349 
L 230.797401 213.244648 
L 233.283651 212.060947 
L 235.769902 210.877245 
L 238.256152 209.693544 
L 240.742403 208.509843 
L 243.228653 207.326141 
L 245.714903 206.14244 
L 248.201154 204.958738 
L 250.687404 203.775037 
L 253.173655 202.591336 
L 255.659905 201.407634 
L 258.146155 200.223933 
L 260.632406 199.040231 
L 263.118656 197.85653 
L 265.604907 196.672829 
L 268.091157 195.489127 
L 270.577407 194.305426 
L 273.063658 193.121724 
L 275.549908 191.938023 
L 278.036159 190.754322 
L 280.522409 189.57062 
L 283.008659 188.386919 
L 285.49491 187.203217 
L 287.98116 186.019516 
L 290.467411 184.835815 
L 292.953661 183.652113 
L 295.439911 182.468412 
L 297.926162 181.28471 
L 300.412412 180.101009 
L 302.898663 178.917308 
L 305.384913 177.733606 
L 307.871163 176.549905 
L 310.357414 175.366203 
L 312.843664 174.182502 
L 315.329915 172.998801 
L 317.816165 171.815099 
L 320.302415 170.631398 
L 322.788666 169.447696 
L 325.274916 168.263995 
L 327.761167 167.080294 
L 330.247417 165.896592 
L 332.733667 164.712891 
L 335.219918 163.52919 
L 337.706168 162.345488 
L 340.192419 161.161787 
L 342.678669 159.978085 
L 345.164919 158.794384 
L 347.65117 157.610683 
L 350.13742 156.426981 
L 352.623671 155.24328 
L 355.109921 154.059578 
L 357.596171 152.875877 
L 360.082422 151.692176 
L 362.568672 150.508474 
L 365.054923 149.324773 
L 367.541173 148.141071 
L 370.027423 146.95737 
L 372.513674 145.773669 
L 374.999924 144.589967 
L 377.486175 143.406266 
L 379.972425 142.222564 
L 382.458675 141.038863 
L 384.944926 139.855162 
L 387.431176 138.67146 
L 389.917427 137.487759 
L 392.403677 136.304057 
L 394.889927 135.120356 
L 397.376178 133.936655 
L 399.862428 132.752953 
L 402.348679 131.569252 
L 404.834929 130.38555 
L 407.321179 129.201849 
L 409.80743 128.018148 
L 412.29368 126.834446 
L 414.779931 125.650745 
L 417.266181 124.467044 
L 419.752431 123.283342 
L 422.238682 122.099641 
L 424.724932 120.915939 
L 427.211183 119.732238 
L 429.697433 118.548537 
L 432.183684 117.364835 
L 434.669934 116.181134 
L 437.156184 114.997432 
L 439.642435 113.813731 
L 442.128685 112.63003 
L 444.614936 111.446328 
" clip-path="url(#pac3e11a306)" style="fill: none; stroke-dasharray: 8.325,3.6; stroke-dashoffset: 0; stroke: #ff7f0e; stroke-width: 2.25"/>
   </g>
   <g id="patch_3">
    <path d="M 66.321875 395.28 
L 66.321875 7.2 
" style="fill: none; stroke: #262626; stroke-width: 0.8; stroke-linejoin: miter; stroke-linecap: square"/>
   </g>
   <g id="patch_4">
    <path d="M 66.321875 395.28 
L 456.921875 395.28 
" style="fill: none; stroke: #262626; stroke-width: 0.8; stroke-linejoin: miter; stroke-linecap: square"/>
   </g>
   <g id="legend_1">
    <g id="line2d_3">
     <path d="M 115.472656 492.787312 
L 145.472656 492.787312 
L 175.472656 492.787312 
" style="fill: none; stroke: #1f77b4; stroke-width: 1.5; stroke-linecap: round"/>
     <defs>
      <path id="md04e8874b6" d="M 0 -5 
L -5 5 
L 5 5 
z
" style="stroke: #1f77b4; stroke-linejoin: miter"/>
     </defs>
     <g>
      <use xlink:href="#md04e8874b6" x="145.472656" y="492.787312" style="fill: #1f77b4; stroke: #1f77b4; stroke-linejoin: miter"/>
     </g>
    </g>
    <g id="text_16">
     <!-- Image, r=0.78 -->
     <g style="fill: #262626" transform="translate(190.472656 503.287312) scale(0.3 -0.3)">
      <defs>
       <path id="DejaVuSans-2c" d="M 750 794 
L 1409 794 
L 1409 256 
L 897 -744 
L 494 -744 
L 750 256 
L 750 794 
z
" transform="scale(0.015625)"/>
       <path id="DejaVuSans-3d" d="M 678 2906 
L 4684 2906 
L 4684 2381 
L 678 2381 
L 678 2906 
z
M 678 1631 
L 4684 1631 
L 4684 1100 
L 678 1100 
L 678 1631 
z
" transform="scale(0.015625)"/>
      </defs>
      <use xlink:href="#DejaVuSans-49"/>
      <use xlink:href="#DejaVuSans-6d" x="29.492188"/>
      <use xlink:href="#DejaVuSans-61" x="126.904297"/>
      <use xlink:href="#DejaVuSans-67" x="188.183594"/>
      <use xlink:href="#DejaVuSans-65" x="251.660156"/>
      <use xlink:href="#DejaVuSans-2c" x="313.183594"/>
      <use xlink:href="#DejaVuSans-20" x="344.970703"/>
      <use xlink:href="#DejaVuSans-72" x="376.757812"/>
      <use xlink:href="#DejaVuSans-3d" x="417.871094"/>
      <use xlink:href="#DejaVuSans-30" x="501.660156"/>
      <use xlink:href="#DejaVuSans-2e" x="565.283203"/>
      <use xlink:href="#DejaVuSans-37" x="597.070312"/>
      <use xlink:href="#DejaVuSans-38" x="660.693359"/>
     </g>
    </g>
    <g id="line2d_4">
     <path d="M 115.472656 536.821687 
L 145.472656 536.821687 
L 175.472656 536.821687 
" style="fill: none; stroke-dasharray: 5.55,2.4; stroke-dashoffset: 0; stroke: #ff7f0e; stroke-width: 1.5"/>
     <defs>
      <path id="m9e2ebe9688" d="M -5 5 
L 5 -5 
M -5 -5 
L 5 5 
" style="stroke: #ff7f0e"/>
     </defs>
     <g>
      <use xlink:href="#m9e2ebe9688" x="145.472656" y="536.821687" style="fill: #ff7f0e; stroke: #ff7f0e"/>
     </g>
    </g>
    <g id="text_17">
     <!-- Audio, r=0.64 -->
     <g style="fill: #262626" transform="translate(190.472656 547.321687) scale(0.3 -0.3)">
      <use xlink:href="#DejaVuSans-41"/>
      <use xlink:href="#DejaVuSans-75" x="68.408203"/>
      <use xlink:href="#DejaVuSans-64" x="131.787109"/>
      <use xlink:href="#DejaVuSans-69" x="195.263672"/>
      <use xlink:href="#DejaVuSans-6f" x="223.046875"/>
      <use xlink:href="#DejaVuSans-2c" x="284.228516"/>
      <use xlink:href="#DejaVuSans-20" x="316.015625"/>
      <use xlink:href="#DejaVuSans-72" x="347.802734"/>
      <use xlink:href="#DejaVuSans-3d" x="388.916016"/>
      <use xlink:href="#DejaVuSans-30" x="472.705078"/>
      <use xlink:href="#DejaVuSans-2e" x="536.328125"/>
      <use xlink:href="#DejaVuSans-36" x="568.115234"/>
      <use xlink:href="#DejaVuSans-34" x="631.738281"/>
     </g>
    </g>
   </g>
  </g>
 </g>
 <defs>
  <clipPath id="pac3e11a306">
   <rect x="66.321875" y="7.2" width="390.6" height="388.08"/>
  </clipPath>
 </defs>
</svg>
