<?xml version="1.0" encoding="UTF-8" standalone="no"?>
<svg
   xmlns:dc="http://purl.org/dc/elements/1.1/"
   xmlns:cc="http://creativecommons.org/ns#"
   xmlns:rdf="http://www.w3.org/1999/02/22-rdf-syntax-ns#"
   xmlns:svg="http://www.w3.org/2000/svg"
   xmlns="http://www.w3.org/2000/svg"
   xmlns:sodipodi="http://sodipodi.sourceforge.net/DTD/sodipodi-0.dtd"
   xmlns:inkscape="http://www.inkscape.org/namespaces/inkscape"
   viewBox="0 0 898.604 455.13733"
   height="455.13733"
   width="898.604"
   xml:space="preserve"
   id="svg2"
   version="1.1"
   inkscape:version="0.91 r13725"
   sodipodi:docname="graphik_final.svg"><sodipodi:namedview
     pagecolor="#ffffff"
     bordercolor="#666666"
     borderopacity="1"
     objecttolerance="10"
     gridtolerance="10"
     guidetolerance="10"
     inkscape:pageopacity="0"
     inkscape:pageshadow="2"
     inkscape:window-width="1280"
     inkscape:window-height="649"
     id="namedview3867"
     showgrid="false"
     inkscape:zoom="0.32494847"
     inkscape:cx="449.302"
     inkscape:cy="227.56866"
     inkscape:window-x="-8"
     inkscape:window-y="-8"
     inkscape:window-maximized="1"
     inkscape:current-layer="svg2" /><metadata
     id="metadata8"><rdf:RDF><cc:Work
         rdf:about=""><dc:format>image/svg+xml</dc:format><dc:type
           rdf:resource="http://purl.org/dc/dcmitype/StillImage" /></cc:Work></rdf:RDF></metadata><defs
     id="defs6" /><g
     inkscape:groupmode="layer"
     id="layer1"
     inkscape:label="Layer 1"><rect
       style="fill:#ffffff"
       id="rect3869"
       width="910.91364"
       height="461.61163"
       x="-3.0774109"
       y="-0.31949478" /></g><g
     transform="matrix(1.2146346,0,0,-1.143973,43.076575,433.58923)"
     id="g10"><g
       transform="translate(39.69,298.634)"
       id="g12"><g
         id="g14"><g
           id="g16"><g
             id="g18"><g
               id="g20"><path
                 id="path22"
                 style="fill:#99ff99;fill-opacity:1;fill-rule:nonzero;stroke:#000000;stroke-width:0.3985;stroke-linecap:butt;stroke-linejoin:miter;stroke-miterlimit:10;stroke-dasharray:none;stroke-opacity:1"
                 d="m 31.4484,14.17339 -62.8968,0 c -2.20094,0 -3.9851,-1.78417 -3.9851,-3.98511 l 0,-20.37656 c 0,-2.20094 1.78416,-3.98511 3.9851,-3.98511 l 62.8968,0 c 2.20094,0 3.9851,1.78417 3.9851,3.98511 l 0,20.37656 c 0,2.20094 -1.78416,3.98511 -3.9851,3.98511 z"
                 inkscape:connector-curvature="0" /></g><g
               transform="translate(-28.546,-3.459)"
               id="g24"><g
                 id="g26"><g
                   transform="translate(-11.144,-295.175)"
                   id="g28"><text
   id="text32"
   style="font-variant:normal;font-weight:normal;font-size:9.96259975px;font-family:CMR10;-inkscape-font-specification:CMR10;writing-mode:lr-tb;fill:#000000;fill-opacity:1;fill-rule:nonzero;stroke:none"
   transform="matrix(1,0,0,-1,11.144,295.175)"><tspan
     id="tspan30"
     y="0"
     x="0 7.4719501 10.23956 15.774781 20.20216 28.501005 31.545576 35.447926 40.429226 48.73106 53.15844">Videoframes</tspan></text>

<g
   transform="translate(11.144,295.175)"
   id="g34" /></g></g><g
                 transform="translate(28.546,3.459)"
                 id="g36" /></g></g><g
             id="g38"><g
               id="g40"><path
                 id="path42"
                 style="fill:#99ff99;fill-opacity:1;fill-rule:nonzero;stroke:#000000;stroke-width:0.3985;stroke-linecap:butt;stroke-linejoin:miter;stroke-miterlimit:10;stroke-dasharray:none;stroke-opacity:1"
                 d="m 228.46161,42.5202 -131.95087,0 c -2.20094,0 -3.98511,-1.78416 -3.98511,-3.9851 l 0,-20.37659 c 0,-2.20094 1.78417,-3.98511 3.98511,-3.98511 l 131.95087,0 c 2.20094,0 3.98511,1.78417 3.98511,3.98511 l 0,20.37659 c 0,2.20094 -1.78417,3.9851 -3.98511,3.9851 z"
                 inkscape:connector-curvature="0" /></g><g
               transform="translate(95.845,25.856)"
               id="g44"><g
                 id="g46"><g
                   transform="translate(-135.535,-324.49)"
                   id="g48"><text
   id="text52"
   style="font-variant:normal;font-weight:normal;font-size:9.96259975px;font-family:CMR10;-inkscape-font-specification:CMR10;writing-mode:lr-tb;fill:#000000;fill-opacity:1;fill-rule:nonzero;stroke:none"
   transform="matrix(1,0,0,-1,135.535,324.49)"><tspan
     id="tspan50"
     y="0"
     x="0 3.5974948 11.899329 16.880629 21.861929 29.606855 32.651424 37.078804 42.060104 45.934559 51.46978 55.372131 59.799511 67.056267 72.037567 78.399681 83.657944 86.425552 91.960777 96.388153 104.687 107.73158 111.63392 116.61522 124.91705 129.34444">Imagefeaturesofvideoframes</tspan></text>

<g
   transform="translate(135.535,324.49)"
   id="g54" /></g></g><g
                 transform="translate(-95.845,-25.856)"
                 id="g56" /></g></g><g
             id="g58"><g
               id="g60"><path
                 id="path62"
                 style="fill:#99ff99;fill-opacity:1;fill-rule:nonzero;stroke:#000000;stroke-width:0.3985;stroke-linecap:butt;stroke-linejoin:miter;stroke-miterlimit:10;stroke-dasharray:none;stroke-opacity:1"
                 d="m 225.27904,-14.57191 -125.58574,0 c -2.20094,0 -3.98511,-1.78417 -3.98511,-3.98511 l 0,-20.37658 c 0,-2.20094 1.78417,-3.9851 3.98511,-3.9851 l 125.58574,0 c 2.20094,0 3.9851,1.78416 3.9851,3.9851 l 0,20.37658 c 0,2.20094 -1.78416,3.98511 -3.9851,3.98511 z"
                 inkscape:connector-curvature="0" /></g><g
               transform="translate(99.027,-32.204)"
               id="g64"><g
                 id="g66"><g
                   transform="translate(-138.717,-266.43)"
                   id="g68"><text
   id="text72"
   style="font-variant:normal;font-weight:normal;font-size:9.96259975px;font-family:CMR10;-inkscape-font-specification:CMR10;writing-mode:lr-tb;fill:#000000;fill-opacity:1;fill-rule:nonzero;stroke:none"
   transform="matrix(1,0,0,-1,138.717,266.43)"><tspan
     id="tspan70"
     y="0"
     x="0 6.368094 10.795473 16.053734 23.245735 26.290306 30.717684 35.698986 39.573441 45.108662 49.011009 53.438389 60.685184 65.666489 72.038567 77.296822 80.064438 85.599655 90.027039 98.325882 101.37045 105.2728 110.2541 118.55594 122.98331">Textfeaturesofvideoframes</tspan></text>

<g
   transform="translate(138.717,266.43)"
   id="g74" /></g></g><g
                 transform="translate(-99.027,32.204)"
                 id="g76" /></g></g><g
             id="g78"><g
               id="g80"><path
                 id="path82"
                 style="fill:#ffcc99;fill-opacity:1;fill-rule:nonzero;stroke:#000000;stroke-width:0.3985;stroke-linecap:butt;stroke-linejoin:miter;stroke-miterlimit:10;stroke-dasharray:none;stroke-opacity:1"
                 d="m 31.4484,-127.95917 -62.8968,0 c -2.20094,0 -3.9851,-1.78416 -3.9851,-3.9851 l 0,-20.37658 c 0,-2.20094 1.78416,-3.9851 3.9851,-3.9851 l 62.8968,0 c 2.20094,0 3.9851,1.78416 3.9851,3.9851 l 0,20.37658 c 0,2.20094 -1.78416,3.9851 -3.9851,3.9851 z"
                 inkscape:connector-curvature="0" /></g><g
               transform="translate(-23.786,-145.59)"
               id="g84"><g
                 id="g86"><g
                   transform="translate(-15.904,-153.044)"
                   id="g88"><text
   id="text92"
   style="font-variant:normal;font-weight:normal;font-size:9.96259975px;font-family:CMR10;-inkscape-font-specification:CMR10;writing-mode:lr-tb;fill:#000000;fill-opacity:1;fill-rule:nonzero;stroke:none"
   transform="matrix(1,0,0,-1,15.904,153.044)"><tspan
     id="tspan90"
     y="0"
     x="0 6.7805457 14.390976 24.212107 28.141356 30.908966 33.676579 39.211796 43.639175">PDFslides</tspan></text>

<g
   transform="translate(15.904,153.044)"
   id="g94" /></g></g><g
                 transform="translate(23.786,145.59)"
                 id="g96" /></g></g><g
             id="g98"><g
               id="g100"><path
                 id="path102"
                 style="fill:#ffcc99;fill-opacity:1;fill-rule:nonzero;stroke:#000000;stroke-width:0.3985;stroke-linecap:butt;stroke-linejoin:miter;stroke-miterlimit:10;stroke-dasharray:none;stroke-opacity:1"
                 d="m 221.15553,-99.61235 -124.64479,0 c -2.20094,0 -3.98511,-1.78416 -3.98511,-3.98511 l 0,-20.37658 c 0,-2.20095 1.78417,-3.98511 3.98511,-3.98511 l 124.64479,0 c 2.20095,0 3.98511,1.78416 3.98511,3.98511 l 0,20.37658 c 0,2.20095 -1.78416,3.98511 -3.98511,3.98511 z"
                 inkscape:connector-curvature="0" /></g><g
               transform="translate(95.845,-116.275)"
               id="g104"><g
                 id="g106"><g
                   transform="translate(-135.535,-182.359)"
                   id="g108"><text
   id="text112"
   style="font-variant:normal;font-weight:normal;font-size:9.96259975px;font-family:CMR10;-inkscape-font-specification:CMR10;writing-mode:lr-tb;fill:#000000;fill-opacity:1;fill-rule:nonzero;stroke:none"
   transform="matrix(1,0,0,-1,135.535,182.359)"><tspan
     id="tspan110"
     y="0"
     x="0 3.5974948 11.899329 16.880629 21.861929 29.606855 32.651424 37.078804 42.060104 45.934559 51.46978 55.372131 59.799511 67.056267 72.037567 78.399681 85.180229 92.790657 102.61179 106.54104 109.30865 112.07626 117.61148 122.03886">ImagefeaturesofPDFslides</tspan></text>

<g
   transform="translate(135.535,182.359)"
   id="g114" /></g></g><g
                 transform="translate(-95.845,116.275)"
                 id="g116" /></g></g><g
             id="g118"><g
               id="g120"><path
                 id="path122"
                 style="fill:#ffcc99;fill-opacity:1;fill-rule:nonzero;stroke:#000000;stroke-width:0.3985;stroke-linecap:butt;stroke-linejoin:miter;stroke-miterlimit:10;stroke-dasharray:none;stroke-opacity:1"
                 d="m 217.97296,-156.70448 -118.27966,0 c -2.20094,0 -3.98511,-1.78417 -3.98511,-3.98511 l 0,-20.37657 c 0,-2.20094 1.78417,-3.98511 3.98511,-3.98511 l 118.27966,0 c 2.20094,0 3.98511,1.78417 3.98511,3.98511 l 0,20.37657 c 0,2.20094 -1.78417,3.98511 -3.98511,3.98511 z"
                 inkscape:connector-curvature="0" /></g><g
               transform="translate(99.027,-174.335)"
               id="g124"><g
                 id="g126"><g
                   transform="translate(-138.717,-124.299)"
                   id="g128"><text
   id="text132"
   style="font-variant:normal;font-weight:normal;font-size:9.96259975px;font-family:CMR10;-inkscape-font-specification:CMR10;writing-mode:lr-tb;fill:#000000;fill-opacity:1;fill-rule:nonzero;stroke:none"
   transform="matrix(1,0,0,-1,138.717,124.299)"><tspan
     id="tspan130"
     y="0"
     x="0 6.368094 10.795473 16.053734 23.245735 26.290306 30.717684 35.698986 39.573441 45.108662 49.011009 53.438389 60.685184 65.666489 72.038567 78.819107 86.429543 96.250671 100.17992 102.94753 105.71514 111.25036 115.67774">TextfeaturesofPDFslides</tspan></text>

<g
   transform="translate(138.717,124.299)"
   id="g134" /></g></g><g
                 transform="translate(-99.027,174.335)"
                 id="g136" /></g></g><g
             id="g138"><g
               id="g140"><path
                 id="path142"
                 style="fill:#ffcc99;fill-opacity:1;fill-rule:nonzero;stroke:#000000;stroke-width:0.3985;stroke-linecap:butt;stroke-linejoin:miter;stroke-miterlimit:10;stroke-dasharray:none;stroke-opacity:1"
                 d="m 35.50592,-270.09174 -71.01184,0 c -2.20094,0 -3.98511,-1.78416 -3.98511,-3.9851 l 0,-20.37657 c 0,-2.20095 1.78417,-3.98511 3.98511,-3.98511 l 71.01184,0 c 2.20094,0 3.98511,1.78416 3.98511,3.98511 l 0,20.37657 c 0,2.20094 -1.78417,3.9851 -3.98511,3.9851 z"
                 inkscape:connector-curvature="0" /></g><g
               transform="translate(-36.17,-286.752)"
               id="g144"><g
                 id="g146"><g
                   transform="translate(-3.52,-11.882)"
                   id="g148"><text
   id="text152"
   style="font-variant:normal;font-weight:normal;font-size:9.96259975px;font-family:CMR10;-inkscape-font-specification:CMR10;writing-mode:lr-tb;fill:#000000;fill-opacity:1;fill-rule:nonzero;stroke:none"
   transform="matrix(1,0,0,-1,3.52,11.882)"><tspan
     id="tspan150"
     y="0"
     x="0 7.4719501 13.007171 18.542391 21.310001 29.608847 33.483303 37.385654 42.366951 47.902172 51.831421 56.258801 60.161152 62.928764 68.463982">Audiotranscript</tspan></text>

<g
   transform="translate(3.52,11.882)"
   id="g154" /></g></g><g
                 transform="translate(36.17,286.752)"
                 id="g156" /></g></g><g
             id="g158"><g
               id="g160"><path
                 id="path162"
                 style="fill:#ffcc99;fill-opacity:1;fill-rule:nonzero;stroke:#000000;stroke-width:0.3985;stroke-linecap:butt;stroke-linejoin:miter;stroke-miterlimit:10;stroke-dasharray:none;stroke-opacity:1"
                 d="m 191.81189,-270.09174 -62.89681,0 c -2.20094,0 -3.9851,-1.78416 -3.9851,-3.9851 l 0,-20.37657 c 0,-2.20095 1.78416,-3.98511 3.9851,-3.98511 l 62.89681,0 c 2.20094,0 3.98511,1.78416 3.98511,3.98511 l 0,20.37657 c 0,2.20094 -1.78417,3.9851 -3.98511,3.9851 z"
                 inkscape:connector-curvature="0" /></g><g
               transform="translate(128.495,-287.721)"
               id="g164"><g
                 id="g166"><g
                   transform="translate(-168.185,-10.913)"
                   id="g168"><text
   id="text172"
   style="font-variant:normal;font-weight:normal;font-size:9.96259975px;font-family:CMR10;-inkscape-font-specification:CMR10;writing-mode:lr-tb;fill:#000000;fill-opacity:1;fill-rule:nonzero;stroke:none"
   transform="matrix(1,0,0,-1,168.185,10.913)"><tspan
     id="tspan170"
     y="0"
     x="0 7.4719501 13.007171 18.542391 21.310001 29.608847 32.653419 37.080799 42.062096 45.936554 51.471771 55.374123 59.801502">Audiofeatures</tspan></text>

<g
   transform="translate(168.185,10.913)"
   id="g174" /></g></g><g
                 transform="translate(-128.495,287.721)"
                 id="g176" /></g></g><g
             id="g178"><g
               id="g180"><path
                 id="path182"
                 style="fill:#9999ff;fill-opacity:1;fill-rule:nonzero;stroke:#000000;stroke-width:0.3985;stroke-linecap:butt;stroke-linejoin:miter;stroke-miterlimit:10;stroke-dasharray:none;stroke-opacity:1"
                 d="m 473.16612,-14.17342 -151.29535,0 c -2.20094,0 -3.9851,-1.78416 -3.9851,-3.9851 l 0,-20.37659 c 0,-2.20094 1.78416,-3.98511 3.9851,-3.98511 l 151.29535,0 c 2.20093,0 3.98511,1.78417 3.98511,3.98511 l 0,20.37659 c 0,2.20094 -1.78418,3.9851 -3.98511,3.9851 z"
                 inkscape:connector-curvature="0" /></g><g
               transform="translate(321.202,-30.837)"
               id="g184"><g
                 id="g186"><g
                   transform="translate(-360.892,-267.797)"
                   id="g188"><text
   id="text192"
   style="font-variant:normal;font-weight:normal;font-size:9.96259975px;font-family:CMR10;-inkscape-font-specification:CMR10;writing-mode:lr-tb;fill:#000000;fill-opacity:1;fill-rule:nonzero;stroke:none"
   transform="matrix(1,0,0,-1,360.892,267.797)"><tspan
     id="tspan190"
     y="0"
     x="0 5.5352206 8.3028307 16.604666 19.372276 22.139887 27.121185 31.023537 33.791145 37.38665 45.962456 54.26429 59.24559 63.120045 67.022392 69.790009 78.375771 83.357071 89.719193 92.486801 100.78864 105.76994 110.75124 118.49616 121.54073 125.96811 130.94942 134.82387 140.35909 144.26144 148.68881">Similaritymatrixofimagefeatures</tspan></text>

<g
   transform="translate(360.892,267.797)"
   id="g194" /></g></g><g
                 transform="translate(-321.202,30.837)"
                 id="g196" /></g></g><g
             id="g198"><g
               id="g200"><path
                 id="path202"
                 style="fill:#9999ff;fill-opacity:1;fill-rule:nonzero;stroke:#000000;stroke-width:0.3985;stroke-linecap:butt;stroke-linejoin:miter;stroke-miterlimit:10;stroke-dasharray:none;stroke-opacity:1"
                 d="m 469.15332,-99.61237 -143.26976,0 c -2.20094,0 -3.98511,-1.78416 -3.98511,-3.9851 l 0,-20.37659 c 0,-2.20094 1.78417,-3.98511 3.98511,-3.98511 l 143.26976,0 c 2.20094,0 3.98511,1.78417 3.98511,3.98511 l 0,20.37659 c 0,2.20094 -1.78417,3.9851 -3.98511,3.9851 z"
                 inkscape:connector-curvature="0" /></g><g
               transform="translate(325.215,-116.275)"
               id="g204"><g
                 id="g206"><g
                   transform="translate(-364.905,-182.359)"
                   id="g208"><text
   id="text212"
   style="font-variant:normal;font-weight:normal;font-size:9.96259975px;font-family:CMR10;-inkscape-font-specification:CMR10;writing-mode:lr-tb;fill:#000000;fill-opacity:1;fill-rule:nonzero;stroke:none"
   transform="matrix(1,0,0,-1,364.905,182.359)"><tspan
     id="tspan210"
     y="0"
     x="0 5.5352206 8.3028307 16.604666 19.372276 22.139887 27.121185 31.023537 33.791145 37.38665 45.962456 54.26429 59.24559 63.120045 67.022392 69.790009 78.375771 83.357071 89.719193 93.593643 98.021027 103.27928 110.47128 113.51585 117.94324 122.92454 126.79899 132.33421 136.23656 140.66394">Similaritymatrixoftextfeatures</tspan></text>

<g
   transform="translate(364.905,182.359)"
   id="g214" /></g></g><g
                 transform="translate(-325.215,116.275)"
                 id="g216" /></g></g><g
             id="g218"><g
               id="g220"><path
                 id="path222"
                 style="fill:#9999ff;fill-opacity:1;fill-rule:nonzero;stroke:#000000;stroke-width:0.3985;stroke-linecap:butt;stroke-linejoin:miter;stroke-miterlimit:10;stroke-dasharray:none;stroke-opacity:1"
                 d="m 474.57748,-185.05132 -154.11808,0 c -2.20095,0 -3.98511,-1.78416 -3.98511,-3.9851 l 0,-20.37659 c 0,-2.20094 1.78416,-3.98511 3.98511,-3.98511 l 154.11808,0 c 2.20095,0 3.98511,1.78417 3.98511,3.98511 l 0,20.37659 c 0,2.20094 -1.78416,3.9851 -3.98511,3.9851 z"
                 inkscape:connector-curvature="0" /></g><g
               transform="translate(319.791,-201.713)"
               id="g224"><g
                 id="g226"><g
                   transform="translate(-359.481,-96.921)"
                   id="g228"><text
   id="text232"
   style="font-variant:normal;font-weight:normal;font-size:9.96259975px;font-family:CMR10;-inkscape-font-specification:CMR10;writing-mode:lr-tb;fill:#000000;fill-opacity:1;fill-rule:nonzero;stroke:none"
   transform="matrix(1,0,0,-1,359.481,96.921)"><tspan
     id="tspan230"
     y="0"
     x="0 5.5352206 8.3028307 16.604666 19.372276 22.139887 27.121185 31.023537 33.791145 37.38665 45.962456 54.26429 59.24559 63.120045 67.022392 69.790009 78.375771 83.357071 89.719193 93.648438 99.462616 103.88999 108.31738 112.4658 121.31857 124.36314 128.79051 133.77182 137.64627 143.18149 147.08385 151.51122">Similaritymatrixofspeechfeatures</tspan></text>

<g
   transform="translate(359.481,96.921)"
   id="g234" /></g></g><g
                 transform="translate(-319.791,201.713)"
                 id="g236" /></g></g><g
             id="g238"><g
               id="g240"><path
                 id="path242"
                 style="fill:#e699b3;fill-opacity:1;fill-rule:nonzero;stroke:#000000;stroke-width:0.3985;stroke-linecap:butt;stroke-linejoin:miter;stroke-miterlimit:10;stroke-dasharray:none;stroke-opacity:1"
                 d="m 630.08734,-99.61237 -67.52486,0 c -2.20094,0 -3.9851,-1.78416 -3.9851,-3.9851 l 0,-20.37659 c 0,-2.20094 1.78416,-3.98511 3.9851,-3.98511 l 67.52486,0 c 2.20094,0 3.98511,1.78417 3.98511,3.98511 l 0,20.37659 c 0,2.20094 -1.78417,3.9851 -3.98511,3.9851 z"
                 inkscape:connector-curvature="0" /></g><g
               transform="translate(561.891,-117.188)"
               id="g244"><g
                 id="g246"><g
                   transform="translate(-601.581,-181.446)"
                   id="g248"><text
   id="text252"
   style="font-variant:normal;font-weight:normal;font-size:9.96259975px;font-family:CMR10;-inkscape-font-specification:CMR10;writing-mode:lr-tb;fill:#000000;fill-opacity:1;fill-rule:nonzero;stroke:none"
   transform="matrix(1,0,0,-1,601.581,181.446)"><tspan
     id="tspan250"
     y="0"
     x="0 7.6104302 12.037809 16.465189 19.2328 23.162048 25.929659 30.910959 39.763725 48.065559 53.04686 56.921314 60.823666 63.591274">Decisionmatrix</tspan></text>

<g
   transform="translate(601.581,181.446)"
   id="g254" /></g></g><g
                 transform="translate(-561.891,117.188)"
                 id="g256" /></g></g><g
             id="g258" /><g
             id="g260" /><g
             id="g262" /><path
             id="path264"
             style="fill:none;stroke:#000000;stroke-width:0.3985;stroke-linecap:butt;stroke-linejoin:miter;stroke-miterlimit:10;stroke-dasharray:none;stroke-opacity:1"
             d="M 35.63277,0 89.58614,26.97672"
             inkscape:connector-curvature="0" /><g
             transform="matrix(0.89436,0.44717,-0.44717,0.89436,88.04945,26.20839)"
             id="g266"><g
               id="g268"><path
                 id="path270"
                 style="fill:#000000;fill-opacity:1;fill-rule:nonzero;stroke:#000000;stroke-width:0.3985;stroke-linecap:butt;stroke-linejoin:miter;stroke-miterlimit:10;stroke-dasharray:none;stroke-opacity:1"
                 d="M 4.21463,0 0.64343,1.34572 1.8178,0 0.64343,-1.34572 Z"
                 inkscape:connector-curvature="0" /></g></g><path
             id="path272"
             style="fill:none;stroke:#000000;stroke-width:0.3985;stroke-linecap:butt;stroke-linejoin:miter;stroke-miterlimit:10;stroke-dasharray:none;stroke-opacity:1"
             d="M 35.63277,0 92.74701,-27.41934"
             inkscape:connector-curvature="0" /><g
             transform="matrix(0.90144,-0.43277,0.43277,0.90144,91.19817,-26.67577)"
             id="g274"><g
               id="g276"><path
                 id="path278"
                 style="fill:#000000;fill-opacity:1;fill-rule:nonzero;stroke:#000000;stroke-width:0.3985;stroke-linecap:butt;stroke-linejoin:miter;stroke-miterlimit:10;stroke-dasharray:none;stroke-opacity:1"
                 d="M 4.21463,0 0.64343,1.34572 1.8178,0 0.64343,-1.34572 Z"
                 inkscape:connector-curvature="0" /></g></g><path
             id="path280"
             style="fill:none;stroke:#000000;stroke-width:0.3985;stroke-linecap:butt;stroke-linejoin:miter;stroke-miterlimit:10;stroke-dasharray:none;stroke-opacity:1"
             d="m 35.63277,-142.13257 53.95337,26.97673"
             inkscape:connector-curvature="0" /><g
             transform="matrix(0.89436,0.44717,-0.44717,0.89436,88.04945,-115.92416)"
             id="g282"><g
               id="g284"><path
                 id="path286"
                 style="fill:#000000;fill-opacity:1;fill-rule:nonzero;stroke:#000000;stroke-width:0.3985;stroke-linecap:butt;stroke-linejoin:miter;stroke-miterlimit:10;stroke-dasharray:none;stroke-opacity:1"
                 d="M 4.21463,0 0.64343,1.34572 1.8178,0 0.64343,-1.34572 Z"
                 inkscape:connector-curvature="0" /></g></g><path
             id="path288"
             style="fill:none;stroke:#000000;stroke-width:0.3985;stroke-linecap:butt;stroke-linejoin:miter;stroke-miterlimit:10;stroke-dasharray:none;stroke-opacity:1"
             d="m 35.63277,-142.13257 57.11424,-27.41934"
             inkscape:connector-curvature="0" /><g
             transform="matrix(0.90144,-0.43277,0.43277,0.90144,91.19817,-168.80833)"
             id="g290"><g
               id="g292"><path
                 id="path294"
                 style="fill:#000000;fill-opacity:1;fill-rule:nonzero;stroke:#000000;stroke-width:0.3985;stroke-linecap:butt;stroke-linejoin:miter;stroke-miterlimit:10;stroke-dasharray:none;stroke-opacity:1"
                 d="M 4.21463,0 0.64343,1.34572 1.8178,0 0.64343,-1.34572 Z"
                 inkscape:connector-curvature="0" /></g></g><path
             id="path296"
             style="fill:none;stroke:#000000;stroke-width:0.3985;stroke-linecap:butt;stroke-linejoin:miter;stroke-miterlimit:10;stroke-dasharray:none;stroke-opacity:1"
             d="m 39.69028,-284.26514 81.97653,0"
             inkscape:connector-curvature="0" /><g
             transform="translate(119.94862,-284.26514)"
             id="g298"><g
               id="g300"><path
                 id="path302"
                 style="fill:#000000;fill-opacity:1;fill-rule:nonzero;stroke:#000000;stroke-width:0.3985;stroke-linecap:butt;stroke-linejoin:miter;stroke-miterlimit:10;stroke-dasharray:none;stroke-opacity:1"
                 d="M 4.21463,0 0.64343,1.34572 1.8178,0 0.64343,-1.34572 Z"
                 inkscape:connector-curvature="0" /></g></g><path
             id="path304"
             style="fill:none;stroke:#000000;stroke-width:0.3985;stroke-linecap:butt;stroke-linejoin:miter;stroke-miterlimit:10;stroke-dasharray:none;stroke-opacity:1"
             d="m 232.64597,28.3468 82.49122,-54.99415"
             inkscape:connector-curvature="0" /><g
             transform="matrix(0.83202,-0.55467,0.55467,0.83202,313.70763,-25.69434)"
             id="g306"><g
               id="g308"><path
                 id="path310"
                 style="fill:#000000;fill-opacity:1;fill-rule:nonzero;stroke:#000000;stroke-width:0.3985;stroke-linecap:butt;stroke-linejoin:miter;stroke-miterlimit:10;stroke-dasharray:none;stroke-opacity:1"
                 d="M 4.21463,0 0.64343,1.34572 1.8178,0 0.64343,-1.34572 Z"
                 inkscape:connector-curvature="0" /></g></g><path
             id="path312"
             style="fill:none;stroke:#000000;stroke-width:0.3985;stroke-linecap:butt;stroke-linejoin:miter;stroke-miterlimit:10;stroke-dasharray:none;stroke-opacity:1"
             d="m 225.33989,-113.78575 90.09767,83.35826"
             inkscape:connector-curvature="0" /><g
             transform="matrix(0.73398,0.6791,-0.6791,0.73398,314.17645,-31.5943)"
             id="g314"><g
               id="g316"><path
                 id="path318"
                 style="fill:#000000;fill-opacity:1;fill-rule:nonzero;stroke:#000000;stroke-width:0.3985;stroke-linecap:butt;stroke-linejoin:miter;stroke-miterlimit:10;stroke-dasharray:none;stroke-opacity:1"
                 d="M 4.21463,0 0.64343,1.34572 1.8178,0 0.64343,-1.34572 Z"
                 inkscape:connector-curvature="0" /></g></g><path
             id="path320"
             style="fill:none;stroke:#000000;stroke-width:0.3985;stroke-linecap:butt;stroke-linejoin:miter;stroke-miterlimit:10;stroke-dasharray:none;stroke-opacity:1"
             d="m 229.4634,-28.7453 89.98336,-82.96373"
             inkscape:connector-curvature="0" /><g
             transform="matrix(0.73515,-0.67781,0.67781,0.73515,318.18364,-110.54442)"
             id="g322"><g
               id="g324"><path
                 id="path326"
                 style="fill:#000000;fill-opacity:1;fill-rule:nonzero;stroke:#000000;stroke-width:0.3985;stroke-linecap:butt;stroke-linejoin:miter;stroke-miterlimit:10;stroke-dasharray:none;stroke-opacity:1"
                 d="M 4.21463,0 0.64343,1.34572 1.8178,0 0.64343,-1.34572 Z"
                 inkscape:connector-curvature="0" /></g></g><path
             id="path328"
             style="fill:none;stroke:#000000;stroke-width:0.3985;stroke-linecap:butt;stroke-linejoin:miter;stroke-miterlimit:10;stroke-dasharray:none;stroke-opacity:1"
             d="m 222.15733,-170.87787 96.88417,55.56781"
             inkscape:connector-curvature="0" /><g
             transform="matrix(0.86742,0.4975,-0.4975,0.86742,317.55112,-116.16484)"
             id="g330"><g
               id="g332"><path
                 id="path334"
                 style="fill:#000000;fill-opacity:1;fill-rule:nonzero;stroke:#000000;stroke-width:0.3985;stroke-linecap:butt;stroke-linejoin:miter;stroke-miterlimit:10;stroke-dasharray:none;stroke-opacity:1"
                 d="M 4.21463,0 0.64343,1.34572 1.8178,0 0.64343,-1.34572 Z"
                 inkscape:connector-curvature="0" /></g></g><path
             id="path336"
             style="fill:none;stroke:#000000;stroke-width:0.3985;stroke-linecap:butt;stroke-linejoin:miter;stroke-miterlimit:10;stroke-dasharray:none;stroke-opacity:1"
             d="m 195.99626,-284.26514 117.77716,83.27172"
             inkscape:connector-curvature="0" /><g
             transform="matrix(0.81648,0.57727,-0.57727,0.81648,312.37054,-201.98528)"
             id="g338"><g
               id="g340"><path
                 id="path342"
                 style="fill:#000000;fill-opacity:1;fill-rule:nonzero;stroke:#000000;stroke-width:0.3985;stroke-linecap:butt;stroke-linejoin:miter;stroke-miterlimit:10;stroke-dasharray:none;stroke-opacity:1"
                 d="M 4.21463,0 0.64343,1.34572 1.8178,0 0.64343,-1.34572 Z"
                 inkscape:connector-curvature="0" /></g></g><path
             id="path344"
             style="fill:none;stroke:#000000;stroke-width:0.3985;stroke-linecap:butt;stroke-linejoin:miter;stroke-miterlimit:10;stroke-dasharray:none;stroke-opacity:1"
             d="m 477.35048,-28.34682 36.85092,0"
             inkscape:connector-curvature="0" /><path
             id="path346"
             style="fill:none;stroke:#000000;stroke-width:0.3985;stroke-linecap:butt;stroke-linejoin:miter;stroke-miterlimit:10;stroke-dasharray:none;stroke-opacity:1"
             d="m 514.2014,-28.34682 0,-85.04043"
             inkscape:connector-curvature="0" /><path
             id="path348"
             style="fill:none;stroke:#000000;stroke-width:0.3985;stroke-linecap:butt;stroke-linejoin:miter;stroke-miterlimit:10;stroke-dasharray:none;stroke-opacity:1"
             d="m 473.33768,-113.78577 40.86372,0.39852"
             inkscape:connector-curvature="0" /><path
             id="path350"
             style="fill:none;stroke:#000000;stroke-width:0.3985;stroke-linecap:butt;stroke-linejoin:miter;stroke-miterlimit:10;stroke-dasharray:none;stroke-opacity:1"
             d="m 478.76184,-199.22472 35.43956,0.79705"
             inkscape:connector-curvature="0" /><path
             id="path352"
             style="fill:none;stroke:#000000;stroke-width:0.3985;stroke-linecap:butt;stroke-linejoin:miter;stroke-miterlimit:10;stroke-dasharray:none;stroke-opacity:1"
             d="m 514.2014,-198.42767 0,85.04042"
             inkscape:connector-curvature="0" /><path
             id="path354"
             style="fill:none;stroke:#000000;stroke-width:0.3985;stroke-linecap:butt;stroke-linejoin:miter;stroke-miterlimit:10;stroke-dasharray:none;stroke-opacity:1"
             d="m 514.2014,-113.38725 41.1131,-0.3709"
             inkscape:connector-curvature="0" /><g
             transform="matrix(0.99991,-0.00902,0.00902,0.99991,553.59647,-113.74266)"
             id="g356"><g
               id="g358"><path
                 id="path360"
                 style="fill:#000000;fill-opacity:1;fill-rule:nonzero;stroke:#000000;stroke-width:0.3985;stroke-linecap:butt;stroke-linejoin:miter;stroke-miterlimit:10;stroke-dasharray:none;stroke-opacity:1"
                 d="M 4.21463,0 0.64343,1.34572 1.8178,0 0.64343,-1.34572 Z"
                 inkscape:connector-curvature="0" /></g></g></g></g></g></g></svg>