<?xml version="1.0" encoding="UTF-8" standalone="no"?>
<svg
   xmlns:dc="http://purl.org/dc/elements/1.1/"
   xmlns:cc="http://creativecommons.org/ns#"
   xmlns:rdf="http://www.w3.org/1999/02/22-rdf-syntax-ns#"
   xmlns:svg="http://www.w3.org/2000/svg"
   xmlns="http://www.w3.org/2000/svg"
   xmlns:sodipodi="http://sodipodi.sourceforge.net/DTD/sodipodi-0.dtd"
   xmlns:inkscape="http://www.inkscape.org/namespaces/inkscape"
   viewBox="0 0 898.604 467.30133"
   height="467.30133"
   width="898.604"
   xml:space="preserve"
   id="svg2"
   version="1.1"
   inkscape:version="0.91 r13725"
   sodipodi:docname="graphik_final.svg"><sodipodi:namedview
     pagecolor="#ffffff"
     bordercolor="#666666"
     borderopacity="1"
     objecttolerance="10"
     gridtolerance="10"
     guidetolerance="10"
     inkscape:pageopacity="0"
     inkscape:pageshadow="2"
     inkscape:window-width="1280"
     inkscape:window-height="649"
     id="namedview287"
     showgrid="false"
     inkscape:zoom="0.32939982"
     inkscape:cx="449.302"
     inkscape:cy="230.61484"
     inkscape:window-x="-8"
     inkscape:window-y="-8"
     inkscape:window-maximized="1"
     inkscape:current-layer="svg2" /><metadata
     id="metadata8"><rdf:RDF><cc:Work
         rdf:about=""><dc:format>image/svg+xml</dc:format><dc:type
           rdf:resource="http://purl.org/dc/dcmitype/StillImage" /><dc:title></dc:title></cc:Work></rdf:RDF></metadata><defs
     id="defs6" /><g
     inkscape:groupmode="layer"
     id="layer1"
     inkscape:label="Layer 1"><rect
       style="fill:#ffffff"
       id="rect3616"
       width="919.8548"
       height="476.62442"
       x="-12.143297"
       y="-6.2872663" /></g><g
     id="g10"
     transform="matrix(1.2346214,0,0,-1.2207209,92.410515,445.93924)"><g
       id="g12"
       transform="translate(39.69,307.757)"><g
         id="g14"><g
           id="g16"><g
             id="g18"><g
               id="g20"><path
                 d="m 31.4484,14.17339 -62.8968,0 c -2.20094,0 -3.9851,-1.78417 -3.9851,-3.98511 l 0,-20.37656 c 0,-2.20094 1.78416,-3.98511 3.9851,-3.98511 l 62.8968,0 c 2.20094,0 3.9851,1.78417 3.9851,3.98511 l 0,20.37656 c 0,2.20094 -1.78416,3.98511 -3.9851,3.98511 z"
                 style="fill:#99ff99;fill-opacity:1;fill-rule:nonzero;stroke:#000000;stroke-width:0.3985;stroke-linecap:butt;stroke-linejoin:miter;stroke-miterlimit:10;stroke-dasharray:none;stroke-opacity:1"
                 id="path22"
                 inkscape:connector-curvature="0" /></g><g
               id="g24"
               transform="translate(-28.546,-3.459)"><g
                 id="g26"><g
                   id="g28"
                   transform="translate(-11.144,-304.298)"><text
   transform="matrix(1,0,0,-1,11.144,304.298)"
   style="font-variant:normal;font-weight:normal;font-size:9.96259975px;font-family:CMR10;-inkscape-font-specification:CMR10;writing-mode:lr-tb;fill:#000000;fill-opacity:1;fill-rule:nonzero;stroke:none"
   id="text32"><tspan
     x="0 7.4719501 10.23956 15.774781 20.20216 28.501005 31.545576 35.447926 40.429226 48.73106 53.15844"
     y="0"
     id="tspan30">Videoframes</tspan></text>

<g
   id="g34"
   transform="translate(11.144,304.298)" /></g></g><g
                 id="g36"
                 transform="translate(28.546,3.459)" /></g></g><g
             id="g38"><g
               id="g40"><path
                 d="m 170.26231,42.5202 -73.75157,0 c -2.20094,0 -3.98511,-1.78416 -3.98511,-3.9851 l 0,-20.37659 c 0,-2.20094 1.78417,-3.98511 3.98511,-3.98511 l 73.75157,0 c 2.20095,0 3.98511,1.78417 3.98511,3.98511 l 0,20.37659 c 0,2.20094 -1.78416,3.9851 -3.98511,3.9851 z"
                 style="fill:#99ff99;fill-opacity:1;fill-rule:nonzero;stroke:#000000;stroke-width:0.3985;stroke-linecap:butt;stroke-linejoin:miter;stroke-miterlimit:10;stroke-dasharray:none;stroke-opacity:1"
                 id="path42"
                 inkscape:connector-curvature="0" /></g><g
               id="g44"
               transform="translate(95.845,18.91)"><g
                 id="g46"><g
                   id="g48"
                   transform="translate(-135.535,-326.667)"><text
   transform="matrix(1,0,0,-1,135.535,338.622)"
   style="font-variant:normal;font-weight:normal;font-size:9.96259975px;font-family:CMR10;-inkscape-font-specification:CMR10;writing-mode:lr-tb;fill:#000000;fill-opacity:1;fill-rule:nonzero;stroke:none"
   id="text54"><tspan
     x="0 3.5974948 11.899329 16.880629 21.861929 29.606855 32.651424 37.078804 42.060104 45.934559 51.46978 55.372131 59.799511 67.056267 72.037567"
     y="0"
     id="tspan50">Imagefeaturesof</tspan><tspan
     x="10.101 15.359261 18.126871 23.66209 28.08947 36.388317 39.432888 43.335236 48.316536 56.61837 61.04575"
     y="11.955"
     id="tspan52">videoframes</tspan></text>

<g
   id="g56"
   transform="translate(135.535,326.667)" /></g></g><g
                 id="g58"
                 transform="translate(-95.845,-18.91)" /></g></g><g
             id="g60"><g
               id="g62"><path
                 d="m 167.07976,-14.57191 -67.38646,0 c -2.20094,0 -3.98511,-1.78417 -3.98511,-3.98511 l 0,-20.37658 c 0,-2.20094 1.78417,-3.9851 3.98511,-3.9851 l 67.38646,0 c 2.20094,0 3.98511,1.78416 3.98511,3.9851 l 0,20.37658 c 0,2.20094 -1.78417,3.98511 -3.98511,3.98511 z"
                 style="fill:#99ff99;fill-opacity:1;fill-rule:nonzero;stroke:#000000;stroke-width:0.3985;stroke-linecap:butt;stroke-linejoin:miter;stroke-miterlimit:10;stroke-dasharray:none;stroke-opacity:1"
                 id="path64"
                 inkscape:connector-curvature="0" /></g><g
               id="g66"
               transform="translate(99.027,-38.181)"><g
                 id="g68"><g
                   id="g70"
                   transform="translate(-138.717,-269.576)"><text
   transform="matrix(1,0,0,-1,138.717,281.531)"
   style="font-variant:normal;font-weight:normal;font-size:9.96259975px;font-family:CMR10;-inkscape-font-specification:CMR10;writing-mode:lr-tb;fill:#000000;fill-opacity:1;fill-rule:nonzero;stroke:none"
   id="text76"><tspan
     x="0 6.368094 10.795473 16.053734 23.245735 26.290306 30.717684 35.698986 39.573441 45.108662 49.011009 53.438389 60.685184 65.666489"
     y="0"
     id="tspan72">Textfeaturesof</tspan><tspan
     x="6.9190001 12.17726 14.944871 20.480091 24.907471 33.206318 36.250889 40.153236 45.134537 53.436371 57.86375"
     y="11.955"
     id="tspan74">videoframes</tspan></text>

<g
   id="g78"
   transform="translate(138.717,269.576)" /></g></g><g
                 id="g80"
                 transform="translate(-99.027,38.181)" /></g></g><g
             id="g82"><g
               id="g84"><path
                 d="m 31.4484,-127.95917 -62.8968,0 c -2.20094,0 -3.9851,-1.78416 -3.9851,-3.9851 l 0,-20.37658 c 0,-2.20094 1.78416,-3.9851 3.9851,-3.9851 l 62.8968,0 c 2.20094,0 3.9851,1.78416 3.9851,3.9851 l 0,20.37658 c 0,2.20094 -1.78416,3.9851 -3.9851,3.9851 z"
                 style="fill:#ffcc99;fill-opacity:1;fill-rule:nonzero;stroke:#000000;stroke-width:0.3985;stroke-linecap:butt;stroke-linejoin:miter;stroke-miterlimit:10;stroke-dasharray:none;stroke-opacity:1"
                 id="path86"
                 inkscape:connector-curvature="0" /></g><g
               id="g88"
               transform="translate(-23.786,-145.59)"><g
                 id="g90"><g
                   id="g92"
                   transform="translate(-15.904,-162.167)"><text
   transform="matrix(1,0,0,-1,15.904,162.167)"
   style="font-variant:normal;font-weight:normal;font-size:9.96259975px;font-family:CMR10;-inkscape-font-specification:CMR10;writing-mode:lr-tb;fill:#000000;fill-opacity:1;fill-rule:nonzero;stroke:none"
   id="text96"><tspan
     x="0 6.7805457 14.390976 24.212107 28.141356 30.908966 33.676579 39.211796 43.639175"
     y="0"
     id="tspan94">PDFslides</tspan></text>

<g
   id="g98"
   transform="translate(15.904,162.167)" /></g></g><g
                 id="g100"
                 transform="translate(23.786,145.59)" /></g></g><g
             id="g102"><g
               id="g104"><path
                 d="m 170.26231,-99.61235 -73.75157,0 c -2.20094,0 -3.98511,-1.78416 -3.98511,-3.98511 l 0,-20.37658 c 0,-2.20095 1.78417,-3.98511 3.98511,-3.98511 l 73.75157,0 c 2.20095,0 3.98511,1.78416 3.98511,3.98511 l 0,20.37658 c 0,2.20095 -1.78416,3.98511 -3.98511,3.98511 z"
                 style="fill:#ffcc99;fill-opacity:1;fill-rule:nonzero;stroke:#000000;stroke-width:0.3985;stroke-linecap:butt;stroke-linejoin:miter;stroke-miterlimit:10;stroke-dasharray:none;stroke-opacity:1"
                 id="path106"
                 inkscape:connector-curvature="0" /></g><g
               id="g108"
               transform="translate(95.845,-123.221)"><g
                 id="g110"><g
                   id="g112"
                   transform="translate(-135.535,-184.536)"><text
   transform="matrix(1,0,0,-1,135.535,196.491)"
   style="font-variant:normal;font-weight:normal;font-size:9.96259975px;font-family:CMR10;-inkscape-font-specification:CMR10;writing-mode:lr-tb;fill:#000000;fill-opacity:1;fill-rule:nonzero;stroke:none"
   id="text118"><tspan
     x="0 3.5974948 11.899329 16.880629 21.861929 29.606855 32.651424 37.078804 42.060104 45.934559 51.46978 55.372131 59.799511 67.056267 72.037567"
     y="0"
     id="tspan114">Imagefeaturesof</tspan><tspan
     x="13.754 20.534546 28.144976 37.966106 41.895355 44.662968 47.430576 52.965797 57.393177"
     y="11.955"
     id="tspan116">PDFslides</tspan></text>

<g
   id="g120"
   transform="translate(135.535,184.536)" /></g></g><g
                 id="g122"
                 transform="translate(-95.845,123.221)" /></g></g><g
             id="g124"><g
               id="g126"><path
                 d="m 167.07976,-156.70448 -67.38646,0 c -2.20094,0 -3.98511,-1.78417 -3.98511,-3.98511 l 0,-20.37657 c 0,-2.20094 1.78417,-3.98511 3.98511,-3.98511 l 67.38646,0 c 2.20094,0 3.98511,1.78417 3.98511,3.98511 l 0,20.37657 c 0,2.20094 -1.78417,3.98511 -3.98511,3.98511 z"
                 style="fill:#ffcc99;fill-opacity:1;fill-rule:nonzero;stroke:#000000;stroke-width:0.3985;stroke-linecap:butt;stroke-linejoin:miter;stroke-miterlimit:10;stroke-dasharray:none;stroke-opacity:1"
                 id="path128"
                 inkscape:connector-curvature="0" /></g><g
               id="g130"
               transform="translate(99.027,-180.312)"><g
                 id="g132"><g
                   id="g134"
                   transform="translate(-138.717,-127.445)"><text
   transform="matrix(1,0,0,-1,138.717,139.4)"
   style="font-variant:normal;font-weight:normal;font-size:9.96259975px;font-family:CMR10;-inkscape-font-specification:CMR10;writing-mode:lr-tb;fill:#000000;fill-opacity:1;fill-rule:nonzero;stroke:none"
   id="text140"><tspan
     x="0 6.368094 10.795473 16.053734 23.245735 26.290306 30.717684 35.698986 39.573441 45.108662 49.011009 53.438389 60.685184 65.666489"
     y="0"
     id="tspan136">Textfeaturesof</tspan><tspan
     x="10.572 17.352545 24.962976 34.784107 38.713356 41.480965 44.248577 49.783798 54.211178"
     y="11.955"
     id="tspan138">PDFslides</tspan></text>

<g
   id="g142"
   transform="translate(138.717,127.445)" /></g></g><g
                 id="g144"
                 transform="translate(-99.027,180.312)" /></g></g><g
             id="g146"><g
               id="g148"><path
                 d="m 35.50592,-247.4142 -71.01184,0 c -2.20094,0 -3.98511,-1.78416 -3.98511,-3.9851 l 0,-20.37658 c 0,-2.20094 1.78417,-3.98511 3.98511,-3.98511 l 71.01184,0 c 2.20094,0 3.98511,1.78417 3.98511,3.98511 l 0,20.37658 c 0,2.20094 -1.78417,3.9851 -3.98511,3.9851 z"
                 style="fill:#ffcc99;fill-opacity:1;fill-rule:nonzero;stroke:#000000;stroke-width:0.3985;stroke-linecap:butt;stroke-linejoin:miter;stroke-miterlimit:10;stroke-dasharray:none;stroke-opacity:1"
                 id="path150"
                 inkscape:connector-curvature="0" /></g><g
               id="g152"
               transform="translate(-36.17,-264.074)"><g
                 id="g154"><g
                   id="g156"
                   transform="translate(-3.52,-43.683)"><text
   transform="matrix(1,0,0,-1,3.52,43.683)"
   style="font-variant:normal;font-weight:normal;font-size:9.96259975px;font-family:CMR10;-inkscape-font-specification:CMR10;writing-mode:lr-tb;fill:#000000;fill-opacity:1;fill-rule:nonzero;stroke:none"
   id="text160"><tspan
     x="0 7.4719501 13.007171 18.542391 21.310001 29.608847 33.483303 37.385654 42.366951 47.902172 51.831421 56.258801 60.161152 62.928764 68.463982"
     y="0"
     id="tspan158">Audiotranscript</tspan></text>

<g
   id="g162"
   transform="translate(3.52,43.683)" /></g></g><g
                 id="g164"
                 transform="translate(36.17,264.074)" /></g></g><g
             id="g166"><g
               id="g168"><path
                 d="m 191.81189,-247.4142 -62.89681,0 c -2.20094,0 -3.9851,-1.78416 -3.9851,-3.9851 l 0,-20.37658 c 0,-2.20094 1.78416,-3.98511 3.9851,-3.98511 l 62.89681,0 c 2.20094,0 3.98511,1.78417 3.98511,3.98511 l 0,20.37658 c 0,2.20094 -1.78417,3.9851 -3.98511,3.9851 z"
                 style="fill:#ffcc99;fill-opacity:1;fill-rule:nonzero;stroke:#000000;stroke-width:0.3985;stroke-linecap:butt;stroke-linejoin:miter;stroke-miterlimit:10;stroke-dasharray:none;stroke-opacity:1"
                 id="path170"
                 inkscape:connector-curvature="0" /></g><g
               id="g172"
               transform="translate(128.495,-265.043)"><g
                 id="g174"><g
                   id="g176"
                   transform="translate(-168.185,-42.714)"><text
   transform="matrix(1,0,0,-1,168.185,42.714)"
   style="font-variant:normal;font-weight:normal;font-size:9.96259975px;font-family:CMR10;-inkscape-font-specification:CMR10;writing-mode:lr-tb;fill:#000000;fill-opacity:1;fill-rule:nonzero;stroke:none"
   id="text180"><tspan
     x="0 7.4719501 13.007171 18.542391 21.310001 29.608847 32.653419 37.080799 42.062096 45.936554 51.471771 55.374123 59.801502"
     y="0"
     id="tspan178">Audiofeatures</tspan></text>

<g
   id="g182"
   transform="translate(168.185,42.714)" /></g></g><g
                 id="g184"
                 transform="translate(-128.495,265.043)" /></g></g><g
             id="g186"><g
               id="g188"><path
                 d="m 348.74196,-14.17342 -85.07048,0 c -2.20094,0 -3.98511,-1.78416 -3.98511,-3.9851 l 0,-20.37659 c 0,-2.20094 1.78417,-3.98511 3.98511,-3.98511 l 85.07048,0 c 2.20094,0 3.98511,1.78417 3.98511,3.98511 l 0,20.37659 c 0,2.20094 -1.78417,3.9851 -3.98511,3.9851 z"
                 style="fill:#9999ff;fill-opacity:1;fill-rule:nonzero;stroke:#000000;stroke-width:0.3985;stroke-linecap:butt;stroke-linejoin:miter;stroke-miterlimit:10;stroke-dasharray:none;stroke-opacity:1"
                 id="path190"
                 inkscape:connector-curvature="0" /></g><g
               id="g192"
               transform="translate(263.003,-36.814)"><g
                 id="g194"><g
                   id="g196"
                   transform="translate(-302.693,-270.943)"><text
   transform="matrix(1,0,0,-1,302.693,282.898)"
   style="font-variant:normal;font-weight:normal;font-size:9.96259975px;font-family:CMR10;-inkscape-font-specification:CMR10;writing-mode:lr-tb;fill:#000000;fill-opacity:1;fill-rule:nonzero;stroke:none"
   id="text202"><tspan
     x="0 5.5352206 8.3028307 16.604666 19.372276 22.139887 27.121185 31.023537 33.791145 37.38665 45.962456 54.26429 59.24559 63.120045 67.022392 69.790009 78.375771 83.357071"
     y="0"
     id="tspan198">Similaritymatrixof</tspan><tspan
     x="11.748 14.515611 22.817446 27.798744 32.780045 40.524971 43.569542 47.996922 52.978222 56.852676 62.387897 66.290245 70.717628"
     y="11.955"
     id="tspan200">imagefeatures</tspan></text>

<g
   id="g204"
   transform="translate(302.693,270.943)" /></g></g><g
                 id="g206"
                 transform="translate(-263.003,36.814)" /></g></g><g
             id="g208"><g
               id="g210"><path
                 d="m 348.74196,-99.61237 -85.07048,0 c -2.20094,0 -3.98511,-1.78416 -3.98511,-3.9851 l 0,-20.37659 c 0,-2.20094 1.78417,-3.98511 3.98511,-3.98511 l 85.07048,0 c 2.20094,0 3.98511,1.78417 3.98511,3.98511 l 0,20.37659 c 0,2.20094 -1.78417,3.9851 -3.98511,3.9851 z"
                 style="fill:#9999ff;fill-opacity:1;fill-rule:nonzero;stroke:#000000;stroke-width:0.3985;stroke-linecap:butt;stroke-linejoin:miter;stroke-miterlimit:10;stroke-dasharray:none;stroke-opacity:1"
                 id="path212"
                 inkscape:connector-curvature="0" /></g><g
               id="g214"
               transform="translate(263.003,-123.221)"><g
                 id="g216"><g
                   id="g218"
                   transform="translate(-302.693,-184.536)"><text
   transform="matrix(1,0,0,-1,302.693,196.491)"
   style="font-variant:normal;font-weight:normal;font-size:9.96259975px;font-family:CMR10;-inkscape-font-specification:CMR10;writing-mode:lr-tb;fill:#000000;fill-opacity:1;fill-rule:nonzero;stroke:none"
   id="text224"><tspan
     x="0 5.5352206 8.3028307 16.604666 19.372276 22.139887 27.121185 31.023537 33.791145 37.38665 45.962456 54.26429 59.24559 63.120045 67.022392 69.790009 78.375771 83.357071"
     y="0"
     id="tspan220">Similaritymatrixof</tspan><tspan
     x="15.761 19.635456 24.062834 29.321095 36.513096 39.557667 43.985046 48.966347 52.840801 58.376022 62.278374 66.70575"
     y="11.955"
     id="tspan222">textfeatures</tspan></text>

<g
   id="g226"
   transform="translate(302.693,184.536)" /></g></g><g
                 id="g228"
                 transform="translate(-263.003,123.221)" /></g></g><g
             id="g230"><g
               id="g232"><path
                 d="m 348.74196,-185.05132 -85.07048,0 c -2.20094,0 -3.98511,-1.78416 -3.98511,-3.9851 l 0,-20.37659 c 0,-2.20094 1.78417,-3.98511 3.98511,-3.98511 l 85.07048,0 c 2.20094,0 3.98511,1.78417 3.98511,3.98511 l 0,20.37659 c 0,2.20094 -1.78417,3.9851 -3.98511,3.9851 z"
                 style="fill:#9999ff;fill-opacity:1;fill-rule:nonzero;stroke:#000000;stroke-width:0.3985;stroke-linecap:butt;stroke-linejoin:miter;stroke-miterlimit:10;stroke-dasharray:none;stroke-opacity:1"
                 id="path234"
                 inkscape:connector-curvature="0" /></g><g
               id="g236"
               transform="translate(263.003,-207.69)"><g
                 id="g238"><g
                   id="g240"
                   transform="translate(-302.693,-100.067)"><text
   transform="matrix(1,0,0,-1,302.693,112.022)"
   style="font-variant:normal;font-weight:normal;font-size:9.96259975px;font-family:CMR10;-inkscape-font-specification:CMR10;writing-mode:lr-tb;fill:#000000;fill-opacity:1;fill-rule:nonzero;stroke:none"
   id="text246"><tspan
     x="0 5.5352206 8.3028307 16.604666 19.372276 22.139887 27.121185 31.023537 33.791145 37.38665 45.962456 54.26429 59.24559 63.120045 67.022392 69.790009 78.375771 83.357071"
     y="0"
     id="tspan242">Similaritymatrixof</tspan><tspan
     x="10.337 14.26625 20.080423 24.507803 28.935183 33.083607 41.936375 44.980946 49.408325 54.389626 58.26408 63.799301 67.701653 72.129028"
     y="11.955"
     id="tspan244">speechfeatures</tspan></text>

<g
   id="g248"
   transform="translate(302.693,100.067)" /></g></g><g
                 id="g250"
                 transform="translate(-263.003,207.69)" /></g></g><g
             id="g252"><g
               id="g254"><path
                 d="m 509.67598,-99.61237 -67.52486,0 c -2.20094,0 -3.9851,-1.78416 -3.9851,-3.9851 l 0,-20.37659 c 0,-2.20094 1.78416,-3.98511 3.9851,-3.98511 l 67.52486,0 c 2.20094,0 3.98511,1.78417 3.98511,3.98511 l 0,20.37659 c 0,2.20094 -1.78417,3.9851 -3.98511,3.9851 z"
                 style="fill:#e699b3;fill-opacity:1;fill-rule:nonzero;stroke:#000000;stroke-width:0.3985;stroke-linecap:butt;stroke-linejoin:miter;stroke-miterlimit:10;stroke-dasharray:none;stroke-opacity:1"
                 id="path256"
                 inkscape:connector-curvature="0" /></g><g
               id="g258"
               transform="translate(441.481,-117.188)"><g
                 id="g260"><g
                   id="g262"
                   transform="translate(-481.171,-190.569)"><text
   transform="matrix(1,0,0,-1,481.171,190.569)"
   style="font-variant:normal;font-weight:normal;font-size:9.96259975px;font-family:CMR10;-inkscape-font-specification:CMR10;writing-mode:lr-tb;fill:#000000;fill-opacity:1;fill-rule:nonzero;stroke:none"
   id="text266"><tspan
     x="0 7.6104302 12.037809 16.465189 19.2328 23.162048 25.929659 30.910959 39.763725 48.065559 53.04686 56.921314 60.823666 63.591274"
     y="0"
     id="tspan264">Decisionmatrix</tspan></text>

<g
   id="g268"
   transform="translate(481.171,190.569)" /></g></g><g
                 id="g270"
                 transform="translate(-441.481,117.188)" /></g></g><g
             id="g272" /><g
             id="g274" /><g
             id="g276" /><path
             d="M 35.63277,0 89.58614,26.97672"
             style="fill:none;stroke:#000000;stroke-width:0.3985;stroke-linecap:butt;stroke-linejoin:miter;stroke-miterlimit:10;stroke-dasharray:none;stroke-opacity:1"
             id="path278"
             inkscape:connector-curvature="0" /><g
             id="g280"
             transform="matrix(0.89436,0.44717,-0.44717,0.89436,88.04945,26.20839)"><g
               id="g282"><path
                 d="M 4.21463,0 0.64343,1.34572 1.8178,0 0.64343,-1.34572 Z"
                 style="fill:#000000;fill-opacity:1;fill-rule:nonzero;stroke:#000000;stroke-width:0.3985;stroke-linecap:butt;stroke-linejoin:miter;stroke-miterlimit:10;stroke-dasharray:none;stroke-opacity:1"
                 id="path284"
                 inkscape:connector-curvature="0" /></g></g><g
             id="g286"><g
               id="g288"><path
                 d="m 72.73274,25.96066 c 0,4.83431 -3.91887,8.75319 -8.75317,8.75319 -4.83431,0 -8.75317,-3.91888 -8.75317,-8.75319 0,-4.8343 3.91886,-8.75317 8.75317,-8.75317 4.8343,0 8.75317,3.91887 8.75317,8.75317 z"
                 style="fill:#e6e6e6;fill-opacity:1;fill-rule:nonzero;stroke:#000000;stroke-width:0.3985;stroke-linecap:butt;stroke-linejoin:miter;stroke-miterlimit:10;stroke-dasharray:none;stroke-opacity:1"
                 id="path290"
                 inkscape:connector-curvature="0" /></g><g
               id="g292"
               transform="translate(61.488,22.751)"><g
                 id="g294"><g
                   id="g296"
                   transform="translate(-101.178,-330.508)"><text
   transform="matrix(1,0,0,-1,101.178,330.508)"
   style="font-variant:normal;font-weight:normal;font-size:9.96259975px;font-family:CMR10;-inkscape-font-specification:CMR10;writing-mode:lr-tb;fill:#000000;fill-opacity:1;fill-rule:nonzero;stroke:none"
   id="text300"><tspan
     x="0"
     y="0"
     id="tspan298">1</tspan></text>

<g
   id="g302"
   transform="translate(101.178,330.508)" /></g></g><g
                 id="g304"
                 transform="translate(-61.488,-22.751)" /></g></g><path
             d="M 35.63277,0 92.74701,-27.41934"
             style="fill:none;stroke:#000000;stroke-width:0.3985;stroke-linecap:butt;stroke-linejoin:miter;stroke-miterlimit:10;stroke-dasharray:none;stroke-opacity:1"
             id="path306"
             inkscape:connector-curvature="0" /><g
             id="g308"
             transform="matrix(0.90144,-0.43277,0.43277,0.90144,91.19817,-26.67577)"><g
               id="g310"><path
                 d="M 4.21463,0 0.64343,1.34572 1.8178,0 0.64343,-1.34572 Z"
                 style="fill:#000000;fill-opacity:1;fill-rule:nonzero;stroke:#000000;stroke-width:0.3985;stroke-linecap:butt;stroke-linejoin:miter;stroke-miterlimit:10;stroke-dasharray:none;stroke-opacity:1"
                 id="path312"
                 inkscape:connector-curvature="0" /></g></g><g
             id="g314"><g
               id="g316"><path
                 d="m 74.32404,-28.09775 c 0,4.83431 -3.91889,8.75318 -8.75319,8.75318 -4.83431,0 -8.75318,-3.91887 -8.75318,-8.75318 0,-4.8343 3.91887,-8.75317 8.75318,-8.75317 4.8343,0 8.75319,3.91887 8.75319,8.75317 z"
                 style="fill:#e6e6e6;fill-opacity:1;fill-rule:nonzero;stroke:#000000;stroke-width:0.3985;stroke-linecap:butt;stroke-linejoin:miter;stroke-miterlimit:10;stroke-dasharray:none;stroke-opacity:1"
                 id="path318"
                 inkscape:connector-curvature="0" /></g><g
               id="g320"
               transform="translate(63.079,-31.307)"><g
                 id="g322"><g
                   id="g324"
                   transform="translate(-102.769,-276.45)"><text
   transform="matrix(1,0,0,-1,102.769,276.45)"
   style="font-variant:normal;font-weight:normal;font-size:9.96259975px;font-family:CMR10;-inkscape-font-specification:CMR10;writing-mode:lr-tb;fill:#000000;fill-opacity:1;fill-rule:nonzero;stroke:none"
   id="text328"><tspan
     x="0"
     y="0"
     id="tspan326">1</tspan></text>

<g
   id="g330"
   transform="translate(102.769,276.45)" /></g></g><g
                 id="g332"
                 transform="translate(-63.079,31.307)" /></g></g><path
             d="m 35.63277,-142.13257 53.95337,26.97673"
             style="fill:none;stroke:#000000;stroke-width:0.3985;stroke-linecap:butt;stroke-linejoin:miter;stroke-miterlimit:10;stroke-dasharray:none;stroke-opacity:1"
             id="path334"
             inkscape:connector-curvature="0" /><g
             id="g336"
             transform="matrix(0.89436,0.44717,-0.44717,0.89436,88.04945,-115.92416)"><g
               id="g338"><path
                 d="M 4.21463,0 0.64343,1.34572 1.8178,0 0.64343,-1.34572 Z"
                 style="fill:#000000;fill-opacity:1;fill-rule:nonzero;stroke:#000000;stroke-width:0.3985;stroke-linecap:butt;stroke-linejoin:miter;stroke-miterlimit:10;stroke-dasharray:none;stroke-opacity:1"
                 id="path340"
                 inkscape:connector-curvature="0" /></g></g><g
             id="g342"><g
               id="g344"><path
                 d="m 72.73274,-116.17189 c 0,4.8343 -3.91887,8.75319 -8.75317,8.75319 -4.83431,0 -8.75317,-3.91889 -8.75317,-8.75319 0,-4.83431 3.91886,-8.75317 8.75317,-8.75317 4.8343,0 8.75317,3.91886 8.75317,8.75317 z"
                 style="fill:#e6e6e6;fill-opacity:1;fill-rule:nonzero;stroke:#000000;stroke-width:0.3985;stroke-linecap:butt;stroke-linejoin:miter;stroke-miterlimit:10;stroke-dasharray:none;stroke-opacity:1"
                 id="path346"
                 inkscape:connector-curvature="0" /></g><g
               id="g348"
               transform="translate(61.488,-119.38)"><g
                 id="g350"><g
                   id="g352"
                   transform="translate(-101.178,-188.377)"><text
   transform="matrix(1,0,0,-1,101.178,188.377)"
   style="font-variant:normal;font-weight:normal;font-size:9.96259975px;font-family:CMR10;-inkscape-font-specification:CMR10;writing-mode:lr-tb;fill:#000000;fill-opacity:1;fill-rule:nonzero;stroke:none"
   id="text356"><tspan
     x="0"
     y="0"
     id="tspan354">1</tspan></text>

<g
   id="g358"
   transform="translate(101.178,188.377)" /></g></g><g
                 id="g360"
                 transform="translate(-61.488,119.38)" /></g></g><path
             d="m 35.63277,-142.13257 57.11424,-27.41934"
             style="fill:none;stroke:#000000;stroke-width:0.3985;stroke-linecap:butt;stroke-linejoin:miter;stroke-miterlimit:10;stroke-dasharray:none;stroke-opacity:1"
             id="path362"
             inkscape:connector-curvature="0" /><g
             id="g364"
             transform="matrix(0.90144,-0.43277,0.43277,0.90144,91.19817,-168.80833)"><g
               id="g366"><path
                 d="M 4.21463,0 0.64343,1.34572 1.8178,0 0.64343,-1.34572 Z"
                 style="fill:#000000;fill-opacity:1;fill-rule:nonzero;stroke:#000000;stroke-width:0.3985;stroke-linecap:butt;stroke-linejoin:miter;stroke-miterlimit:10;stroke-dasharray:none;stroke-opacity:1"
                 id="path368"
                 inkscape:connector-curvature="0" /></g></g><g
             id="g370"><g
               id="g372"><path
                 d="m 74.32404,-170.23032 c 0,4.83431 -3.91889,8.75318 -8.75319,8.75318 -4.83431,0 -8.75318,-3.91887 -8.75318,-8.75318 0,-4.8343 3.91887,-8.75317 8.75318,-8.75317 4.8343,0 8.75319,3.91887 8.75319,8.75317 z"
                 style="fill:#e6e6e6;fill-opacity:1;fill-rule:nonzero;stroke:#000000;stroke-width:0.3985;stroke-linecap:butt;stroke-linejoin:miter;stroke-miterlimit:10;stroke-dasharray:none;stroke-opacity:1"
                 id="path374"
                 inkscape:connector-curvature="0" /></g><g
               id="g376"
               transform="translate(63.079,-173.438)"><g
                 id="g378"><g
                   id="g380"
                   transform="translate(-102.769,-134.319)"><text
   transform="matrix(1,0,0,-1,102.769,134.319)"
   style="font-variant:normal;font-weight:normal;font-size:9.96259975px;font-family:CMR10;-inkscape-font-specification:CMR10;writing-mode:lr-tb;fill:#000000;fill-opacity:1;fill-rule:nonzero;stroke:none"
   id="text384"><tspan
     x="0"
     y="0"
     id="tspan382">1</tspan></text>

<g
   id="g386"
   transform="translate(102.769,134.319)" /></g></g><g
                 id="g388"
                 transform="translate(-63.079,173.438)" /></g></g><path
             d="m 39.69028,-261.5876 81.97653,0"
             style="fill:none;stroke:#000000;stroke-width:0.3985;stroke-linecap:butt;stroke-linejoin:miter;stroke-miterlimit:10;stroke-dasharray:none;stroke-opacity:1"
             id="path390"
             inkscape:connector-curvature="0" /><g
             id="g392"
             transform="translate(119.94862,-261.5876)"><g
               id="g394"><path
                 d="M 4.21463,0 0.64343,1.34572 1.8178,0 0.64343,-1.34572 Z"
                 style="fill:#000000;fill-opacity:1;fill-rule:nonzero;stroke:#000000;stroke-width:0.3985;stroke-linecap:butt;stroke-linejoin:miter;stroke-miterlimit:10;stroke-dasharray:none;stroke-opacity:1"
                 id="path396"
                 inkscape:connector-curvature="0" /></g></g><g
             id="g398"><g
               id="g400"><path
                 d="m 90.96367,-249.80031 c 0,4.83431 -3.91887,8.75318 -8.75317,8.75318 -4.83431,0 -8.75318,-3.91887 -8.75318,-8.75318 0,-4.8343 3.91887,-8.75319 8.75318,-8.75319 4.8343,0 8.75317,3.91889 8.75317,8.75319 z"
                 style="fill:#e6e6e6;fill-opacity:1;fill-rule:nonzero;stroke:#000000;stroke-width:0.3985;stroke-linecap:butt;stroke-linejoin:miter;stroke-miterlimit:10;stroke-dasharray:none;stroke-opacity:1"
                 id="path402"
                 inkscape:connector-curvature="0" /></g><g
               id="g404"
               transform="translate(79.719,-253.007)"><g
                 id="g406"><g
                   id="g408"
                   transform="translate(-119.409,-54.75)"><text
   transform="matrix(1,0,0,-1,119.409,54.75)"
   style="font-variant:normal;font-weight:normal;font-size:9.96259975px;font-family:CMR10;-inkscape-font-specification:CMR10;writing-mode:lr-tb;fill:#000000;fill-opacity:1;fill-rule:nonzero;stroke:none"
   id="text412"><tspan
     x="0"
     y="0"
     id="tspan410">1</tspan></text>

<g
   id="g414"
   transform="translate(119.409,54.75)" /></g></g><g
                 id="g416"
                 transform="translate(-79.719,253.007)" /></g></g><path
             d="M 174.44667,28.3468 256.9379,-26.64735"
             style="fill:none;stroke:#000000;stroke-width:0.3985;stroke-linecap:butt;stroke-linejoin:miter;stroke-miterlimit:10;stroke-dasharray:none;stroke-opacity:1"
             id="path418"
             inkscape:connector-curvature="0" /><g
             id="g420"
             transform="matrix(0.83202,-0.55467,0.55467,0.83202,255.50833,-25.69434)"><g
               id="g422"><path
                 d="M 4.21463,0 0.64343,1.34572 1.8178,0 0.64343,-1.34572 Z"
                 style="fill:#000000;fill-opacity:1;fill-rule:nonzero;stroke:#000000;stroke-width:0.3985;stroke-linecap:butt;stroke-linejoin:miter;stroke-miterlimit:10;stroke-dasharray:none;stroke-opacity:1"
                 id="path424"
                 inkscape:connector-curvature="0" /></g></g><path
             d="m 174.44667,-113.78575 82.87907,83.26742"
             style="fill:none;stroke:#000000;stroke-width:0.3985;stroke-linecap:butt;stroke-linejoin:miter;stroke-miterlimit:10;stroke-dasharray:none;stroke-opacity:1"
             id="path426"
             inkscape:connector-curvature="0" /><g
             id="g428"
             transform="matrix(0.70543,0.70874,-0.70874,0.70543,256.1137,-31.73608)"><g
               id="g430"><path
                 d="M 4.21463,0 0.64343,1.34572 1.8178,0 0.64343,-1.34572 Z"
                 style="fill:#000000;fill-opacity:1;fill-rule:nonzero;stroke:#000000;stroke-width:0.3985;stroke-linecap:butt;stroke-linejoin:miter;stroke-miterlimit:10;stroke-dasharray:none;stroke-opacity:1"
                 id="path432"
                 inkscape:connector-curvature="0" /></g></g><path
             d="m 171.26411,-28.7453 86.01714,-82.91422"
             style="fill:none;stroke:#000000;stroke-width:0.3985;stroke-linecap:butt;stroke-linejoin:miter;stroke-miterlimit:10;stroke-dasharray:none;stroke-opacity:1"
             id="path434"
             inkscape:connector-curvature="0" /><g
             id="g436"
             transform="matrix(0.71996,-0.69397,0.69397,0.71996,256.04422,-110.46715)"><g
               id="g438"><path
                 d="M 4.21463,0 0.64343,1.34572 1.8178,0 0.64343,-1.34572 Z"
                 style="fill:#000000;fill-opacity:1;fill-rule:nonzero;stroke:#000000;stroke-width:0.3985;stroke-linecap:butt;stroke-linejoin:miter;stroke-miterlimit:10;stroke-dasharray:none;stroke-opacity:1"
                 id="path440"
                 inkscape:connector-curvature="0" /></g></g><g
             id="g442"><g
               id="g444"><path
                 d="m 243.97148,-31.13142 c 0,4.8343 -3.91887,8.75317 -8.75318,8.75317 -4.8343,0 -8.75317,-3.91887 -8.75317,-8.75317 0,-4.83431 3.91887,-8.75318 8.75317,-8.75318 4.83431,0 8.75318,3.91887 8.75318,8.75318 z"
                 style="fill:#e6e6e6;fill-opacity:1;fill-rule:nonzero;stroke:#000000;stroke-width:0.3985;stroke-linecap:butt;stroke-linejoin:miter;stroke-miterlimit:10;stroke-dasharray:none;stroke-opacity:1"
                 id="path446"
                 inkscape:connector-curvature="0" /></g><g
               id="g448"
               transform="translate(232.724,-34.341)"><g
                 id="g450"><g
                   id="g452"
                   transform="translate(-272.414,-273.416)"><text
   transform="matrix(1,0,0,-1,272.414,273.416)"
   style="font-variant:normal;font-weight:normal;font-size:9.96259975px;font-family:CMR10;-inkscape-font-specification:CMR10;writing-mode:lr-tb;fill:#000000;fill-opacity:1;fill-rule:nonzero;stroke:none"
   id="text456"><tspan
     x="0"
     y="0"
     id="tspan454">2</tspan></text>

<g
   id="g458"
   transform="translate(272.414,273.416)" /></g></g><g
                 id="g460"
                 transform="translate(-232.724,34.341)" /></g></g><path
             d="m 171.26411,-28.7453 86.81492,-167.75842"
             style="fill:none;stroke:#000000;stroke-width:0.3985;stroke-linecap:butt;stroke-linejoin:miter;stroke-miterlimit:10;stroke-dasharray:none;stroke-opacity:1"
             id="path462"
             inkscape:connector-curvature="0" /><g
             id="g464"
             transform="matrix(0.45958,-0.88808,0.88808,0.45958,257.28937,-194.97784)"><g
               id="g466"><path
                 d="M 4.21463,0 0.64343,1.34572 1.8178,0 0.64343,-1.34572 Z"
                 style="fill:#000000;fill-opacity:1;fill-rule:nonzero;stroke:#000000;stroke-width:0.3985;stroke-linecap:butt;stroke-linejoin:miter;stroke-miterlimit:10;stroke-dasharray:none;stroke-opacity:1"
                 id="path468"
                 inkscape:connector-curvature="0" /></g></g><path
             d="m 171.26411,-170.87787 85.65084,55.42752"
             style="fill:none;stroke:#000000;stroke-width:0.3985;stroke-linecap:butt;stroke-linejoin:miter;stroke-miterlimit:10;stroke-dasharray:none;stroke-opacity:1"
             id="path470"
             inkscape:connector-curvature="0" /><g
             id="g472"
             transform="matrix(0.83951,0.54329,-0.54329,0.83951,255.47252,-116.38383)"><g
               id="g474"><path
                 d="M 4.21463,0 0.64343,1.34572 1.8178,0 0.64343,-1.34572 Z"
                 style="fill:#000000;fill-opacity:1;fill-rule:nonzero;stroke:#000000;stroke-width:0.3985;stroke-linecap:butt;stroke-linejoin:miter;stroke-miterlimit:10;stroke-dasharray:none;stroke-opacity:1"
                 id="path476"
                 inkscape:connector-curvature="0" /></g></g><g
             id="g478"><g
               id="g480"><path
                 d="m 246.80634,-110.70186 c 0,4.83431 -3.91889,8.75318 -8.75319,8.75318 -4.83431,0 -8.75318,-3.91887 -8.75318,-8.75318 0,-4.8343 3.91887,-8.75319 8.75318,-8.75319 4.8343,0 8.75319,3.91889 8.75319,8.75319 z"
                 style="fill:#e6e6e6;fill-opacity:1;fill-rule:nonzero;stroke:#000000;stroke-width:0.3985;stroke-linecap:butt;stroke-linejoin:miter;stroke-miterlimit:10;stroke-dasharray:none;stroke-opacity:1"
                 id="path482"
                 inkscape:connector-curvature="0" /></g><g
               id="g484"
               transform="translate(235.559,-113.91)"><g
                 id="g486"><g
                   id="g488"
                   transform="translate(-275.249,-193.847)"><text
   transform="matrix(1,0,0,-1,275.249,193.847)"
   style="font-variant:normal;font-weight:normal;font-size:9.96259975px;font-family:CMR10;-inkscape-font-specification:CMR10;writing-mode:lr-tb;fill:#000000;fill-opacity:1;fill-rule:nonzero;stroke:none"
   id="text492"><tspan
     x="0"
     y="0"
     id="tspan490">2</tspan></text>

<g
   id="g494"
   transform="translate(275.249,193.847)" /></g></g><g
                 id="g496"
                 transform="translate(-235.559,113.91)" /></g></g><path
             d="m 195.99626,-261.5876 61.30518,60.21602"
             style="fill:none;stroke:#000000;stroke-width:0.3985;stroke-linecap:butt;stroke-linejoin:miter;stroke-miterlimit:10;stroke-dasharray:none;stroke-opacity:1"
             id="path498"
             inkscape:connector-curvature="0" /><g
             id="g500"
             transform="matrix(0.71336,0.7007,-0.7007,0.71336,256.07576,-202.57552)"><g
               id="g502"><path
                 d="M 4.21463,0 0.64343,1.34572 1.8178,0 0.64343,-1.34572 Z"
                 style="fill:#000000;fill-opacity:1;fill-rule:nonzero;stroke:#000000;stroke-width:0.3985;stroke-linecap:butt;stroke-linejoin:miter;stroke-miterlimit:10;stroke-dasharray:none;stroke-opacity:1"
                 id="path504"
                 inkscape:connector-curvature="0" /></g></g><g
             id="g506"><g
               id="g508"><path
                 d="m 250.66826,-193.10692 c 0,4.83431 -3.91887,8.75318 -8.75318,8.75318 -4.8343,0 -8.75318,-3.91887 -8.75318,-8.75318 0,-4.8343 3.91888,-8.75318 8.75318,-8.75318 4.83431,0 8.75318,3.91888 8.75318,8.75318 z"
                 style="fill:#e6e6e6;fill-opacity:1;fill-rule:nonzero;stroke:#000000;stroke-width:0.3985;stroke-linecap:butt;stroke-linejoin:miter;stroke-miterlimit:10;stroke-dasharray:none;stroke-opacity:1"
                 id="path510"
                 inkscape:connector-curvature="0" /></g><g
               id="g512"
               transform="translate(239.421,-196.314)"><g
                 id="g514"><g
                   id="g516"
                   transform="translate(-279.111,-111.443)"><text
   transform="matrix(1,0,0,-1,279.111,111.443)"
   style="font-variant:normal;font-weight:normal;font-size:9.96259975px;font-family:CMR10;-inkscape-font-specification:CMR10;writing-mode:lr-tb;fill:#000000;fill-opacity:1;fill-rule:nonzero;stroke:none"
   id="text520"><tspan
     x="0"
     y="0"
     id="tspan518">2</tspan></text>

<g
   id="g522"
   transform="translate(279.111,111.443)" /></g></g><g
                 id="g524"
                 transform="translate(-239.421,196.314)" /></g></g><path
             d="m 352.92633,-28.34682 36.85092,0"
             style="fill:none;stroke:#000000;stroke-width:0.3985;stroke-linecap:butt;stroke-linejoin:miter;stroke-miterlimit:10;stroke-dasharray:none;stroke-opacity:1"
             id="path526"
             inkscape:connector-curvature="0" /><path
             d="m 389.77725,-28.34682 0,-85.04043"
             style="fill:none;stroke:#000000;stroke-width:0.3985;stroke-linecap:butt;stroke-linejoin:miter;stroke-miterlimit:10;stroke-dasharray:none;stroke-opacity:1"
             id="path528"
             inkscape:connector-curvature="0" /><path
             d="m 352.92633,-113.78577 36.85092,0.39852"
             style="fill:none;stroke:#000000;stroke-width:0.3985;stroke-linecap:butt;stroke-linejoin:miter;stroke-miterlimit:10;stroke-dasharray:none;stroke-opacity:1"
             id="path530"
             inkscape:connector-curvature="0" /><path
             d="m 352.92633,-199.22472 36.85092,0.79705"
             style="fill:none;stroke:#000000;stroke-width:0.3985;stroke-linecap:butt;stroke-linejoin:miter;stroke-miterlimit:10;stroke-dasharray:none;stroke-opacity:1"
             id="path532"
             inkscape:connector-curvature="0" /><path
             d="m 389.77725,-198.42767 0,85.04042"
             style="fill:none;stroke:#000000;stroke-width:0.3985;stroke-linecap:butt;stroke-linejoin:miter;stroke-miterlimit:10;stroke-dasharray:none;stroke-opacity:1"
             id="path534"
             inkscape:connector-curvature="0" /><path
             d="m 389.77725,-113.38725 45.12585,-0.37319"
             style="fill:none;stroke:#000000;stroke-width:0.3985;stroke-linecap:butt;stroke-linejoin:miter;stroke-miterlimit:10;stroke-dasharray:none;stroke-opacity:1"
             id="path536"
             inkscape:connector-curvature="0" /><g
             id="g538"
             transform="matrix(0.99992,-0.00827,0.00827,0.99992,433.18503,-113.74623)"><g
               id="g540"><path
                 d="M 4.21463,0 0.64343,1.34572 1.8178,0 0.64343,-1.34572 Z"
                 style="fill:#000000;fill-opacity:1;fill-rule:nonzero;stroke:#000000;stroke-width:0.3985;stroke-linecap:butt;stroke-linejoin:miter;stroke-miterlimit:10;stroke-dasharray:none;stroke-opacity:1"
                 id="path542"
                 inkscape:connector-curvature="0" /></g></g><g
             id="g544"><g
               id="g546"><path
                 d="m 399.94766,-113.1382 c 0,4.8343 -3.91888,8.75319 -8.75319,8.75319 -4.8343,0 -8.75317,-3.91889 -8.75317,-8.75319 0,-4.8343 3.91887,-8.75317 8.75317,-8.75317 4.83431,0 8.75319,3.91887 8.75319,8.75317 z"
                 style="fill:#e6e6e6;fill-opacity:1;fill-rule:nonzero;stroke:#000000;stroke-width:0.3985;stroke-linecap:butt;stroke-linejoin:miter;stroke-miterlimit:10;stroke-dasharray:none;stroke-opacity:1"
                 id="path548"
                 inkscape:connector-curvature="0" /></g><g
               id="g550"
               transform="translate(388.699,-116.346)"><g
                 id="g552"><g
                   id="g554"
                   transform="translate(-428.389,-191.411)"><text
   transform="matrix(1,0,0,-1,428.389,191.411)"
   style="font-variant:normal;font-weight:normal;font-size:9.96259975px;font-family:CMR10;-inkscape-font-specification:CMR10;writing-mode:lr-tb;fill:#000000;fill-opacity:1;fill-rule:nonzero;stroke:none"
   id="text558"><tspan
     x="0"
     y="0"
     id="tspan556">3</tspan></text>

<g
   id="g560"
   transform="translate(428.389,191.411)" /></g></g><g
                 id="g562"
                 transform="translate(-388.699,116.346)" /></g></g><g
             id="g564"><g
               id="g566"><path
                 d="m 507.36197,-270.09178 -62.89682,0 c -2.20095,0 -3.98511,-1.78417 -3.98511,-3.98511 l 0,-29.50014 c 0,-2.20094 1.78416,-3.9851 3.98511,-3.9851 l 62.89682,0 c 2.20094,0 3.98511,1.78416 3.98511,3.9851 l 0,29.50014 c 0,2.20094 -1.78417,3.98511 -3.98511,3.98511 z"
                 style="fill:#e6e6e6;fill-opacity:1;fill-rule:nonzero;stroke:#000000;stroke-width:0.3985;stroke-linecap:butt;stroke-linejoin:miter;stroke-miterlimit:10;stroke-dasharray:none;stroke-opacity:1"
                 id="path568"
                 inkscape:connector-curvature="0" /></g><g
               id="g570"
               transform="translate(449.34,-304.237)"><g
                 id="g572"><g
                   id="g574"
                   transform="translate(-489.03,-3.52)"><text
   transform="matrix(1,0,0,-1,489.03,27.43)"
   style="font-variant:normal;font-weight:normal;font-size:9.96259975px;font-family:CMR10;-inkscape-font-specification:CMR10;writing-mode:lr-tb;fill:#000000;fill-opacity:1;fill-rule:nonzero;stroke:none"
   id="text582"><tspan
     x="0 8.2988462 14.946889 19.374268 24.355568 27.123178 31.550558 37.085777 39.85339 44.83469 48.709145"
     y="0"
     id="tspan576">1-calculate</tspan><tspan
     x="0.81599998 9.1148462 15.762889 20.190268 25.171568 33.473404 39.008625 43.989922 47.892273"
     y="11.955"
     id="tspan578">2-compare</tspan><tspan
     x="1.245 9.5438461 16.191889 20.619268 25.600569 33.623451 39.158672 41.926281 47.461502"
     y="23.91"
     id="tspan580">3-combine</tspan></text>

<g
   id="g584"
   transform="translate(489.03,3.52)" /></g></g><g
                 id="g586"
                 transform="translate(-449.34,304.237)" /></g></g></g></g></g></g></svg>