<svg width="3742" height="1493" xmlns="http://www.w3.org/2000/svg" xmlns:xlink="http://www.w3.org/1999/xlink" overflow="hidden"><defs><clipPath id="clip0"><rect x="307" y="405" width="3742" height="1493"/></clipPath></defs><g clip-path="url(#clip0)" transform="translate(-307 -405)"><rect x="1344.5" y="419.5" width="688" height="220" stroke="#44546A" stroke-width="4.58333" stroke-miterlimit="8" fill="#70AD47"/><text fill="#FFFFFF" font-family="Calibri,Calibri_MSFontService,sans-serif" font-weight="400" font-size="83" transform="matrix(1 0 0 1 1438.42 507)">Image <tspan font-size="83" x="224.469" y="0">features</tspan><tspan font-size="83" x="32.6563" y="99">video</tspan><tspan font-size="83" x="236.042" y="99">frames</tspan></text><rect x="1344.5" y="733.5" width="688" height="211" stroke="#44546A" stroke-width="4.58333" stroke-miterlimit="8" fill="#70AD47"/><text fill="#FFFFFF" font-family="Calibri,Calibri_MSFontService,sans-serif" font-weight="400" font-size="83" transform="matrix(1 0 0 1 1473.17 817)">Text <tspan font-size="83" x="154.963" y="0">features</tspan><tspan font-size="83" x="-2.10828" y="99">video</tspan><tspan font-size="83" x="201.277" y="99">frames</tspan></text><rect x="310.5" y="1715.5" width="632" height="153" stroke="#44546A" stroke-width="4.58333" stroke-miterlimit="8" fill="#ED7D31"/><text fill="#FFFFFF" font-family="Calibri,Calibri_MSFontService,sans-serif" font-weight="400" font-size="83" transform="matrix(1 0 0 1 356.703 1819)">Audio <tspan font-size="83" x="215.99" y="0">transcript</tspan></text><rect x="321.5" y="1234.5" width="632" height="153" stroke="#44546A" stroke-width="4.58333" stroke-miterlimit="8" fill="#ED7D31"/><text fill="#FFFFFF" font-family="Calibri,Calibri_MSFontService,sans-serif" font-weight="400" font-size="83" transform="matrix(1 0 0 1 468.403 1338)">PDF slides</text><rect x="313.5" y="601.5" width="632" height="153" stroke="#44546A" stroke-width="4.58333" stroke-miterlimit="8" fill="#70AD47"/><text fill="#FFFFFF" font-family="Calibri,Calibri_MSFontService,sans-serif" font-weight="400" font-size="83" transform="matrix(1 0 0 1 407.047 705)">Video <tspan font-size="83" x="213.125" y="0">frames</tspan></text><path d="M0.00603982-1.14582 375.077 0.831252 375.065 3.12289-0.00603982 1.14582ZM370.561-11.7969 397.988 2.09787 370.416 15.7027Z" transform="matrix(1 0 0 -1 942 1791.1)"/><path d="M0.398249-1.0744 378.056 138.913 377.26 141.061-0.398249 1.0744ZM378.14 125.501 399.147 147.952 368.582 151.287Z" transform="matrix(1 0 0 -1 945 676.952)"/><path d="M945.43 675.938 1323.33 828.838 1322.47 830.962 944.57 678.062ZM1323.81 815.435 1344.15 838.495 1313.5 840.927Z"/><text font-family="Calibri,Calibri_MSFontService,sans-serif" font-weight="400" font-size="64" transform="matrix(0.93936 -0.342932 0.342932 0.93936 1022.09 619)">calculate</text><rect x="1344.5" y="1054.5" width="688" height="212" stroke="#44546A" stroke-width="4.58333" stroke-miterlimit="8" fill="#ED7D31"/><text fill="#FFFFFF" font-family="Calibri,Calibri_MSFontService,sans-serif" font-weight="400" font-size="83" transform="matrix(1 0 0 1 1438.42 1138)">Image <tspan font-size="83" x="224.469" y="0">features</tspan><tspan font-size="83" x="90.8187" y="99">PDF slides</tspan></text><rect x="1344.5" y="1367.5" width="688" height="211" stroke="#44546A" stroke-width="4.58333" stroke-miterlimit="8" fill="#ED7D31"/><text fill="#FFFFFF" font-family="Calibri,Calibri_MSFontService,sans-serif" font-weight="400" font-size="83" transform="matrix(1 0 0 1 1473.17 1451)">Text <tspan font-size="83" x="154.963" y="0">features</tspan><tspan font-size="83" x="56.0542" y="99">PDF slides</tspan></text><rect x="1340.5" y="1684.5" width="688" height="211" stroke="#44546A" stroke-width="4.58333" stroke-miterlimit="8" fill="#ED7D31"/><text fill="#FFFFFF" font-family="Calibri,Calibri_MSFontService,sans-serif" font-weight="400" font-size="83" transform="matrix(1 0 0 1 1438.52 1817)">Audio <tspan font-size="83" x="215.99" y="0">features</tspan></text><path d="M0.411624-1.06935 370.395 141.349 369.572 143.487-0.411624 1.06935ZM370.645 127.939 391.37 150.651 360.766 153.604Z" transform="matrix(1 0 0 -1 953 1310.65)"/><path d="M953.438 1309.94 1323.63 1463.02 1322.75 1465.14 952.562 1312.06ZM1324.21 1449.62 1344.37 1472.84 1313.7 1475.03Z"/><text font-family="Calibri,Calibri_MSFontService,sans-serif" font-weight="400" font-size="64" transform="matrix(0.93936 -0.342932 0.342932 0.93936 1010.18 1250)">calculate</text><text font-family="Calibri,Calibri_MSFontService,sans-serif" font-weight="400" font-size="64" transform="matrix(1 0 0 1 1005.63 1772)">calculate</text><text font-family="Calibri,Calibri_MSFontService,sans-serif" font-weight="400" font-size="64" transform="matrix(0.916897 0.399124 -0.399124 0.916897 1010.03 763)">calculate</text><text font-family="Calibri,Calibri_MSFontService,sans-serif" font-weight="400" font-size="64" transform="matrix(0.918326 0.395824 -0.395824 0.918326 999.975 1401)">calculate</text><rect x="2368.5" y="609.5" width="688" height="220" stroke="#44546A" stroke-width="4.58333" stroke-miterlimit="8" fill="#203864"/><text fill="#FFFFFF" font-family="Calibri,Calibri_MSFontService,sans-serif" font-weight="400" font-size="83" transform="matrix(1 0 0 1 2438.6 697)">Similarity<tspan font-size="83" x="331.146" y="0">matrix</tspan><tspan font-size="83" x="24.2686" y="99">image</tspan><tspan font-size="83" x="247.019" y="99">features</tspan></text><rect x="2368.5" y="1018.5" width="688" height="220" stroke="#44546A" stroke-width="4.58333" stroke-miterlimit="8" fill="#203864"/><text fill="#FFFFFF" font-family="Calibri,Calibri_MSFontService,sans-serif" font-weight="400" font-size="83" transform="matrix(1 0 0 1 2438.6 1105)">Similarity<tspan font-size="83" x="331.146" y="0">matrix</tspan><tspan font-size="83" x="61.2332" y="99">text</tspan><tspan font-size="83" x="210.031" y="99">features</tspan></text><rect x="2368.5" y="1439.5" width="688" height="220" stroke="#44546A" stroke-width="4.58333" stroke-miterlimit="8" fill="#203864"/><text fill="#FFFFFF" font-family="Calibri,Calibri_MSFontService,sans-serif" font-weight="400" font-size="83" transform="matrix(1 0 0 1 2438.6 1527)">Similarity<tspan font-size="83" x="331.146" y="0">matrix</tspan><tspan font-size="83" x="7.8833" y="99">speech</tspan><tspan font-size="83" x="263.404" y="99">features</tspan></text><path d="M2032.56 528.003 2348.41 706.722 2347.28 708.717 2031.44 529.997ZM2350.63 693.496 2367.79 719.006 2337.08 717.43Z"/><path d="M0.911567-0.694248 322.818 421.978 320.995 423.366-0.911567 0.694248ZM330.068 410.694 335.791 440.903 308.19 427.356Z" transform="matrix(1 0 0 -1 2032 1159.9)"/><path d="M2032.75 838.132 2351.17 1112.08 2349.67 1113.82 2031.25 839.869ZM2355.91 1099.54 2367.79 1127.89 2337.98 1120.38Z"/><path d="M0.821173-0.79913 320.629 327.831 318.987 329.429-0.821173 0.79913ZM326.466 315.756 335.791 345.054 306.758 334.935Z" transform="matrix(1 0 0 -1 2032 1473.05)"/><path d="M0.661632-0.935509 321.876 226.241 320.553 228.112-0.661632 0.935509ZM325.412 213.304 339.925 240.409 309.533 235.756Z" transform="matrix(1 0 0 -1 2028 1789.41)"/><path d="M2033.04 838.51 2359.03 1528.16 2356.96 1529.14 2030.96 839.49ZM2368.47 1518.63 2367.79 1549.37 2343.61 1530.38Z"/><rect x="3270.5" y="1018.5" width="688" height="220" stroke="#44546A" stroke-width="4.58333" stroke-miterlimit="8" fill="#2F5597"/><text fill="#FFFFFF" font-family="Calibri,Calibri_MSFontService,sans-serif" font-weight="400" font-size="83" transform="matrix(1 0 0 1 3354.64 1155)">Decision<tspan font-size="83" x="303.073" y="0">matrix</tspan></text><path d="M3056.02 717.854 3082.16 718.292 3108.32 719.544 3134.36 721.672 3160.27 724.551 3185.93 728.243 3211.34 732.624 3236.43 737.756 3261.21 743.513 3285.56 749.959 3309.47 757.031 3332.81 764.73 3355.66 772.991 3377.81 781.817 3399.35 791.143 3420.19 800.972 3440.23 811.239 3459.51 821.947 3477.86 833.094 3495.34 844.619 3511.82 856.46 3527.23 868.681 3541.65 881.217 3554.94 894.01 3566.99 907.059 3577.91 920.304 3587.46 933.808 3595.75 947.446 3602.61 961.222 3608.08 975.122 3610.23 982.126 3612.07 989.224 3612.71 994.462 3610.43 994.741 3609.8 989.577 3609.83 989.725 3608.02 982.725 3608.03 982.773 3605.9 975.836 3605.93 975.92 3600.5 962.107 3600.54 962.198 3593.72 948.511 3593.77 948.596 3585.52 935.033 3585.56 935.099 3576.06 921.662 3576.12 921.729 3565.24 908.542 3565.28 908.59 3553.28 895.59 3553.33 895.638 3540.08 882.888 3540.12 882.927 3525.75 870.427 3525.79 870.461 3510.41 858.273 3510.46 858.306 3494.02 846.493 3494.06 846.519 3476.62 835.019 3476.66 835.042 3458.34 823.917 3458.38 823.939 3439.13 813.252 3439.16 813.27 3419.17 803.02 3419.2 803.037 3398.39 793.224 3398.42 793.239 3376.92 783.927 3376.95 783.94 3354.83 775.127 3354.86 775.14 3332.05 766.89 3332.08 766.901 3308.77 759.213 3308.8 759.224 3284.93 752.161 3284.96 752.17 3260.64 745.733 3260.68 745.741 3235.93 739.991 3235.96 739.998 3210.9 734.873 3210.93 734.879 3185.56 730.504 3185.59 730.509 3159.96 726.822 3160 726.826 3134.12 723.951 3134.16 723.955 3108.16 721.83 3108.2 721.832 3082.07 720.582 3082.11 720.583 3055.98 720.146ZM3624.72 988.513 3614.12 1017.38 3597.39 991.58Z"/><path d="M0.0191859-1.14567 26.1647-0.707829 52.3295 0.669266 78.3668 2.92249 104.278 5.98928 129.94 9.86984 155.351 14.564 180.448 20.009 205.231 26.2048 229.578 33.0269 253.488 40.6005 276.833 48.7993 299.679 57.5623 321.838 66.9516 343.371 76.8419 364.219 87.2974 384.254 98.2538 403.541 109.651 421.89 121.549 439.365 133.763 455.844 146.42 471.259 159.453 485.674 172.74 498.969 186.349 511.012 200.274 521.931 214.393 531.475 228.71 539.768 243.223 546.621 257.933 552.089 272.704 554.233 280.143 556.066 287.665 556.973 294.676 554.7 294.97 553.801 288.022 553.824 288.146 552.012 280.709 552.024 280.755 549.899 273.38 549.925 273.46 544.488 258.773 544.524 258.859 537.711 244.234 537.755 244.318 529.505 229.881 529.547 229.948 520.047 215.698 520.094 215.763 509.219 201.701 509.258 201.75 497.258 187.875 497.305 187.926 484.055 174.363 484.098 174.405 469.723 161.155 469.76 161.187 454.385 148.187 454.427 148.221 437.99 135.596 438.031 135.627 420.594 123.439 420.627 123.461 402.314 111.586 402.355 111.611 383.105 100.236 383.138 100.255 363.138 89.3178 363.174 89.3367 342.361 78.8992 342.397 78.9163 320.897 69.0413 320.928 69.055 298.803 59.68 298.84 59.6948 276.027 50.9448 276.058 50.9561 252.745 42.7686 252.779 42.7798 228.904 35.2173 228.941 35.2283 204.628 28.4158 204.66 28.4241 179.91 22.2366 179.945 22.2448 154.882 16.8073 154.917 16.8143 129.542 12.1268 129.579 12.133 103.954 8.25795 103.99 8.26289 78.1153 5.20039 78.1512 5.20407 52.1512 2.95407 52.1898 2.95675 26.0648 1.58175 26.1058 1.58317-0.0191859 1.14567ZM569.06 288.889 558.125 317.625 541.698 291.636Z" transform="matrix(1 0 0 -1 3056 1555.61)"/><path d="M3056 1126.85 3247.3 1126.85 3247.3 1129.15 3056 1129.15ZM3242.71 1114.25 3270.21 1128 3242.71 1141.75Z"/><path d="M3576.5 812.5C3576.5 720.821 3681.94 646.5 3812 646.5 3942.06 646.5 4047.5 720.821 4047.5 812.5 4047.5 904.179 3942.06 978.5 3812 978.5 3681.94 978.5 3576.5 904.179 3576.5 812.5Z" stroke="#000000" stroke-width="3.4375" stroke-linejoin="round" stroke-miterlimit="10" fill="none" fill-rule="evenodd"/><text font-family="Calibri,Calibri_MSFontService,sans-serif" font-weight="400" font-size="83" transform="matrix(1 0 0 1 3721.55 790)">Jump <tspan font-size="83" x="-36.0938" y="99">penalty</tspan></text></g></svg>